<svg xmlns="http://www.w3.org/2000/svg" viewBox="0 0 500 500"><g id="freepik--background-simple--inject-2"><path d="M438.07,82.85C478.84,141.91,480,223.52,448.37,288S355.79,399.79,288,423.42c-48.38,16.87-102.2,22.35-150.83,6.19S46.48,373.15,36.66,322.87c-3.71-19-2.49-39.89,8.28-56,17.2-25.67,51.9-31.34,82.62-34.68S193,223.3,210.28,197.7c13.3-19.67,12.08-45.32,17.29-68.49,8.88-39.38,38.83-73.35,76.79-87.1a116.49,116.49,0,0,1,20.45-5.33c41.34-6.87,83.13,9.57,109.8,41.88Z" style="fill:#ebebeb"></path><circle cx="113.98" cy="86.64" r="45" style="fill:#ebebeb"></circle></g><g id="freepik--Floor--inject-2"><path d="M460.65,445.58c0,.15-97.59.26-217.94.26s-218-.11-218-.26,97.57-.26,218-.26S460.65,445.44,460.65,445.58Z" style="fill:#263238"></path></g><g id="freepik--Character--inject-2"><path d="M91.13,226.61c13-17.16,26.76-14.74,36.29-10.59a26.18,26.18,0,0,1,15.3,25c-.16,2.74-.75,5.62.37,8.13,1.79,4,7,5.17,10,8.39,4.13,4.41,3.22,11.38,1.82,17.26s-2.86,12.58.59,17.53c3.17,4.53,9.2,5.75,14.18,8.17a26,26,0,0,1,13.76,16.19,22.2,22.2,0,0,1-4.71,20.48c-4.84,5.26-12.1,7.6-19.17,8.64a70.63,70.63,0,0,1-80.85-73.46" style="fill:#263238"></path><path d="M128.1,216.75a37.59,37.59,0,0,0-4.63.26,61.91,61.91,0,0,0-10.76,3.12c-4.15,1.45-8.16,2.26-11.08,2.07a13.89,13.89,0,0,1-3.39-.55,4.72,4.72,0,0,1-1.18-.47,22.9,22.9,0,0,0,4.58.66,33,33,0,0,0,10.91-2.2c4.13-1.45,8-2.7,10.87-3a18.19,18.19,0,0,1,3.44-.09A4.75,4.75,0,0,1,128.1,216.75Z" style="fill:#455a64"></path><path d="M158.06,353.24c.5,1.5,10.87,50.5,10.87,50.5l78.89,30.33-4.44,11.51-67.64-5.95h0c-39.48-5.89-41.67-25.26-39.29-46.91l4.09-37.11Z" style="fill:#ffbe9d"></path><path d="M44.67,326.82c8.13-12.31,20.47-19.41,31.77-23.34l41.5,3a31.64,31.64,0,0,1,25.28,9.33l3.86,102.83,9.53,27H57.88L44.67,326.82" style="fill:#7E7BBC"></path><path d="M144.74,358s-.09-.05-.24-.16l-.67-.5a12.91,12.91,0,0,0-1.09-.81l-1.55-1c-.62-.33-1.3-.7-2.05-1.07a27.4,27.4,0,0,0-9.09-2.39,27.1,27.1,0,0,0-8.06.5,24.3,24.3,0,0,0-8.51,3.58,17.87,17.87,0,0,0-6.7,7.53,10.76,10.76,0,0,0-.91,5.21,9.81,9.81,0,0,0,2,5.05,7,7,0,0,0,4.56,2.71,4.41,4.41,0,0,0,4.49-1.93,5.79,5.79,0,0,0,.08-4.9,9.31,9.31,0,0,0-1.18-2.2,12.31,12.31,0,0,0-1.66-1.8,17.83,17.83,0,0,0-8.19-4.09,25.15,25.15,0,0,0-8.06-.45A53,53,0,0,0,86.43,364l-3.05,1-.79.26a.82.82,0,0,1-.28.07l.26-.12.78-.31c.68-.26,1.7-.65,3-1.12a50.33,50.33,0,0,1,11.49-2.87,25.6,25.6,0,0,1,8.19.39,18.4,18.4,0,0,1,8.41,4.16c.32.28.62.58.91.89a9,9,0,0,1,.83,1,10,10,0,0,1,1.25,2.3,6.32,6.32,0,0,1-.11,5.34,4.31,4.31,0,0,1-2.15,1.84,5.71,5.71,0,0,1-2.84.34,7.47,7.47,0,0,1-4.91-2.9,10.23,10.23,0,0,1-2.07-5.32,11.11,11.11,0,0,1,1-5.46,18.26,18.26,0,0,1,6.9-7.73,25,25,0,0,1,8.69-3.61,27.48,27.48,0,0,1,8.18-.44,26,26,0,0,1,6.6,1.46,27.5,27.5,0,0,1,2.56,1.07c.76.39,1.44.78,2,1.12l1.54,1.05a13.65,13.65,0,0,1,1.07.86l.63.54Z" style="fill:#fafafa"></path><polygon points="143.22 315.76 167.72 359.82 140.54 368.17 143.22 315.76" style="fill:#7E7BBC"></polygon><path d="M146.51,418.93a4.62,4.62,0,0,1-.08-.77c0-.55-.07-1.28-.13-2.2-.09-2-.21-4.74-.37-8.14-.28-6.86-.63-16.35-.94-26.83s-.5-20-.56-26.86c0-3.44,0-6.22,0-8.14,0-.92,0-1.66,0-2.21a4.55,4.55,0,0,1,.05-.77,3.81,3.81,0,0,1,.06.77l.06,2.21c0,2,.1,4.74.18,8.13.18,6.92.43,16.39.71,26.85s.59,19.92.79,26.84c.08,3.39.15,6.16.2,8.14,0,.92,0,1.66,0,2.21A3.76,3.76,0,0,1,146.51,418.93Z" style="fill:#263238"></path><path d="M150.45,329.18a2.8,2.8,0,0,1-.56.39,15.32,15.32,0,0,1-1.72.94,18.14,18.14,0,0,1-17.26-1.45,11.4,11.4,0,0,1-2.39-2,5.9,5.9,0,0,1-1.48-3,4,4,0,0,1,.89-3.33,3.56,3.56,0,0,1,3.39-1,4.4,4.4,0,0,1,2.93,2,5,5,0,0,1,.53,3.41,6.74,6.74,0,0,1-1.39,3,8.14,8.14,0,0,1-2.45,2,15.34,15.34,0,0,1-5.55,1.56,24.77,24.77,0,0,1-5,.06,24.51,24.51,0,0,1-7-1.69,18.1,18.1,0,0,1-1.78-.83,2.61,2.61,0,0,1-.59-.35,6.07,6.07,0,0,1,.63.26c.41.18,1,.44,1.81.73a25.91,25.91,0,0,0,7,1.51,25,25,0,0,0,4.92-.12,15.06,15.06,0,0,0,5.37-1.55,7.83,7.83,0,0,0,2.3-1.88,6.32,6.32,0,0,0,1.27-2.78,4.49,4.49,0,0,0-.48-3.05,3.83,3.83,0,0,0-2.58-1.76,3.06,3.06,0,0,0-2.91.82,3.5,3.5,0,0,0-.76,2.91,5.42,5.42,0,0,0,1.34,2.72,11.22,11.22,0,0,0,2.29,2,17.59,17.59,0,0,0,9.94,3,18.39,18.39,0,0,0,7-1.34C149.64,329.66,150.42,329.13,150.45,329.18Z" style="fill:#fafafa"></path><path d="M145.23,418.07l-.28-.19-.8-.58a27.06,27.06,0,0,0-3.27-1.95,29.09,29.09,0,0,0-13.5-3c-5.89,0-12.86,2-19.61,5.88a28,28,0,0,0-4.84,3.46,16.57,16.57,0,0,0-3.82,4.8,9.5,9.5,0,0,0-.91,6.13,5.41,5.41,0,0,0,1.54,2.72,3,3,0,0,0,2.88.71,4.09,4.09,0,0,0,2.31-2,6.94,6.94,0,0,0,.83-3.06,10.7,10.7,0,0,0-1.9-6,14.62,14.62,0,0,0-4.43-4.23,17.16,17.16,0,0,0-5.49-2.15,31.71,31.71,0,0,0-11-.11,65.76,65.76,0,0,0-9.43,2.06A67.68,67.68,0,0,0,60.62,426c-1.45.79-2.55,1.45-3.3,1.9l-.84.52-.3.16s.08-.08.27-.21l.82-.56c.72-.48,1.82-1.16,3.26-2a65,65,0,0,1,12.89-5.52,63.6,63.6,0,0,1,9.48-2.13,31.62,31.62,0,0,1,11.14.06,17.38,17.38,0,0,1,5.65,2.2,15,15,0,0,1,4.59,4.36,11.14,11.14,0,0,1,2,6.25,7.41,7.41,0,0,1-.9,3.3,4.6,4.6,0,0,1-2.62,2.29,3.52,3.52,0,0,1-3.37-.82,6,6,0,0,1-1.69-3,9.94,9.94,0,0,1,1-6.48,17,17,0,0,1,3.94-4.95,29.31,29.31,0,0,1,4.94-3.51c6.82-3.92,13.88-5.83,19.85-5.83a28.82,28.82,0,0,1,13.6,3.16A19.31,19.31,0,0,1,145.23,418.07Z" style="fill:#fafafa"></path><path d="M74.78,338.2c-3-15.37-24.75-15.94-28.56-.75-.06.23-.12.47-.17.71-5.61,23.93,13.34,94.64,18.43,98.72s10.14,8.7,18.84,5.09c5.09-2.11,57.94-48.82,57.94-48.82s12.22,11.71,16.3,10.69,11.86-13,11.86-13,7.56,11.33,8.51,11.5a2.84,2.84,0,0,0,3-4.07c-1-1.53-10.64-22.6-10.64-22.6s7.59-.82,6.06-3.37c0,0-.19-2.34-5.32-1.89S166,365,156.45,365.56s-29.27,3-57,24.28L86.6,398.9Z" style="fill:#ffbe9d"></path><path d="M99.42,389.84l.32-.26,1-.73,3.75-2.81a148.79,148.79,0,0,1,14.86-9.36,98,98,0,0,1,25-9.66c2.52-.53,5.13-1,7.84-1.31,1.36-.15,2.73-.27,4.13-.37a18.06,18.06,0,0,1,4.27.19,11.22,11.22,0,0,1,4.09,1.59c1.27.77,2.34,1.84,3.62,2.5a4.73,4.73,0,0,0,2,.53c.71,0,1.49-.09,2.27-.06a7,7,0,0,1,2.33.4,2.47,2.47,0,0,1,1.72,1.76l0-.1a1.47,1.47,0,0,1,.2,1.08,1.76,1.76,0,0,1-.63.89,6.12,6.12,0,0,1-1.82.92,21.06,21.06,0,0,1-4,.85l.21-.35,6.78,14.67c1.19,2.5,2.37,5.07,3.66,7.56a4.11,4.11,0,0,1,.49,1,3.23,3.23,0,0,1,0,1.16,3.31,3.31,0,0,1-1.14,2,2.91,2.91,0,0,1-2.19.67l-.29,0a.74.74,0,0,1-.21-.07l-.14-.1a4.11,4.11,0,0,1-.42-.41c-.25-.27-.49-.55-.71-.84-2.61-3.34-4.92-6.8-7.22-10.2h.43a87.19,87.19,0,0,1-5.88,7.94,32,32,0,0,1-3.37,3.51c-.31.26-.64.5-.95.76a11.37,11.37,0,0,1-1.06.63,3.09,3.09,0,0,1-2.47.2,16.09,16.09,0,0,1-4.26-2.09c-1.31-.85-2.55-1.76-3.76-2.7-2.4-1.89-4.65-3.86-6.79-5.88h.32c-16.76,14.74-31.11,27.12-41.37,35.7-5.13,4.29-9.24,7.62-12.12,9.82-1.44,1.1-2.57,1.92-3.36,2.43a6.61,6.61,0,0,1-1.25.69s.44-.22,1.21-.76,1.89-1.36,3.31-2.48c2.84-2.23,6.92-5.6,12-9.92,10.21-8.64,24.52-21.07,41.25-35.84l.16-.14.16.15c2.12,2,4.38,4,6.77,5.83,1.19.93,2.43,1.84,3.72,2.67a15.55,15.55,0,0,0,4.11,2c1.5.56,2.84-.5,4-1.49a32.81,32.81,0,0,0,3.31-3.45,87.46,87.46,0,0,0,5.84-7.89l.21-.33.22.32c2.29,3.39,4.62,6.86,7.19,10.17q.34.42.69.81c.12.12.24.25.36.35l.08.06h0s0,0,0,.09,0,.16,0-.08h0l.24,0a2.39,2.39,0,0,0,1.82-.55,2.56,2.56,0,0,0,.5-3.51c-1.33-2.55-2.49-5.09-3.68-7.6l-6.77-14.69-.14-.31.34,0a20.68,20.68,0,0,0,3.89-.83,5.54,5.54,0,0,0,1.67-.82,1.3,1.3,0,0,0,.46-.63,1,1,0,0,0-.14-.71l0,0,0-.07a2.06,2.06,0,0,0-1.41-1.35,6.48,6.48,0,0,0-2.16-.36c-.75,0-1.47.07-2.27.06a5.35,5.35,0,0,1-2.26-.6c-1.38-.71-2.43-1.78-3.65-2.53a11,11,0,0,0-3.92-1.53c-2.77-.5-5.58-.07-8.27.17s-5.29.76-7.8,1.28a98.62,98.62,0,0,0-25,9.52,158.64,158.64,0,0,0-14.91,9.22l-3.78,2.75-1,.7Z" style="fill:#eb996e"></path><path d="M81.85,416.1s-.11-.26-.21-.74a13.55,13.55,0,0,1-.25-2.09,21.3,21.3,0,0,1,3.67-13.18,15.42,15.42,0,0,1,1.3-1.66c.34-.36.54-.55.56-.53s-.63.9-1.55,2.39a24.15,24.15,0,0,0-3.62,13C81.77,415,81.94,416.09,81.85,416.1Z" style="fill:#eb996e"></path><path d="M60,311.61c-.49.33-18.09,5.59-20.86,23.63S38,384.7,38,384.7l47.74-3.28L72.05,318Z" style="fill:#7E7BBC"></path><path d="M161.44,401.35c-.08,0,.05-.65,0-1.64a8.63,8.63,0,0,0-1-3.71,8.79,8.79,0,0,0-2.51-2.92c-.8-.58-1.39-.82-1.36-.91a3.36,3.36,0,0,1,1.57.61,7.79,7.79,0,0,1,2.76,3,7.64,7.64,0,0,1,.89,4A3.37,3.37,0,0,1,161.44,401.35Z" style="fill:#eb996e"></path><path d="M165.83,396a11.07,11.07,0,0,0-4.88-7.64,2.84,2.84,0,0,1,1.29.58,8.19,8.19,0,0,1,2.4,2.44,8.1,8.1,0,0,1,1.21,3.21A2.75,2.75,0,0,1,165.83,396Z" style="fill:#eb996e"></path><path d="M165.83,384.6c0-.05.45.15,1,.64a7,7,0,0,1,2.26,5.12c0,.73-.13,1.17-.19,1.16a16,16,0,0,0-.89-3.75A16.51,16.51,0,0,0,165.83,384.6Z" style="fill:#eb996e"></path><path d="M79.92,351.47a.67.67,0,0,1-.25,0l-.72-.08a25.43,25.43,0,0,0-2.78-.19,26.48,26.48,0,0,0-10,1.85,25.32,25.32,0,0,0-11.67,9.26A13.67,13.67,0,0,0,52,370.6,9.22,9.22,0,0,0,53.34,375,6.77,6.77,0,0,0,57,377.84a6.39,6.39,0,0,0,4.6-.22,5.23,5.23,0,0,0,2.8-3.38,8.46,8.46,0,0,0-.18-4.41,12.59,12.59,0,0,0-1.9-3.85,19.08,19.08,0,0,0-12.65-7.48,19.37,19.37,0,0,0-10,1.34,22.41,22.41,0,0,0-2.49,1.25l-.62.38-.22.11a14.27,14.27,0,0,1,3.25-1.92,19.06,19.06,0,0,1,10.12-1.52,19.33,19.33,0,0,1,13,7.55,12.84,12.84,0,0,1,2,4,8.92,8.92,0,0,1,.19,4.68,5.73,5.73,0,0,1-3.07,3.72,7,7,0,0,1-5,.25,7.32,7.32,0,0,1-3.91-3.1,9.66,9.66,0,0,1-1.46-4.61,14.16,14.16,0,0,1,2.67-8.6,25.48,25.48,0,0,1,11.94-9.33A25.83,25.83,0,0,1,76.18,351,19,19,0,0,1,79.92,351.47Z" style="fill:#fafafa"></path><path d="M78.29,325.57a6.31,6.31,0,0,1-1.21.56,11.15,11.15,0,0,1-1.48.53,16.81,16.81,0,0,1-2,.56,21.75,21.75,0,0,1-2.47.47c-.9.15-1.86.2-2.88.27a33.25,33.25,0,0,1-6.6-.45,32.56,32.56,0,0,1-6.34-1.88c-.93-.42-1.82-.8-2.6-1.25a22,22,0,0,1-2.16-1.3,19,19,0,0,1-1.68-1.22,11.41,11.41,0,0,1-1.19-1,6.38,6.38,0,0,1-.94-.94c.07-.09,1.44,1.24,4,2.86A22.2,22.2,0,0,0,52.92,324a28.31,28.31,0,0,0,2.58,1.2,31.33,31.33,0,0,0,12.74,2.29c1-.06,2-.09,2.84-.22s1.7-.25,2.45-.4C76.5,326.24,78.25,325.47,78.29,325.57Z" style="fill:#fafafa"></path><path d="M82.23,356.16a2.7,2.7,0,0,1,.11.48c.06.36.14.82.23,1.39.2,1.28.47,3,.8,5.23.65,4.53,1.56,10.82,2.61,18.12l0,.27h-.26l-11.16.78-25.88,1.7-7.84.46-2.14.1H38a3.2,3.2,0,0,1,.74-.11l2.12-.19,7.84-.62,25.87-1.86,11.15-.75-.23.28c-1-7.31-1.82-13.61-2.42-18.14-.28-2.2-.5-4-.66-5.25-.07-.58-.12-1-.16-1.41A1.67,1.67,0,0,1,82.23,356.16Z" style="fill:#263238"></path><g style="opacity:0.2"><path d="M59.08,311.11c-.48,1.69.86,3.27,1.73,4.79,1.68,2.92,1.77,6.45,1.92,9.82A68.46,68.46,0,0,0,65.56,344c1.92,5.86,5.22,11.41,10.1,15.19s11.43,5.63,17.4,4.08,11-6.85,11.51-13-3.2-11.63-5.32-17.37c-1.64-4.42-2.37-9.12-3.31-13.75s-2.14-9.28-4.59-13.31-6.34-7.4-11-8.25-9.94,1.35-11.82,5.67"></path></g><path d="M82.14,230.37v5.31l-.35,79.61c0,9.24,7.88,16.64,17.77,16.61h0c10,0,18.25-7.62,18.44-17,.21-9.8.6-20.11.6-20.11s12.66-1.87,15.57-18.3c1.45-8.16,1.27-21.6.78-32.59a17.39,17.39,0,0,0-18.9-16.55Z" style="fill:#ffbe9d"></path><path d="M131.09,254a2.12,2.12,0,0,1-2.08,2.1,2,2,0,0,1-2.14-1.95,2.11,2.11,0,0,1,2.07-2.09A2,2,0,0,1,131.09,254Z" style="fill:#263238"></path><path d="M131.92,250.88c-.27.27-1.84-.95-4.12-1s-4,1.07-4.2.79c-.12-.13.16-.62.89-1.13a5.79,5.79,0,0,1,3.37-1,5.62,5.62,0,0,1,3.27,1.12C131.82,250.25,132.05,250.75,131.92,250.88Z" style="fill:#263238"></path><path d="M109.56,253.58a2.11,2.11,0,0,1-2.08,2.09,2,2,0,0,1-2.14-1.94,2.12,2.12,0,0,1,2.07-2.1A2,2,0,0,1,109.56,253.58Z" style="fill:#263238"></path><path d="M109.57,250.9c-.27.27-1.85-.94-4.12-1s-4,1.07-4.2.79c-.12-.13.16-.62.89-1.14a5.87,5.87,0,0,1,3.37-1,5.54,5.54,0,0,1,3.28,1.12C109.47,250.28,109.7,250.78,109.57,250.9Z" style="fill:#263238"></path><path d="M117.52,267.91a15.13,15.13,0,0,1,3.7-.61c.59,0,1.14-.15,1.24-.54a3,3,0,0,0-.35-1.73c-.53-1.42-1.07-2.9-1.64-4.45-2.27-6.34-3.91-11.54-3.65-11.63s2.3,5,4.57,11.31l1.57,4.47a3.38,3.38,0,0,1,.26,2.29,1.47,1.47,0,0,1-1,.83,4.74,4.74,0,0,1-1,.12A15.63,15.63,0,0,1,117.52,267.91Z" style="fill:#263238"></path><path d="M118.61,294.83a41.85,41.85,0,0,1-22-6.28s5.15,11.41,21.66,10.16Z" style="fill:#eb996e"></path><path d="M116.46,273.37a4.08,4.08,0,0,0-3.64-1.59,3.75,3.75,0,0,0-2.61,1.34,2.37,2.37,0,0,0-.23,2.7,2.74,2.74,0,0,0,3,.81,8.74,8.74,0,0,0,2.94-1.68,2.59,2.59,0,0,0,.66-.66.79.79,0,0,0,0-.85" style="fill:#eb996e"></path><path d="M110.8,269.36c.37,0,.33,2.45,2.42,4.24s4.71,1.56,4.72,1.91c0,.15-.59.47-1.7.48a6.11,6.11,0,0,1-3.95-1.46,5.3,5.3,0,0,1-1.86-3.55C110.35,270,110.64,269.34,110.8,269.36Z" style="fill:#263238"></path><path d="M110.32,242c-.24.61-2.5.28-5.17.55s-4.85,1-5.19.4c-.15-.27.23-.84,1.11-1.42a8.55,8.55,0,0,1,3.86-1.28,8.74,8.74,0,0,1,4,.55C109.93,241.22,110.42,241.71,110.32,242Z" style="fill:#263238"></path><path d="M131.2,244.28c-.41.51-2-.05-3.85-.11s-3.48.28-3.84-.26c-.15-.27.11-.78.81-1.26a5.56,5.56,0,0,1,6.2.31C131.17,243.5,131.38,244,131.2,244.28Z" style="fill:#263238"></path><path d="M102.79,225c4.46,5.81,0,14.13-5.06,19.47s-11.13,11.52-9.68,18.69c1.69,8.32,13.14,13.55,11.53,21.88-.59,3-3,5.65-2.94,8.75,0,5.59,7.3,8.24,9.43,13.4,2.92,7.09-4.85,14.26-4.9,21.92,0,4.35,2.48,8.38,2.66,12.73.35,8.91-10.12,15.53-18.78,13.43S70.38,344.73,68.42,336s-.67-17.76.64-26.57c-.83,3.76-6.53,4.52-9.34,1.89s-3.19-7-2.6-10.79c1.48-9.55,7.66-17.68,10.55-26.89,2.53-8.06,2.46-16.66,3.52-25s3.56-17.12,9.9-22.7,17.38-6.37,22.61.26" style="fill:#263238"></path><path d="M80.21,352a3.71,3.71,0,0,1,.21-.33c.15-.23.36-.55.63-.94a21.12,21.12,0,0,0,3.24-10.58,20.4,20.4,0,0,0-1.62-8.83c-1.31-3.1-3.62-6-6.06-9.16a46.46,46.46,0,0,1-3.53-5.08A20.07,20.07,0,0,1,70.74,311a12.1,12.1,0,0,1,.56-6.89,9.78,9.78,0,0,1,2-3,22.38,22.38,0,0,1,2.83-2.32c2-1.42,4-2.85,5.13-5.07a10.65,10.65,0,0,0,.46-7.29c-1.2-5-4.68-8.9-6.91-13.25a16.72,16.72,0,0,1-2.07-6.91,15.13,15.13,0,0,1,1.29-6.8,29.54,29.54,0,0,1,7.75-10c3-2.67,5.9-4.94,8.31-7.3a26.27,26.27,0,0,0,5.48-7.17,17.48,17.48,0,0,0,1.88-6.54,12.12,12.12,0,0,0-.43-4.28c-.28-1-.52-1.42-.48-1.44a7.9,7.9,0,0,1,.58,1.41,11.65,11.65,0,0,1,.53,4.32,17.07,17.07,0,0,1-1.82,6.65,26.46,26.46,0,0,1-5.48,7.31c-2.41,2.4-5.34,4.69-8.28,7.36a29.42,29.42,0,0,0-7.6,9.92,14.8,14.8,0,0,0-1.24,6.58,16.42,16.42,0,0,0,2,6.7c1.12,2.14,2.51,4.19,3.83,6.34a24.6,24.6,0,0,1,3.14,7,11.18,11.18,0,0,1-.5,7.65c-1.17,2.37-3.36,3.85-5.3,5.25a22,22,0,0,0-2.77,2.26,9.52,9.52,0,0,0-1.94,2.83,11.7,11.7,0,0,0-.54,6.61,20.08,20.08,0,0,0,2.26,6,46.76,46.76,0,0,0,3.49,5c2.41,3.14,4.73,6.11,6.05,9.28a20.47,20.47,0,0,1,1.57,9,20.65,20.65,0,0,1-3.44,10.62c-.29.41-.53.7-.68.91A2,2,0,0,1,80.21,352Z" style="fill:#455a64"></path><path d="M202.84,370.9l-37.9,66.18-53.67,1.86v5.9H268.06l42.67-69.9a4,4,0,0,0-3.39-6H206.28A4,4,0,0,0,202.84,370.9Z" style="fill:#263238"></path><path d="M250.31,406.23c-2.38,3.7-6,5.59-8.18,4.21s-1.95-5.49.43-9.19,6-5.59,8.18-4.21S252.69,402.53,250.31,406.23Z" style="fill:#e0e0e0"></path></g></svg>
