<svg xmlns="http://www.w3.org/2000/svg" viewBox="0 0 750 500"><g id="freepik--background-complete--inject-16"><rect x="151.54" y="143.03" width="134.99" height="198.77" transform="translate(-97.8 162.69) rotate(-33.78)" style="fill:#f5f5f5"></rect><polygon points="272.42 279.66 271.15 287.54 215.37 279.5 216.64 271.62 272.42 279.66" style="fill:#e0e0e0"></polygon><polygon points="244.33 251.55 252.33 252.7 243.46 307.62 235.45 306.46 244.33 251.55" style="fill:#e0e0e0"></polygon><path d="M193,181.75c.08.11-11.16,7.78-25.11,17.1s-25.32,16.8-25.4,16.68,11.16-7.78,25.11-17.11S192.87,181.63,193,181.75Z" style="fill:#e0e0e0"></path><path d="M234.22,171.39c.08.12-18.62,12.76-41.76,28.24s-42,27.93-42.06,27.82S169,214.68,192.17,199.2,234.14,171.27,234.22,171.39Z" style="fill:#e0e0e0"></path><path d="M242.49,183.75c.08.12-18.62,12.77-41.76,28.25s-42,27.93-42.06,27.81,18.62-12.76,41.77-28.25S242.41,183.63,242.49,183.75Z" style="fill:#e0e0e0"></path><path d="M250.76,196.12c.08.12-18.62,12.77-41.76,28.24S167,252.3,167,252.18s18.61-12.77,41.76-28.25S250.68,196,250.76,196.12Z" style="fill:#e0e0e0"></path><path d="M259,208.49c.08.12-18.62,12.76-41.76,28.24s-42,27.93-42.05,27.81S193.83,251.78,217,236.3,259,208.37,259,208.49Z" style="fill:#e0e0e0"></path><rect x="537.68" y="250.43" width="113.37" height="166.93" transform="translate(-85.31 386.8) rotate(-33.78)" style="fill:#f5f5f5"></rect><polygon points="639.2 365.18 638.13 371.8 591.28 365.05 592.36 358.43 639.2 365.18" style="fill:#e0e0e0"></polygon><polygon points="615.61 341.57 622.33 342.54 614.88 388.66 608.15 387.69 615.61 341.57" style="fill:#e0e0e0"></polygon><path d="M572.46,283c.08.12-9.35,6.57-21.07,14.4s-21.28,14.09-21.36,14,9.36-6.56,21.07-14.4S572.38,282.83,572.46,283Z" style="fill:#e0e0e0"></path><path d="M607.11,274.25c.08.12-15.61,10.76-35,23.75s-35.26,23.45-35.34,23.33,15.61-10.76,35-23.76S607,274.13,607.11,274.25Z" style="fill:#e0e0e0"></path><path d="M614.06,284.63c.08.12-15.61,10.76-35,23.76s-35.26,23.44-35.34,23.32S559.28,321,578.72,308,614,284.52,614.06,284.63Z" style="fill:#e0e0e0"></path><path d="M621,295c.08.12-15.62,10.76-35,23.76s-35.26,23.44-35.34,23.32,15.61-10.75,35-23.76S620.93,294.9,621,295Z" style="fill:#e0e0e0"></path><path d="M628,305.41c.08.12-15.61,10.75-35,23.75s-35.26,23.44-35.34,23.33,15.61-10.76,35-23.76S627.87,305.29,628,305.41Z" style="fill:#e0e0e0"></path><rect x="295.8" y="90.69" width="116.6" height="171.69" transform="translate(125.11 -146.13) rotate(28.14)" style="fill:#f5f5f5"></rect><polygon points="347.42 232.37 340.9 234.6 324.34 188.83 330.87 186.59 347.42 232.37" style="fill:#e0e0e0"></polygon><polygon points="357.42 199.53 359.8 206.1 314.34 221.67 311.96 215.1 357.42 199.53" style="fill:#e0e0e0"></polygon><path d="M389.72,132c-.08.15-10.5-5.27-23.29-12.1s-23.08-12.5-23-12.65,10.51,5.27,23.3,12.1S389.8,131.84,389.72,132Z" style="fill:#e0e0e0"></path><path d="M414.4,159.23c-.08.15-17.34-8.93-38.55-20.27s-38.33-20.66-38.25-20.81,17.33,8.92,38.54,20.27S414.48,159.08,414.4,159.23Z" style="fill:#e0e0e0"></path><path d="M408.34,170.56c-.08.15-17.34-8.92-38.55-20.27s-38.33-20.66-38.25-20.81,17.33,8.93,38.54,20.27S408.42,170.41,408.34,170.56Z" style="fill:#e0e0e0"></path><path d="M402.28,181.89c-.08.15-17.34-8.92-38.55-20.26S325.4,141,325.48,140.82s17.33,8.92,38.54,20.26S402.36,181.74,402.28,181.89Z" style="fill:#e0e0e0"></path><path d="M396.22,193.22c-.08.15-17.34-8.92-38.55-20.26s-38.34-20.66-38.25-20.81,17.33,8.92,38.54,20.26S396.3,193.07,396.22,193.22Z" style="fill:#e0e0e0"></path><rect x="394.17" width="2.58" height="43.98" style="opacity:0.2"></rect></g><g id="freepik--Folder--inject-16"><path d="M299,234.54,263.6,416.34,259,440.14,495,439c10.6-.05,20-9.46,23.39-23.44l41.86-171.63c2.59-10.61-3.09-21.65-11.13-21.64l-238.92.25C305,222.53,300.34,227.45,299,234.54Z" style="fill:#C53F3F"></path><g style="opacity:0.5"><path d="M299,234.54,263.6,416.34,259,440.14,495,439c10.6-.05,20-9.46,23.39-23.44l41.86-171.63c2.59-10.61-3.09-21.65-11.13-21.64l-238.92.25C305,222.53,300.34,227.45,299,234.54Z"></path></g><path d="M472.39,404l-25-201.41c-1-8.25-7.59-14.41-15.36-14.38l-54.8.17a15,15,0,0,0-10.83,4.8l-26,27.67L188,221.67c-9.31.05-16.47,8.87-15.24,18.77l23.21,186.15c1,8.24,7.59,14.39,15.34,14.38l265.65-.53c29.58.61,32.41-8.12,32.41-8.12C475.41,439.83,472.39,404.05,472.39,404Z" style="fill:#C53F3F"></path><g style="opacity:0.5"><polygon points="357.84 363.72 348.88 373.34 279.88 311.26 288.84 301.64 357.84 363.72" style="fill:#fff"></polygon><polygon points="345.13 299.51 355.03 308.42 292.6 375.47 282.69 366.56 345.13 299.51" style="fill:#fff"></polygon></g></g></svg>