<svg xmlns="http://www.w3.org/2000/svg" viewBox="0 0 500 500"><g id="freepik--background-complete--inject-3"><rect y="382.4" width="500" height="0.25" style="fill:#ebebeb"></rect><rect x="52.46" y="391.92" width="33.12" height="0.25" style="fill:#ebebeb"></rect><rect x="171.14" y="389.21" width="42.53" height="0.25" style="fill:#ebebeb"></rect><rect x="93.47" y="395.43" width="19.19" height="0.25" style="fill:#ebebeb"></rect><rect x="434.67" y="399.53" width="15.23" height="0.25" style="fill:#ebebeb"></rect><rect x="391.47" y="399.53" width="34.29" height="0.25" style="fill:#ebebeb"></rect><rect x="308" y="392.33" width="23.83" height="0.25" style="fill:#ebebeb"></rect><path d="M237,337.8H43.91a5.71,5.71,0,0,1-5.7-5.71V60.66A5.71,5.71,0,0,1,43.91,55H237a5.71,5.71,0,0,1,5.71,5.71V332.09A5.71,5.71,0,0,1,237,337.8ZM43.91,55.2a5.46,5.46,0,0,0-5.45,5.46V332.09a5.46,5.46,0,0,0,5.45,5.46H237a5.47,5.47,0,0,0,5.46-5.46V60.66A5.47,5.47,0,0,0,237,55.2Z" style="fill:#ebebeb"></path><path d="M453.31,337.8H260.21a5.72,5.72,0,0,1-5.71-5.71V60.66A5.72,5.72,0,0,1,260.21,55h193.1A5.71,5.71,0,0,1,459,60.66V332.09A5.71,5.71,0,0,1,453.31,337.8ZM260.21,55.2a5.47,5.47,0,0,0-5.46,5.46V332.09a5.47,5.47,0,0,0,5.46,5.46h193.1a5.47,5.47,0,0,0,5.46-5.46V60.66a5.47,5.47,0,0,0-5.46-5.46Z" style="fill:#ebebeb"></path><rect x="412.72" y="228.85" width="24.06" height="148.42" transform="translate(849.5 606.11) rotate(180)" style="fill:#f0f0f0"></rect><rect x="287.92" y="377.26" width="146.4" height="5.12" transform="translate(722.24 759.65) rotate(180)" style="fill:#f0f0f0"></rect><rect x="285.81" y="228.85" width="126.92" height="148.42" style="fill:#f5f5f5"></rect><rect x="290.14" y="306.13" width="118.26" height="26.5" style="fill:#f0f0f0"></rect><rect x="290.14" y="340.82" width="118.26" height="26.5" style="fill:#f0f0f0"></rect><rect x="300.67" y="304.5" width="97.18" height="3.63" rx="1.18" transform="translate(698.53 612.64) rotate(180)" style="fill:#f5f5f5"></rect><rect x="300.67" y="339.19" width="97.18" height="3.63" rx="1.18" transform="translate(698.53 682.01) rotate(-180)" style="fill:#f5f5f5"></rect><rect x="290.14" y="237.03" width="118.26" height="26.5" style="fill:#f0f0f0"></rect><rect x="290.14" y="271.44" width="118.26" height="26.5" style="fill:#f0f0f0"></rect><rect x="300.67" y="235.41" width="97.18" height="3.63" rx="1.18" transform="translate(698.53 474.45) rotate(180)" style="fill:#f5f5f5"></rect><rect x="300.67" y="269.82" width="97.18" height="3.63" rx="1.18" transform="translate(698.53 543.27) rotate(180)" style="fill:#f5f5f5"></rect><rect x="212.09" y="271.53" width="14.4" height="110.87" style="fill:#f0f0f0"></rect><rect x="68.04" y="271.53" width="144.05" height="110.87" transform="translate(280.13 653.93) rotate(180)" style="fill:#f5f5f5"></rect><rect x="66.89" y="313.37" width="128.66" height="59.3" transform="translate(262.45 686.03) rotate(180)" style="fill:#fafafa"></rect><rect x="66.89" y="287.55" width="128.66" height="19.52" transform="translate(262.45 594.63) rotate(180)" style="fill:#fafafa"></rect><rect x="195.56" y="313.37" width="0.99" height="59.3" style="fill:#e6e6e6;opacity:0.7000000000000001;mix-blend-mode:multiply"></rect><rect x="195.56" y="287.55" width="0.99" height="19.52" style="fill:#e6e6e6;opacity:0.7000000000000001;mix-blend-mode:multiply"></rect><rect x="67.72" y="276.21" width="158.77" height="2.51" style="fill:#e6e6e6;opacity:0.7000000000000001;mix-blend-mode:multiply"></rect><rect x="212.09" y="270.01" width="16.09" height="7.25" style="fill:#f0f0f0"></rect><rect x="66.36" y="270.01" width="145.73" height="7.25" transform="translate(278.45 547.28) rotate(180)" style="fill:#f5f5f5"></rect><rect x="82.91" y="80.06" width="227.05" height="118.26" transform="translate(392.88 278.38) rotate(180)" style="fill:#e6e6e6"></rect><path d="M68.48,75.46h250.2A1.34,1.34,0,0,1,320,76.8h0a1.34,1.34,0,0,1-1.34,1.33H68.48a1.34,1.34,0,0,1-1.34-1.33h0A1.34,1.34,0,0,1,68.48,75.46Z" style="fill:#e6e6e6"></path><rect x="77.2" y="80.06" width="230.09" height="118.26" transform="translate(384.49 278.38) rotate(180)" style="fill:#f0f0f0"></rect><polygon points="82.91 198.32 309.96 198.32 309.96 202.11 78.97 202.11 82.91 198.32" style="fill:#e6e6e6"></polygon><polygon points="67.67 198.32 297.77 198.32 293.83 202.11 63.74 202.11 67.67 198.32" style="fill:#f0f0f0"></polygon><rect x="141.12" y="32.14" width="102.26" height="214.09" transform="translate(331.43 -53.05) rotate(90)" style="fill:#fafafa"></rect><polygon points="179.31 190.32 132.34 88.06 110.17 88.06 157.14 190.32 179.31 190.32" style="fill:#fff"></polygon><polygon points="152.38 190.32 105.41 88.06 96.76 88.06 143.73 190.32 152.38 190.32" style="fill:#fff"></polygon><rect x="34.58" y="138.68" width="102.26" height="1.02" transform="translate(224.9 53.48) rotate(90)" style="fill:#e6e6e6"></rect><g style="opacity:0.4"><rect x="299.2" y="73.07" width="13.77" height="97.59" transform="translate(612.16 243.72) rotate(180)" style="fill:#f0f0f0"></rect><rect x="293.83" y="73.07" width="10.73" height="97.59" transform="translate(598.39 243.72) rotate(180)" style="fill:#e6e6e6"></rect><rect x="285.42" y="73.07" width="13.77" height="97.59" transform="translate(584.62 243.72) rotate(180)" style="fill:#f0f0f0"></rect><rect x="280.06" y="73.07" width="10.73" height="97.59" transform="translate(570.85 243.72) rotate(180)" style="fill:#e6e6e6"></rect><rect x="271.65" y="73.07" width="13.77" height="97.59" transform="translate(557.07 243.72) rotate(180)" style="fill:#f0f0f0"></rect></g><g style="opacity:0.4"><rect x="90.33" y="73.07" width="7.94" height="97.59" transform="translate(188.59 243.72) rotate(180)" style="fill:#f0f0f0"></rect><rect x="87.23" y="73.07" width="6.18" height="97.59" transform="translate(180.65 243.72) rotate(180)" style="fill:#e6e6e6"></rect><rect x="82.39" y="73.07" width="7.94" height="97.59" transform="translate(172.71 243.72) rotate(180)" style="fill:#f0f0f0"></rect><rect x="79.3" y="73.07" width="6.18" height="97.59" transform="translate(164.78 243.72) rotate(180)" style="fill:#e6e6e6"></rect><rect x="74.45" y="73.07" width="7.94" height="97.59" transform="translate(156.84 243.72) rotate(180)" style="fill:#f0f0f0"></rect></g><rect x="355.02" y="85.32" width="75.28" height="100.68" transform="translate(785.32 271.31) rotate(180)" style="fill:#e6e6e6"></rect><rect x="349.26" y="85.32" width="79.12" height="100.68" transform="translate(777.64 271.31) rotate(180)" style="fill:#f5f5f5"></rect><rect x="355.89" y="91.94" width="65.86" height="87.43" style="fill:#fff"></rect><path d="M370.41,133.29s.47,13.62,18.41,13.62,18.42-13.62,18.42-13.62Z" style="fill:#f0f0f0"></path><path d="M405.31,122.22a4.79,4.79,0,0,1-.66,2.46,4.88,4.88,0,0,0-8.47,0,4.8,4.8,0,0,1-.67-2.46,4.9,4.9,0,1,1,9.8,0Z" style="fill:#f0f0f0"></path><path d="M382.14,122.22a4.79,4.79,0,0,1-.66,2.46,4.88,4.88,0,0,0-8.48,0,4.9,4.9,0,1,1,9.14-2.46Z" style="fill:#f0f0f0"></path><path d="M339.19,203.07a13,13,0,0,0-.19-4.64,19.37,19.37,0,0,0-1.41-4.24,17.41,17.41,0,0,0-1-2,20.57,20.57,0,0,0-1.15-1.91c-.43-.61-.81-1.26-1.26-1.86l-1.39-1.78a20.19,20.19,0,0,0-1.47-1.74c-.5-.58-1-1.17-1.51-1.73-1.09-1.09-2.1-2.26-3.22-3.36s-2.19-2.24-3.33-3.35-2.29-2.23-3.36-3.49a48.23,48.23,0,0,1,4.46,2,44.72,44.72,0,0,1,4.15,2.58,19.73,19.73,0,0,1,2,1.49c.64.52,1.26,1.06,1.88,1.59a38.94,38.94,0,0,1,3.39,3.64,23.58,23.58,0,0,1,4.65,8.95,15.42,15.42,0,0,1,.44,5.1A9.18,9.18,0,0,1,339.19,203.07Z" style="fill:#e6e6e6"></path><path d="M365.66,198.33a9.54,9.54,0,0,1-2.93-8.75,15.33,15.33,0,0,1,4.8-8.34c.58-.55,1.21-1,1.82-1.49a13.61,13.61,0,0,1,1.9-1.34c.66-.39,1.32-.78,2-1.15.34-.18.66-.38,1-.54l1.05-.44c.7-.29,1.4-.57,2.11-.83l1.06-.39c.35-.12.72-.21,1.09-.3a41.7,41.7,0,0,1,4.42-.9c-1.19,1-2.43,1.77-3.65,2.58-.63.37-1.22.8-1.81,1.22s-1.19.82-1.79,1.21c-1.23.74-2.28,1.68-3.44,2.47a14.6,14.6,0,0,0-1.61,1.31c-.52.45-1.08.85-1.56,1.33a17.58,17.58,0,0,0-4.52,6.3,5.16,5.16,0,0,0-.29.92c-.07.31-.17.62-.24.94a10.8,10.8,0,0,0-.15,2A12.76,12.76,0,0,0,365.66,198.33Z" style="fill:#e6e6e6"></path><path d="M364.45,198.33a13.78,13.78,0,0,1-2.33-4.34,19.72,19.72,0,0,1-.59-2.44c-.07-.41-.13-.83-.19-1.25s0-.84,0-1.27a19.33,19.33,0,0,1,2.53-9.82l1.36-2.15c.52-.67,1.08-1.3,1.63-1.93l.83-.94.94-.82c.63-.55,1.27-1.08,1.9-1.6a44.26,44.26,0,0,1,4.18-2.57,45.63,45.63,0,0,1,4.53-1.77c-1.13,1.2-2.31,2.24-3.48,3.28s-2.2,2.2-3.26,3.28c-.49.58-1,1.15-1.49,1.7l-.76.83-.65.9c-.43.6-.9,1.17-1.32,1.77l-1.13,1.87a24.32,24.32,0,0,0-2.86,8.14A25.85,25.85,0,0,0,364.45,198.33Z" style="fill:#e6e6e6"></path><path d="M340.63,200c.94-3.5,2-6.88,2.95-10.25s1.94-6.71,2.83-10.06,1.62-6.73,2.27-10.13,1-6.85,1.3-10.48a30.59,30.59,0,0,1,1.65,10.76,50.18,50.18,0,0,1-1.57,10.79,59.56,59.56,0,0,1-3.72,10.18A44.62,44.62,0,0,1,340.63,200Z" style="fill:#e6e6e6"></path><path d="M341.81,199.44c1.47-3.46,3.06-6.76,4.62-10.06s3.14-6.56,4.65-9.84,2.95-6.58,4.3-9.93,2.51-6.75,3.64-10.34a34.2,34.2,0,0,1-.81,11.22,58.2,58.2,0,0,1-3.71,10.63,69,69,0,0,1-5.51,9.73A51.22,51.22,0,0,1,341.81,199.44Z" style="fill:#e6e6e6"></path><path d="M337.2,203.75c2.21-3,4.49-5.9,6.75-8.77s4.53-5.69,6.73-8.55,4.35-5.76,6.41-8.72,4-6,5.86-9.27a34.35,34.35,0,0,1-3.3,10.76,58.67,58.67,0,0,1-6,9.53,69.5,69.5,0,0,1-7.55,8.25A50.87,50.87,0,0,1,337.2,203.75Z" style="fill:#e6e6e6"></path><path d="M344.13,198.81c2.16-2.71,4.33-5.27,6.46-7.86s4.19-5.16,6.2-7.78,3.89-5.31,5.72-8.07,3.42-5.65,5.15-8.68a30.21,30.21,0,0,1-2.53,10.08,44.88,44.88,0,0,1-5.34,8.95A52.38,52.38,0,0,1,352.7,193,38.7,38.7,0,0,1,344.13,198.81Z" style="fill:#e6e6e6"></path><path d="M338.6,202a16.47,16.47,0,0,0,1.72-8,19.9,19.9,0,0,0-2-7.53l-.38-.92-.49-.89-1-1.79c-.75-1.14-1.44-2.34-2.22-3.51s-1.58-2.33-2.41-3.5-1.7-2.33-2.47-3.64a36.18,36.18,0,0,1,3.79,2.35,37.09,37.09,0,0,1,3.38,2.91,17.22,17.22,0,0,1,1.51,1.68c.48.58,1,1.17,1.42,1.77l1.22,1.95c.19.33.39.66.58,1l.47,1.06a18.66,18.66,0,0,1,.84,2.19c.2.76.41,1.52.57,2.29s.17,1.59.22,2.38-.08,1.61-.16,2.39A11.34,11.34,0,0,1,338.6,202Z" style="fill:#e6e6e6"></path><path d="M340.7,198.35a41.6,41.6,0,0,0,1.9-8.64,22.1,22.1,0,0,0-.6-8.18,18.12,18.12,0,0,0-1.46-3.78c-.28-.63-.68-1.2-1-1.81s-.75-1.19-1.19-1.74a61.9,61.9,0,0,0-5.92-6.64,20.34,20.34,0,0,1,8.13,4.66,18,18,0,0,1,3.1,3.77,19,19,0,0,1,1.16,2.19,19.41,19.41,0,0,1,.83,2.36,17.93,17.93,0,0,1-.14,9.75A18.24,18.24,0,0,1,340.7,198.35Z" style="fill:#e6e6e6"></path><polygon points="346.24 195.67 363.96 178.66 363.25 195.34 346.24 195.67" style="fill:#e6e6e6"></polygon><polygon points="326.86 193.86 373.95 193.86 367.79 228.85 333.03 228.85 326.86 193.86" style="fill:#f5f5f5"></polygon><polygon points="356.28 193.86 373.95 193.86 367.79 228.85 358.5 228.85 356.28 193.86" style="fill:#ebebeb"></polygon></g></svg>
