<svg xmlns="http://www.w3.org/2000/svg" viewBox="0 0 500 500"><g id="freepik--background-complete--inject-2"><path d="M52.28,126.53s-6.06,4.62-.25,10.72a.55.55,0,0,0,.38.16l53-.31s4.52-5.07.77-10.92Z" style="fill:#ebebeb"></path><path d="M93.67,131.35c0,.06-6.59.11-14.73.11s-14.73-.05-14.73-.11,6.6-.11,14.73-.11S93.67,131.29,93.67,131.35Z" style="fill:#e0e0e0"></path><path d="M85.43,133.27s-3.1.1-6.92.1-6.93-.05-6.93-.1,3.1-.11,6.93-.11S85.43,133.21,85.43,133.27Z" style="fill:#e0e0e0"></path><path d="M99.09,136.93s.11-.61.28-1.59a22.39,22.39,0,0,0,.3-3.86,21.44,21.44,0,0,0-.38-3.86c-.18-1-.34-1.57-.31-1.58s.07.14.16.41a11.58,11.58,0,0,1,.3,1.14,18.67,18.67,0,0,1,.45,3.89,19.34,19.34,0,0,1-.37,3.89c-.11.49-.2.89-.29,1.15A2,2,0,0,1,99.09,136.93Z" style="fill:#e0e0e0"></path><path d="M103,126.12a1.59,1.59,0,0,1,.23.38,3.56,3.56,0,0,1,.24.48c.08.19.19.4.27.65a11,11,0,0,1,.5,1.75,13.73,13.73,0,0,1,.24,2.23,12.84,12.84,0,0,1-.2,2.23,10.39,10.39,0,0,1-.48,1.77c-.07.25-.18.46-.25.65s-.16.35-.23.48a2.62,2.62,0,0,1-.23.39s.26-.59.57-1.57a13.19,13.19,0,0,0,.43-1.75,14.9,14.9,0,0,0,.17-2.2,13.45,13.45,0,0,0-.21-2.19,12.43,12.43,0,0,0-.45-1.74C103.31,126.7,103,126.14,103,126.12Z" style="fill:#e0e0e0"></path><path d="M60.64,137a1.49,1.49,0,0,1-.25-.35,4.17,4.17,0,0,1-.24-.44c-.09-.18-.2-.38-.29-.61a9.22,9.22,0,0,1-.51-1.67,10.93,10.93,0,0,1-.21-2.14,11.38,11.38,0,0,1,.26-2.12A9.44,9.44,0,0,1,60,128c.1-.23.21-.43.3-.6a4,4,0,0,1,.26-.44,1.74,1.74,0,0,1,.26-.34s-.31.53-.68,1.44a9.74,9.74,0,0,0-.5,1.64,11.08,11.08,0,0,0-.25,2.09,11.43,11.43,0,0,0,.19,2.09,11.22,11.22,0,0,0,.46,1.65C60.35,136.46,60.68,137,60.64,137Z" style="fill:#e0e0e0"></path><path d="M54.92,138.3a2.7,2.7,0,0,1-.27-.41,4,4,0,0,1-.28-.49,6.53,6.53,0,0,1-.32-.69,11.16,11.16,0,0,1-.6-1.87,12.38,12.38,0,0,1-.3-2.39,12.17,12.17,0,0,1,.19-2.4,11.52,11.52,0,0,1,.52-1.89c.09-.27.2-.49.29-.7s.18-.37.26-.51a2.24,2.24,0,0,1,.25-.41s-.3.62-.66,1.67a12.86,12.86,0,0,0-.47,1.88,14.55,14.55,0,0,0-.17,2.36,12.93,12.93,0,0,0,.28,2.35,13.55,13.55,0,0,0,.55,1.86C54.59,137.69,55,138.27,54.92,138.3Z" style="fill:#e0e0e0"></path><path d="M103.43,153.23v10.14H83.82V153.23Z" style="fill:#ebebeb"></path><path d="M40.09,158.39c0,.09,0,.18,0,.27a5.8,5.8,0,0,0,5.83,5.44h58.41v-.73H90.48a5.07,5.07,0,0,1-5.07-5.07h0a5.07,5.07,0,0,1,5.07-5.07h13.87v-1.07l-58.43.19A5.85,5.85,0,0,0,40.09,158.39Z" style="fill:#e0e0e0"></path><path d="M103.43,158.44c0,.06-4,.1-9,.1s-9,0-9-.1,4-.11,9-.11S103.43,158.38,103.43,158.44Z" style="fill:#e0e0e0"></path><path d="M103.15,160.72c0,.06-3.82.11-8.52.11s-8.52-.05-8.52-.11,3.81-.11,8.52-.11S103.15,160.66,103.15,160.72Z" style="fill:#e0e0e0"></path><path d="M103.43,162.81c0,.06-3.43.11-7.66.11s-7.66,0-7.66-.11,3.43-.11,7.66-.11S103.43,162.75,103.43,162.81Z" style="fill:#e0e0e0"></path><path d="M103.43,156.38c0,.06-4,.11-8.82.11s-8.82-.05-8.82-.11,3.95-.1,8.82-.1S103.43,156.32,103.43,156.38Z" style="fill:#e0e0e0"></path><path d="M103.15,154.33c0,.06-3.52.11-7.85.11s-7.85-.05-7.85-.11,3.51-.1,7.85-.1S103.15,154.27,103.15,154.33Z" style="fill:#e0e0e0"></path><path d="M47.17,152.52A13.38,13.38,0,0,0,45.93,154a7.51,7.51,0,0,0,.1,8.68,13.15,13.15,0,0,0,1.28,1.45,1.67,1.67,0,0,1-.42-.31,6.51,6.51,0,0,1-1-1,7.37,7.37,0,0,1-.1-8.86,6.39,6.39,0,0,1,.95-1.07A2.08,2.08,0,0,1,47.17,152.52Z" style="fill:#f5f5f5"></path><path d="M45.2,152.31A12,12,0,0,0,44,153.78a7.51,7.51,0,0,0,.11,8.69,11.85,11.85,0,0,0,1.27,1.44,2.24,2.24,0,0,1-.42-.31,6,6,0,0,1-1-1,7.39,7.39,0,0,1-.11-8.86,6.91,6.91,0,0,1,1-1.07A1.59,1.59,0,0,1,45.2,152.31Z" style="fill:#f5f5f5"></path><path d="M84.88,152.52A14.89,14.89,0,0,0,83.64,154a7.51,7.51,0,0,0,.1,8.68A13.15,13.15,0,0,0,85,164.13a1.91,1.91,0,0,1-.42-.31,6.51,6.51,0,0,1-1-1,7.41,7.41,0,0,1-.1-8.86,6.86,6.86,0,0,1,1-1.07A2.51,2.51,0,0,1,84.88,152.52Z" style="fill:#f5f5f5"></path><path d="M82.91,152.31a12.58,12.58,0,0,0-1.24,1.47,7.49,7.49,0,0,0,.1,8.69A13,13,0,0,0,83,163.91a2.24,2.24,0,0,1-.42-.31,6.39,6.39,0,0,1-1-1,7.39,7.39,0,0,1-.11-8.86,6.91,6.91,0,0,1,.95-1.07A1.81,1.81,0,0,1,82.91,152.31Z" style="fill:#f5f5f5"></path><path d="M53.82,159.82l-.06-4.12a2.89,2.89,0,0,0-.14-1.06,1,1,0,0,0-.79-.66c-.51-.23-1.32.2-1.68.79a3.88,3.88,0,0,0-.4,2,27.27,27.27,0,0,0,.16,3.26,3.65,3.65,0,0,0,.38,1.49,1.25,1.25,0,0,0,2.36-.2A4.31,4.31,0,0,0,53.82,159.82Z" style="fill:#f5f5f5"></path><path d="M76.5,158.63c0,.06-4.22.11-9.43.11s-9.43-.05-9.43-.11,4.22-.1,9.43-.1S76.5,158.58,76.5,158.63Z" style="fill:#f5f5f5"></path><polygon points="49.91 152.12 49.8 142.51 55.03 142.51 55.21 152.12 49.91 152.12" style="fill:#f5f5f5"></polygon><path d="M54.72,144.22a13.62,13.62,0,0,1-2.43.11,13.62,13.62,0,0,1-2.43-.11,13.62,13.62,0,0,1,2.43-.11A13.62,13.62,0,0,1,54.72,144.22Z" style="fill:#e0e0e0"></path><path d="M54.72,145.7a13.62,13.62,0,0,1-2.43.11,13.62,13.62,0,0,1-2.43-.11,14.26,14.26,0,0,1,2.43-.1A14.26,14.26,0,0,1,54.72,145.7Z" style="fill:#e0e0e0"></path><path d="M54.72,147.19a15.61,15.61,0,0,1-2.43.1,15.61,15.61,0,0,1-2.43-.1,13.62,13.62,0,0,1,2.43-.11A13.62,13.62,0,0,1,54.72,147.19Z" style="fill:#e0e0e0"></path><path d="M54.72,148.67a13.62,13.62,0,0,1-2.43.11,13.62,13.62,0,0,1-2.43-.11,13.62,13.62,0,0,1,2.43-.11A13.62,13.62,0,0,1,54.72,148.67Z" style="fill:#e0e0e0"></path><path d="M54.72,150.15a13.62,13.62,0,0,1-2.43.11,13.62,13.62,0,0,1-2.43-.11,13.62,13.62,0,0,1,2.43-.11A13.62,13.62,0,0,1,54.72,150.15Z" style="fill:#e0e0e0"></path><path d="M49.52,142.26h58a27.22,27.22,0,0,1,0,10.38H49.77v-.71h3.52A1.66,1.66,0,0,0,55,150.27v-5.75a1.66,1.66,0,0,0-1.67-1.66H49.52Z" style="fill:#ebebeb"></path><path d="M63.22,147.45h1a.17.17,0,0,1,.1,0,.2.2,0,0,1,.11.18s0,.05,0,.07a2.17,2.17,0,0,1-.07.24,2.72,2.72,0,0,1-.6,1.1,1.15,1.15,0,0,1-.83.42h-.11a.92.92,0,0,1-.66-.48,2.19,2.19,0,0,1-.29-1.16A2.92,2.92,0,0,1,62,147a2.74,2.74,0,0,1,.57-1.13,1.18,1.18,0,0,1,.87-.46.81.81,0,0,1,.37.09,1.13,1.13,0,0,1,.56.7.16.16,0,0,1,0,.1.18.18,0,0,1,0,.1.22.22,0,0,1-.18.11h-.07a.2.2,0,0,1-.13-.14h0a.71.71,0,0,0-.12-.23A.51.51,0,0,0,63,146a1.72,1.72,0,0,0-.53.76,2.88,2.88,0,0,0-.23,1.09,2,2,0,0,0,.17.86.55.55,0,0,0,.5.37.67.67,0,0,0,.47-.28,2.58,2.58,0,0,0,.5-.9h-.7a.25.25,0,0,1-.23-.24s0,0,0-.07A.22.22,0,0,1,63.22,147.45Z" style="fill:#fafafa"></path><path d="M66.51,145.57l0,.07c0,.14.27,1.34.68,3.59a.09.09,0,0,1,0,.05.23.23,0,0,1,0,.11.19.19,0,0,1-.17.1h0a.17.17,0,0,1-.16-.14l-.23-1.2h-1.2l-.57,1.2a.05.05,0,0,1,0,0,.21.21,0,0,1-.18.1.23.23,0,0,1-.11,0,.2.2,0,0,1-.09-.17.15.15,0,0,1,0-.07q0-.12.18-.39c.83-1.82,1.33-2.89,1.49-3.22a.23.23,0,0,1,.2-.15A.22.22,0,0,1,66.51,145.57Zm-.26.8-.64,1.36h.91Z" style="fill:#fafafa"></path><path d="M69.75,149.49H68a.2.2,0,0,1-.11,0,.3.3,0,0,1-.1-.22h0c0-.07.16-1.26.48-3.58,0,0,0,0,0-.07a.19.19,0,0,1,.19-.13l.09,0a.19.19,0,0,1,.11.19c0,.15,0,.48-.12,1-.19,1.52-.3,2.33-.31,2.41h1.49a.23.23,0,0,1,.11,0,.18.18,0,0,1,.13.19.17.17,0,0,1,0,.07A.22.22,0,0,1,69.75,149.49Z" style="fill:#fafafa"></path><path d="M72.13,145.57l0,.07c0,.14.27,1.34.68,3.59a.09.09,0,0,1,0,.05.23.23,0,0,1,0,.11.19.19,0,0,1-.17.1h0a.17.17,0,0,1-.16-.14l-.23-1.2H71l-.58,1.2a.05.05,0,0,1,0,0,.21.21,0,0,1-.17.1.24.24,0,0,1-.12,0,.2.2,0,0,1-.09-.17.15.15,0,0,1,0-.07l.18-.39c.83-1.82,1.33-2.89,1.49-3.22a.25.25,0,0,1,.2-.15A.22.22,0,0,1,72.13,145.57Zm-.26.8-.64,1.36h.91Z" style="fill:#fafafa"></path><path d="M74.92,147.63c.13.38.24.67.31.87.18.5.27.76.27.79a.2.2,0,0,1,0,.11.19.19,0,0,1-.35-.05l0-.09c-.1-.21-.25-.62-.47-1.23l-1,1.35a.2.2,0,0,1-.18.11.23.23,0,0,1-.11,0,.18.18,0,0,1-.1-.17v0a.55.55,0,0,1,.11-.17c.33-.43.7-.94,1.1-1.53a3.43,3.43,0,0,1-.12-.33c-.38-1-.56-1.51-.56-1.55a.19.19,0,0,1,0-.1.17.17,0,0,1,.16-.11.23.23,0,0,1,.2.12l.58,1.57,1.17-1.59a.23.23,0,0,1,.18-.09.16.16,0,0,1,.1,0,.2.2,0,0,1,.1.19.37.37,0,0,1,0,.09Z" style="fill:#fafafa"></path><path d="M79.24,145.48a.2.2,0,0,1,.1,0,.22.22,0,0,1,.11.18q-.44,3.39-.48,3.66a2.2,2.2,0,0,1-.37.95,1.35,1.35,0,0,1-1.16.57,1.52,1.52,0,0,1-.56-.14,1.19,1.19,0,0,1-.61-.55.17.17,0,0,1,0-.1.19.19,0,0,1,0-.1.19.19,0,0,1,.18-.1.21.21,0,0,1,.16.08,1.12,1.12,0,0,0,.89.51.9.9,0,0,0,.7-.35,1.9,1.9,0,0,0,.38-1.1.93.93,0,0,1-.25.27,1,1,0,0,1-.63.21h-.12a.92.92,0,0,1-.66-.48,2.08,2.08,0,0,1-.29-1.16q0-.32,0-.66c0-.35.11-.85.23-1.5,0,0,0,0,0-.06a.19.19,0,0,1,.19-.14.19.19,0,0,1,.1,0,.16.16,0,0,1,.1.16c0,.11,0,.37-.09.8a11.57,11.57,0,0,0-.14,1.22,2.3,2.3,0,0,0,.16.94c.11.29.29.43.51.43h.07a.93.93,0,0,0,.53-.42,2.8,2.8,0,0,0,.43-1l.26-2a.32.32,0,0,1,0-.09A.18.18,0,0,1,79.24,145.48Z" style="fill:#fafafa"></path><path d="M105.3,152.78c-.06,0-.1-2.39-.1-5.33s0-5.33.1-5.33.11,2.39.11,5.33S105.36,152.78,105.3,152.78Z" style="fill:#f5f5f5"></path><path d="M57.87,152.78c-.06,0-.1-2.39-.1-5.33s0-5.33.1-5.33.11,2.39.11,5.33S57.93,152.78,57.87,152.78Z" style="fill:#e0e0e0"></path><path d="M106.32,152.78c-.06,0-.11-2.39-.11-5.33s.05-5.33.11-5.33.11,2.39.11,5.33S106.38,152.78,106.32,152.78Z" style="fill:#f5f5f5"></path><path d="M56.92,152.78c-.06,0-.1-2.39-.1-5.33s0-5.33.1-5.33.11,2.39.11,5.33S57,152.78,56.92,152.78Z" style="fill:#e0e0e0"></path><path d="M91.25,143.88v0l6.13,4.94,0,0-.07,0-.81.22-5.17,1.35h0l-4.68-2-1.33-.56-.35-.16-.09,0h0l.09,0,.36.15,1.33.55,4.7,2h0L96.52,149l.81-.22v.07l-6.11-5h0" style="fill:#e0e0e0"></path><polygon points="96.81 148.03 97.15 148.34 97.59 148.25 97.4 148.66 97.63 149.06 97.17 149 96.87 149.34 96.78 148.89 96.36 148.71 96.77 148.49 96.81 148.03" style="fill:#e0e0e0"></polygon><polygon points="90.94 149.98 91.16 150.17 91.45 150.09 91.34 150.36 91.5 150.61 91.21 150.59 91.02 150.82 90.95 150.54 90.67 150.43 90.92 150.28 90.94 149.98" style="fill:#e0e0e0"></polygon><polygon points="84.44 147.32 84.81 147.34 85.03 147.05 85.12 147.41 85.47 147.53 85.16 147.72 85.14 148.09 84.86 147.86 84.51 147.96 84.65 147.62 84.44 147.32" style="fill:#e0e0e0"></polygon><polygon points="99.56 143.95 99.92 143.98 100.15 143.69 100.24 144.04 100.58 144.17 100.27 144.36 100.26 144.73 99.98 144.5 99.63 144.6 99.76 144.26 99.56 143.95" style="fill:#e0e0e0"></polygon><polygon points="90.95 143.72 91.18 143.73 91.33 143.55 91.39 143.77 91.6 143.85 91.41 143.98 91.4 144.21 91.22 144.06 91 144.13 91.08 143.91 90.95 143.72" style="fill:#e0e0e0"></polygon><path d="M100.07,144.21s-2,0-4.43-.15-4.42-.21-4.42-.23,2,0,4.43.15S100.07,144.19,100.07,144.21Z" style="fill:#e0e0e0"></path><path d="M102.29,142.17H43.51c-.77-1.75-1-3.41,0-4.9h58.78A5.64,5.64,0,0,1,102.29,142.17Z" style="fill:#e0e0e0"></path><rect x="55.68" y="138.67" width="31.85" height="1.78" style="fill:#ebebeb"></rect><path d="M45.77,142.19s-.23-.18-.47-.59a4.31,4.31,0,0,1-.53-1.74,4.37,4.37,0,0,1,.22-1.8,1.63,1.63,0,0,1,.36-.66,6.58,6.58,0,0,1-.21.71,5,5,0,0,0-.16,1.74,4.83,4.83,0,0,0,.46,1.68A6.45,6.45,0,0,1,45.77,142.19Z" style="fill:#e0e0e0"></path><path d="M47,142.19s-.23-.18-.46-.59a4.15,4.15,0,0,1-.54-1.74,4.37,4.37,0,0,1,.22-1.8,1.78,1.78,0,0,1,.36-.66,6.58,6.58,0,0,1-.21.71,5,5,0,0,0-.16,1.74,4.83,4.83,0,0,0,.46,1.68A6.45,6.45,0,0,1,47,142.19Z" style="fill:#e0e0e0"></path><path d="M99.92,142.08a10.51,10.51,0,0,0,.41-2.39,9.5,9.5,0,0,0-.39-2.4,4.2,4.2,0,0,1,.6,2.4A4.38,4.38,0,0,1,99.92,142.08Z" style="fill:#f5f5f5"></path><path d="M98.82,142.07c-.06,0,.19-1,.18-2.35s-.25-2.32-.18-2.34a5.58,5.58,0,0,1,.39,2.34A5.66,5.66,0,0,1,98.82,142.07Z" style="fill:#f5f5f5"></path><rect x="130.04" y="69.34" width="20.93" height="22.2" transform="translate(-0.43 0.75) rotate(-0.31)" style="fill:#ebebeb"></rect><rect x="150.87" y="69.22" width="20.93" height="22.2" transform="matrix(1, -0.01, 0.01, 1, -0.43, 0.86)" style="fill:#f5f5f5"></rect><path d="M130,75.52c13.91.12,27.86,0,41.76-.19a.22.22,0,0,0,0-.44q-20.86-.12-41.76.25a.19.19,0,0,0,0,.38Z" style="fill:#e0e0e0"></path><rect x="116.98" y="91.21" width="38.03" height="18.09" transform="translate(-0.54 0.73) rotate(-0.31)" style="fill:#ebebeb"></rect><rect x="154.83" y="91.01" width="38.03" height="18.09" transform="translate(-0.53 0.93) rotate(-0.31)" style="fill:#f5f5f5"></rect><path d="M117,96.35c25.26.28,50.61,0,75.87-.38a.22.22,0,0,0,0-.44c-25.26-.13-50.62-.12-75.88.44a.19.19,0,0,0,0,.38Z" style="fill:#e0e0e0"></path><rect x="82.65" y="193.63" width="38.03" height="18.09" transform="translate(-1.08 0.55) rotate(-0.31)" style="fill:#ebebeb"></rect><rect x="120.5" y="193.42" width="38.03" height="18.09" transform="translate(-1.08 0.75) rotate(-0.31)" style="fill:#f5f5f5"></rect><path d="M82.63,198.76c25.26.29,50.61,0,75.88-.37a.23.23,0,0,0,0-.45c-25.26-.13-50.61-.12-75.87.44a.19.19,0,0,0,0,.38Z" style="fill:#e0e0e0"></path><rect x="60.12" y="61.75" width="9.59" height="47.73" transform="translate(-0.46 0.35) rotate(-0.31)" style="fill:#e0e0e0"></rect><rect x="69.53" y="43.95" width="9.59" height="65.65" transform="translate(-0.41 0.4) rotate(-0.31)" style="fill:#ebebeb"></rect><rect x="79.18" y="56.19" width="14.91" height="53.2" transform="translate(-0.44 0.47) rotate(-0.31)" style="fill:#f5f5f5"></rect><path d="M93.84,66.4a55.39,55.39,0,0,1-7.45.25,55.48,55.48,0,0,1-7.46-.25,52.57,52.57,0,0,1,7.46-.26A52.48,52.48,0,0,1,93.84,66.4Z" style="fill:#e0e0e0"></path><path d="M93.84,64.16a54.33,54.33,0,0,1-7.45.26,54.42,54.42,0,0,1-7.46-.26,54.42,54.42,0,0,1,7.46-.26A54.33,54.33,0,0,1,93.84,64.16Z" style="fill:#e0e0e0"></path><path d="M93.84,101.34a52.48,52.48,0,0,1-7.45.26,52.57,52.57,0,0,1-7.46-.26,54.42,54.42,0,0,1,7.46-.26A54.33,54.33,0,0,1,93.84,101.34Z" style="fill:#e0e0e0"></path><path d="M93.84,99.11a54.33,54.33,0,0,1-7.45.26,54.42,54.42,0,0,1-7.46-.26,54.42,54.42,0,0,1,7.46-.26A54.33,54.33,0,0,1,93.84,99.11Z" style="fill:#e0e0e0"></path><path d="M86.63,94.23c-.15,0-.26-5.37-.26-12s.11-12,.26-12,.25,5.36.25,12S86.77,94.23,86.63,94.23Z" style="fill:#e0e0e0"></path><rect x="94" y="69.21" width="16.22" height="40.16" style="fill:#ebebeb"></rect><path d="M76.77,55.13A2.76,2.76,0,1,1,74,52.38,2.75,2.75,0,0,1,76.77,55.13Z" style="fill:#e0e0e0"></path><rect x="73.16" y="62.72" width="1.7" height="39.05" style="fill:#e0e0e0"></rect><rect x="33.27" y="164.43" width="168.89" height="5.78" style="fill:#e0e0e0"></rect><rect x="33.27" y="109.63" width="168.89" height="5.78" style="fill:#e0e0e0"></rect><rect x="67.74" y="211.85" width="134.42" height="5.45" style="fill:#e0e0e0"></rect><rect x="111.27" y="114.27" width="6.44" height="54.52" style="fill:#e0e0e0"></rect><rect x="67.77" y="164.43" width="6.44" height="52.85" style="fill:#e0e0e0"></rect><path d="M150,139.65l-4,5.69s8.91,2.47,8.91,10.39-5.45,9.4-11.38,9.4-11.63-1.73-11.39-9.65,7.67-10.89,7.67-10.89l-3.71-4.94Z" style="fill:#f5f5f5"></path><rect x="239.69" y="343.38" width="178.78" height="82.45" style="fill:#f5f5f5"></rect><path d="M414.21,421.94H243.78V347.72H414.21Zm-169.32-1.11H413.1v-72H244.89Z" style="fill:#e0e0e0"></path><rect x="418.47" y="343.38" width="43.68" height="82.45" style="fill:#e0e0e0"></rect><path d="M244.33,370.69H413.66a.23.23,0,0,0,0-.45H244.33a.23.23,0,0,0,0,.45Z" style="fill:#e0e0e0"></path><path d="M329.55,370.46a185.84,185.84,0,0,0,.06-22.39.23.23,0,0,0-.46,0,185.84,185.84,0,0,0,.06,22.39.17.17,0,0,0,.34,0Z" style="fill:#e0e0e0"></path><path d="M375.12,359.27a2.31,2.31,0,1,1-2.3-2.31A2.3,2.3,0,0,1,375.12,359.27Z" style="fill:#e0e0e0"></path><path d="M286.26,359.27A2.31,2.31,0,1,1,284,357,2.3,2.3,0,0,1,286.26,359.27Z" style="fill:#e0e0e0"></path><path d="M331.3,384.83a2.31,2.31,0,1,1-2.3-2.31A2.31,2.31,0,0,1,331.3,384.83Z" style="fill:#e0e0e0"></path><polygon points="261.06 425.83 251.86 477.6 257.03 477.6 274 425.83 261.06 425.83" style="fill:#e0e0e0"></polygon><polygon points="405.82 425.83 413.52 477.69 408.34 477.69 392.88 425.83 405.82 425.83" style="fill:#e0e0e0"></polygon><polygon points="440.38 425.83 449.1 477.69 443.92 477.69 427.44 425.83 440.38 425.83" style="fill:#e0e0e0"></polygon><path d="M331.15,408.17a2.31,2.31,0,1,1-2.31-2.31A2.31,2.31,0,0,1,331.15,408.17Z" style="fill:#e0e0e0"></path><path d="M244.33,396.22H413.66a.23.23,0,0,0,0-.45H244.33a.23.23,0,0,0,0,.45Z" style="fill:#e0e0e0"></path><rect x="331.95" y="283.01" width="11" height="54.06" transform="translate(645.7 -29.05) rotate(89.7)" style="fill:#e0e0e0"></rect><rect x="332.29" y="304.64" width="17.1" height="60.25" transform="translate(673.79 -7.84) rotate(89.7)" style="fill:#f5f5f5"></rect><path d="M359.4,343c-.17,0-.3-3.83-.3-8.55s.13-8.55.3-8.55a63.33,63.33,0,0,1,.29,8.55A63.33,63.33,0,0,1,359.4,343Z" style="fill:#e0e0e0"></path><path d="M361.93,343a62.27,62.27,0,0,1-.3-8.55,62.27,62.27,0,0,1,.3-8.55,63.33,63.33,0,0,1,.29,8.55A63.33,63.33,0,0,1,361.93,343Z" style="fill:#e0e0e0"></path><path d="M319.82,343a63.33,63.33,0,0,1-.29-8.55,63.33,63.33,0,0,1,.29-8.55,63.33,63.33,0,0,1,.29,8.55A63.33,63.33,0,0,1,319.82,343Z" style="fill:#e0e0e0"></path><path d="M322.35,343a63.33,63.33,0,0,1-.29-8.55,63.33,63.33,0,0,1,.29-8.55,63.33,63.33,0,0,1,.29,8.55A63.33,63.33,0,0,1,322.35,343Z" style="fill:#e0e0e0"></path><path d="M327.87,334.76c0-.17,6.08-.3,13.58-.3s13.57.13,13.57.3-6.07.29-13.57.29S327.87,334.92,327.87,334.76Z" style="fill:#e0e0e0"></path><rect x="350.92" y="283.48" width="11" height="74.34" transform="translate(675.19 -37.46) rotate(89.7)" style="fill:#ebebeb"></rect><path d="M383,324.59A3.56,3.56,0,1,1,386.5,321,3.53,3.53,0,0,1,383,324.59Z" style="fill:#e0e0e0"></path><rect x="347.34" y="296.15" width="2.2" height="49.77" transform="translate(669.47 -27.41) rotate(90)" style="fill:#e0e0e0"></rect><rect x="335.65" y="155.52" width="84.71" height="88.3" style="fill:#e0e0e0"></rect><rect x="329.92" y="155.52" width="84.71" height="88.3" style="fill:#fafafa"></rect><path d="M414.65,243.84H329.89V155.49h84.76Zm-84.71-.05H414.6V155.54H329.94Z" style="fill:#e0e0e0"></path><rect x="341.3" y="167.39" width="61.93" height="64.56" style="fill:#fff"></rect><path d="M341.3,232.38a10.38,10.38,0,0,1-1.53,1.77c-1,1-2.37,2.46-3.93,4s-3,2.91-4,3.88a10.38,10.38,0,0,1-1.79,1.49,9.58,9.58,0,0,1,1.52-1.77c1-1.05,2.38-2.46,4-4s3-2.91,4-3.88A9.61,9.61,0,0,1,341.3,232.38Z" style="fill:#e0e0e0"></path><path d="M403.23,232.22a9.77,9.77,0,0,1,1.78,1.53c1.05,1,2.46,2.37,4,3.93s2.91,3,3.88,4a10,10,0,0,1,1.49,1.79A9.58,9.58,0,0,1,412.6,242c-1.05-1-2.46-2.38-4-3.95s-2.91-3-3.88-4.05A10.6,10.6,0,0,1,403.23,232.22Z" style="fill:#e0e0e0"></path><path d="M403.07,167.56a9.8,9.8,0,0,1,1.52-1.78c1-1,2.38-2.45,3.94-4s3-2.9,4.05-3.87a9.08,9.08,0,0,1,1.79-1.49,10.42,10.42,0,0,1-1.52,1.77c-1,1-2.39,2.46-4,4s-3,2.91-4,3.88A10,10,0,0,1,403.07,167.56Z" style="fill:#e0e0e0"></path><path d="M341.13,167.72a10,10,0,0,1-1.77-1.53c-1.05-1-2.46-2.38-4-3.94s-2.9-3-3.87-4a10.38,10.38,0,0,1-1.49-1.79,9.1,9.1,0,0,1,1.77,1.52c1,1,2.46,2.38,4,3.94s2.91,3,3.88,4.06A9.24,9.24,0,0,1,341.13,167.72Z" style="fill:#e0e0e0"></path><path d="M403.07,232a2.15,2.15,0,0,1,0-.32c0-.22,0-.51,0-.9q0-1.22,0-3.48c0-3.06,0-7.51-.06-13.16,0-11.31-.07-27.42-.12-46.7l.24.24-61.76,0h0l.28-.27c0,23.69,0,45.86,0,64.56l-.24-.24,44.72.12,12.56.06,3.33,0h.86l.3,0H402l-3.28,0-12.51.06-44.87.12h-.23V232c0-18.7,0-40.87,0-64.56v-.28h.28l61.76,0h.24v.24c-.05,19.35-.09,35.51-.12,46.85,0,5.63-.05,10.06-.06,13.11,0,1.49,0,2.64,0,3.43,0,.38,0,.67,0,.88S403.07,232,403.07,232Z" style="fill:#e0e0e0"></path><rect x="361.94" y="189.33" width="20.67" height="20.67" style="fill:#ebebeb"></rect></g></svg>
