<svg xmlns="http://www.w3.org/2000/svg" viewBox="0 0 500 500"><g id="freepik--background-complete--inject-3"><rect x="416.78" y="398.49" width="33.12" height="0.25" style="fill:#ebebeb"></rect><rect x="322.53" y="401.21" width="8.69" height="0.25" style="fill:#ebebeb"></rect><rect x="396.59" y="389.21" width="19.19" height="0.25" style="fill:#ebebeb"></rect><rect x="52.46" y="390.89" width="43.19" height="0.25" style="fill:#ebebeb"></rect><rect x="104.56" y="390.89" width="6.33" height="0.25" style="fill:#ebebeb"></rect><rect x="131.47" y="395.11" width="93.68" height="0.25" style="fill:#ebebeb"></rect><path d="M237,337.8H43.92a5.71,5.71,0,0,1-5.71-5.71V60.66A5.71,5.71,0,0,1,43.92,55H237a5.71,5.71,0,0,1,5.71,5.71V332.09A5.71,5.71,0,0,1,237,337.8ZM43.92,55.2a5.47,5.47,0,0,0-5.46,5.46V332.09a5.47,5.47,0,0,0,5.46,5.46H237a5.47,5.47,0,0,0,5.46-5.46V60.66A5.47,5.47,0,0,0,237,55.2Z" style="fill:#ebebeb"></path><path d="M453.31,337.8H260.21a5.72,5.72,0,0,1-5.71-5.71V60.66A5.72,5.72,0,0,1,260.21,55h193.1A5.71,5.71,0,0,1,459,60.66V332.09A5.71,5.71,0,0,1,453.31,337.8ZM260.21,55.2a5.47,5.47,0,0,0-5.46,5.46V332.09a5.47,5.47,0,0,0,5.46,5.46h193.1a5.47,5.47,0,0,0,5.46-5.46V60.66a5.47,5.47,0,0,0-5.46-5.46Z" style="fill:#ebebeb"></path><rect y="382.4" width="500" height="0.25" style="fill:#ebebeb"></rect><path d="M311.64,99.26s33,3.72,29.68-5.58c-2.53-7.15-7.23-.48-9.5-1.25-2-.68-1.21-5.7-6.62-5.13s-3.42,5.87-5.15,7.28S311.43,92.43,311.64,99.26Z" style="fill:#fafafa"></path><path d="M66.06,255.65H188.22a0,0,0,0,1,0,0V365.5a18.15,18.15,0,0,1-18.15,18.15H84.21A18.15,18.15,0,0,1,66.06,365.5V255.65A0,0,0,0,1,66.06,255.65Z" transform="translate(254.28 639.3) rotate(180)" style="fill:#ebebeb"></path><path d="M235.89,291.32V302a9,9,0,0,1-9,9h0v72.67H188.22V296a13.68,13.68,0,0,1,13.68-13.68h25A9,9,0,0,1,235.89,291.32Z" style="fill:#e0e0e0"></path><path d="M244.72,291.32V302a9,9,0,0,1-9,9h0v72.67H207.06V296a13.67,13.67,0,0,1,13.68-13.68h15A9,9,0,0,1,244.72,291.32Z" style="fill:#f0f0f0"></path><rect x="95.56" y="358.65" width="103.39" height="25" transform="translate(294.5 742.3) rotate(180)" style="fill:#e0e0e0"></rect><path d="M97.7,360.81a18.33,18.33,0,1,1,0-36.66H198a18.33,18.33,0,1,1,0,36.66Z" style="fill:#f5f5f5"></path><ellipse cx="97.33" cy="342.48" rx="17.97" ry="18.31" style="fill:#e0e0e0"></ellipse><path d="M52.89,282.32h29A13.68,13.68,0,0,1,95.56,296v87.65H52.89V311h0a9,9,0,0,1-9-9V291.32A9,9,0,0,1,52.89,282.32Z" style="fill:#e0e0e0"></path><path d="M71.72,282.32h15A13.67,13.67,0,0,1,100.39,296v87.65H71.72V311h0a9,9,0,0,1-9-9V291.32A9,9,0,0,1,71.72,282.32Z" style="fill:#f0f0f0"></path><rect x="253.66" y="309.12" width="187.07" height="61.46" style="fill:#ebebeb"></rect><rect x="256.9" y="374.77" width="11.76" height="8.88" style="fill:#e6e6e6"></rect><rect x="443.26" y="301.63" width="11.76" height="82.02" style="fill:#e6e6e6"></rect><path d="M440.26,301.63H250.63v82h6.27v-6.79H437.13v6.79h6.27v-82Zm-183.36,11h87v53.27h-87Zm93.25,0h87v53.27h-87Z" style="fill:#f5f5f5"></path><path d="M281.71,286.3H405.26c3.38,0,6.27-2.19,6.45-4.88l4.06-61.53C416,217.2,413.35,215,410,215H286.41c-3.39,0-6.28,2.19-6.45,4.88l-4.06,61.53C275.72,284.11,278.32,286.3,281.71,286.3Z" style="fill:#e0e0e0"></path><polygon points="331.72 301.62 347.29 301.62 344.16 281.01 331.72 281.01 331.72 301.62" style="fill:#e0e0e0"></polygon><path d="M318.18,299.89H347l.26,1.73H318.18a.89.89,0,1,1,0-1.73Z" style="fill:#ebebeb"></path><path d="M280.66,286.3H404.21c3.39,0,6.28-2.19,6.46-4.88l4.05-61.53c.18-2.69-2.42-4.88-5.81-4.88H285.36c-3.38,0-6.27,2.19-6.45,4.88l-4.06,61.53C274.67,284.11,277.28,286.3,280.66,286.3Z" style="fill:#ebebeb"></path><path d="M404.38,283.81H280.83c-1.66,0-2.93-1.07-2.84-2.39l4.06-61.53c.08-1.32,1.5-2.39,3.15-2.39H408.75c1.65,0,2.93,1.07,2.84,2.39l-4.06,61.53C407.45,282.74,406,283.81,404.38,283.81Z" style="fill:#fafafa"></path><polygon points="102.22 209.77 77.11 209.77 97.31 95.21 122.42 95.21 102.22 209.77" style="fill:#fafafa"></polygon><polygon points="116.83 209.77 110.06 209.77 130.26 95.21 137.03 95.21 116.83 209.77" style="fill:#fafafa"></polygon><polygon points="190.27 211.75 183.31 211.75 204.07 94.02 211.03 94.02 190.27 211.75" style="fill:#fafafa"></polygon><polygon points="176.41 211.75 163.3 211.75 184.06 94.02 197.17 94.02 176.41 211.75" style="fill:#fafafa"></polygon><path d="M141.31,211.77h-82V93.43h82Zm-75.53-6.49h69V99.92h-69Z" style="fill:#e6e6e6"></path><path d="M226.57,215H56.05V90.19H226.57Zm-164-6.48H220.08V96.67H62.54Z" style="fill:#f5f5f5"></path><circle cx="357.27" cy="135.11" r="26.27" style="fill:#e0e0e0"></circle><circle cx="356.25" cy="135.11" r="26.27" style="fill:#ebebeb"></circle><circle cx="356.25" cy="135.11" r="22.33" style="fill:#fafafa"></circle><path d="M357.16,137.06h-1.81a1,1,0,0,1-1-1l.9-16.81a1,1,0,0,1,1-.93h0a1,1,0,0,1,1,.93l.9,16.81A1,1,0,0,1,357.16,137.06Z" style="fill:#e0e0e0"></path><path d="M367,136.11l-11.6.87a1,1,0,0,1-1.08-1v-1.73a1,1,0,0,1,1.08-1l11.6.86a1,1,0,0,1,.93,1h0A1,1,0,0,1,367,136.11Z" style="fill:#e0e0e0"></path></g><g id="freepik--Shadow--inject-3"><ellipse id="freepik--path--inject-3" cx="245.18" cy="415.23" rx="193.89" ry="14.16" style="fill:#f5f5f5"></ellipse></g><g id="freepik--yoga-ball--inject-3"><circle cx="396.59" cy="358.43" r="52.49" transform="translate(-50.29 65.08) rotate(-8.82)" style="fill:#7E7F9A"></circle><circle cx="396.59" cy="358.43" r="52.49" transform="translate(-50.29 65.08) rotate(-8.82)" style="fill:#fff;opacity:0.7000000000000001"></circle><path d="M392.54,322.64c3.79,7.41-2.34,10.26-9.75,14.05s-13.32,7.07-17.11-.35a15.08,15.08,0,1,1,26.86-13.7Z" style="fill:#fff;opacity:0.2"></path><path d="M447,343.74a52.5,52.5,0,0,1-102.55,20.68A52.5,52.5,0,1,0,447,343.74Z" style="opacity:0.1"></path><g style="opacity:0.30000000000000004"><path d="M445.11,378.47c.19-.48.38-1,.56-1.45-3.43,3-24.16,2.86-52.09-2.3s-47.34-12.43-49.48-16.45c0,.52,0,1.05,0,1.56,5.34,5.41,27.68,11.89,49.29,15.88S438.2,381.62,445.11,378.47Z" style="fill:#fff"></path><path d="M438.82,389.62c.3-.41.59-.83.88-1.24-5.8,2-24.17,1.47-48.1-2.95S350.32,375,345.62,371c.12.49.24,1,.38,1.47,6.9,4.87,26.46,10.39,45.43,13.89S430.63,391.7,438.82,389.62Z" style="fill:#fff"></path><path d="M442.26,384.31c.26-.47.53-.93.79-1.41-4.05,2.69-23.95,2.45-50.53-2.45s-45.25-11.79-48.07-15.76c.07.55.15,1.08.24,1.62,5.84,5.19,27.09,11.3,47.65,15.1S435,387.08,442.26,384.31Z" style="fill:#fff"></path></g></g><g id="freepik--Furniture--inject-3"><rect x="60.77" y="275.25" width="86.57" height="124.99" transform="translate(208.12 675.5) rotate(180)" style="fill:#7E7F9A"></rect><rect x="60.77" y="275.25" width="86.57" height="124.99" transform="translate(208.12 675.5) rotate(180)" style="fill:#fff;opacity:0.6000000000000001"></rect><rect x="60.77" y="275.25" width="13.87" height="124.99" transform="translate(135.41 675.5) rotate(180)" style="opacity:0.2"></rect><rect x="79.36" y="284.68" width="62.89" height="30.85" transform="translate(221.61 600.21) rotate(180)" style="fill:#7E7F9A"></rect><rect x="79.36" y="318.9" width="62.89" height="30.85" transform="translate(221.61 668.65) rotate(180)" style="fill:#7E7F9A"></rect><rect x="79.36" y="353.12" width="62.89" height="30.85" transform="translate(221.61 737.09) rotate(180)" style="fill:#7E7F9A"></rect><g style="opacity:0.7000000000000001"><rect x="79.36" y="284.68" width="62.89" height="30.85" transform="translate(221.61 600.21) rotate(180)" style="fill:#fff"></rect><rect x="79.36" y="318.9" width="62.89" height="30.85" transform="translate(221.61 668.65) rotate(180)" style="fill:#fff"></rect><rect x="79.36" y="353.12" width="62.89" height="30.85" transform="translate(221.61 737.09) rotate(180)" style="fill:#fff"></rect></g><path d="M107.45,300.11a3.36,3.36,0,1,0,3.36-3.36A3.35,3.35,0,0,0,107.45,300.11Z" style="opacity:0.2"></path><path d="M107.45,334.32a3.36,3.36,0,1,0,3.36-3.35A3.35,3.35,0,0,0,107.45,334.32Z" style="opacity:0.2"></path><path d="M107.45,368.54a3.36,3.36,0,1,0,3.36-3.35A3.35,3.35,0,0,0,107.45,368.54Z" style="opacity:0.2"></path><path d="M109.49,300.11a3.36,3.36,0,1,0,3.36-3.36A3.36,3.36,0,0,0,109.49,300.11Z" style="fill:#7E7F9A"></path><path d="M109.49,334.32a3.36,3.36,0,1,0,3.36-3.35A3.36,3.36,0,0,0,109.49,334.32Z" style="fill:#7E7F9A"></path><path d="M109.49,368.54a3.36,3.36,0,1,0,3.36-3.35A3.36,3.36,0,0,0,109.49,368.54Z" style="fill:#7E7F9A"></path><polygon points="147.34 400.25 147.34 411.51 142.32 411.51 139.26 400.25 147.34 400.25" style="fill:#7E7F9A"></polygon><polygon points="74.64 400.25 74.64 411.51 79.66 411.51 82.72 400.25 74.64 400.25" style="fill:#7E7F9A"></polygon><polygon points="74.64 400.25 74.64 411.51 73.32 411.51 70.25 400.25 74.64 400.25" style="fill:#7E7F9A"></polygon><polygon points="74.64 400.25 74.64 411.51 73.32 411.51 70.25 400.25 74.64 400.25" style="fill:#fff;opacity:0.5"></polygon><polygon points="74.64 400.25 74.64 411.51 73.32 411.51 70.25 400.25 74.64 400.25" style="opacity:0.2"></polygon><polygon points="60.77 400.25 60.77 411.51 62.09 411.51 65.16 400.25 60.77 400.25" style="fill:#7E7F9A"></polygon><polygon points="60.77 400.25 60.77 411.51 62.09 411.51 65.16 400.25 60.77 400.25" style="fill:#fff;opacity:0.5"></polygon><polygon points="60.77 400.25 60.77 411.51 62.09 411.51 65.16 400.25 60.77 400.25" style="opacity:0.2"></polygon><polygon points="147.34 400.25 147.34 411.51 142.32 411.51 139.26 400.25 147.34 400.25" style="fill:#fff;opacity:0.6000000000000001"></polygon><polygon points="133.9 400.25 133.9 411.51 128.88 411.51 125.82 400.25 133.9 400.25" style="fill:#7E7F9A"></polygon><polygon points="133.9 400.25 133.9 411.51 128.88 411.51 125.82 400.25 133.9 400.25" style="fill:#fff;opacity:0.5"></polygon><polygon points="133.9 400.25 133.9 411.51 128.88 411.51 125.82 400.25 133.9 400.25" style="opacity:0.2"></polygon><polygon points="74.64 400.25 74.64 411.51 79.66 411.51 82.72 400.25 74.64 400.25" style="fill:#fff;opacity:0.6000000000000001"></polygon><path d="M86.43,237.13h0a1.78,1.78,0,0,1-.54-1.28v-4.77H77.7v4.77a1.78,1.78,0,0,1-.54,1.28h0a5.69,5.69,0,0,0-1.78,4.14v30.8a3.16,3.16,0,0,0,3.16,3.16h6.51a3.16,3.16,0,0,0,3.16-3.16v-30.8A5.69,5.69,0,0,0,86.43,237.13Z" style="fill:#7E7F9A"></path><path d="M85.94,227.54H84.16a17.59,17.59,0,0,1-2-.89,70.33,70.33,0,0,1-5.73-4.48.54.54,0,0,0-.73.05.55.55,0,0,0,0,.76l1.53,1.55a4,4,0,0,1,1.16,2.81v.2h-.8a.76.76,0,0,0-.76.75v2a.76.76,0,0,0,.76.76h8.29a.76.76,0,0,0,.76-.76v-2A.76.76,0,0,0,85.94,227.54Z" style="fill:#263238"></path><rect x="82.28" y="223.71" width="3.61" height="4.87" style="fill:#263238"></rect><path d="M85.79,223.71h-3.4a.41.41,0,0,1-.4-.41h0a.41.41,0,0,1,.4-.41h3.4a.41.41,0,0,1,.4.41h0A.41.41,0,0,1,85.79,223.71Z"></path><path d="M84.16,227.54c-.69-.28-1.39-.58-1.82-.81H78.4a4.18,4.18,0,0,1,0,.61v.2Z"></path><path d="M98.55,275.46c-2.76,0-5-3.86-5-8.61s2.23-8.62,5-8.62h27.93c2.76,0,5,3.86,5,8.62s-2.23,8.61-5,8.61Z" style="fill:#263238"></path><path d="M98.55,275.46c-2.76,0-5-3.86-5-8.61s2.23-8.62,5-8.62h27.93c2.76,0,5,3.86,5,8.62s-2.23,8.61-5,8.61Z" style="fill:#fff;opacity:0.5"></path><path d="M103.53,266.85c0,4.75-2.23,8.61-5,8.61s-5-3.86-5-8.61,2.23-8.62,5-8.62S103.53,262.09,103.53,266.85Z" style="fill:#7E7F9A"></path><path d="M102.21,266.85c0,3.5-1.64,6.33-3.66,6.33s-3.67-2.83-3.67-6.33,1.64-6.34,3.67-6.34S102.21,263.35,102.21,266.85Z" style="opacity:0.30000000000000004"></path><path d="M101.84,266.85c0,2.16-1,3.92-2.27,3.92S97.3,269,97.3,266.85s1-3.93,2.27-3.93S101.84,264.68,101.84,266.85Z" style="fill:#fff;opacity:0.5"></path><path d="M129.41,271.35l0,0a8.1,8.1,0,0,0,.47-1.37l-.51.52-1-1,1-1,.67.67c0-.22.08-.45.11-.69l-.38-.39.45-.45c0-.28.05-.55.05-.85l-.9.9-1-1,1-1,.9.9c0-.3,0-.57-.05-.85l-.45-.45.38-.39c0-.24-.07-.47-.11-.69l-.67.67-1-1,1-1,.51.52a8.1,8.1,0,0,0-.47-1.37l0,0-1-1,.34-.34a3.4,3.4,0,0,0-.36-.44L128,261l-.9-.9h-.94l-.9.9-.9-.9h-.94l-.9.9-.9-.9h-.94l-.89.9-.9-.9H118l-.9.9-.9-.9h-.94l-.9.9-.9-.9h-.94l-.9.9-.89-.9h-1l-.89.9-.9-.9H107l-.9.9-.9-.9h-.94l-.57.56c.08.2.15.4.22.6l.82-.82,1,1-1,1-.68-.68c.1.34.18.7.26,1.06l0,0h0c0,.22.1.44.14.66l.27-.27,1,1-1,1,0-.05c0,.28,0,.58,0,.87h0l1,1-1,1h0c0,.29,0,.59,0,.87l0-.05,1,1-1,1-.27-.27c0,.22-.1.44-.14.66h0l0,0c-.08.36-.16.72-.26,1.06l.68-.68,1,1-1,1-.82-.82c-.07.2-.14.4-.22.6l.57.56h.94l.9-.9.9.9H108l.9-.9.89.9h1l.89-.9.9.9h.94l.9-.9.9.9h.94l.9-.9.9.9h.94l.9-.9.89.9h.94l.9-.9.9.9h.94l.9-.9.9.9h.94l.9-.9.38.38a3.4,3.4,0,0,0,.36-.44l-.34-.34Zm-.41-3.14-1,1-1-1,1-1Zm-3.3-4.1,1-1,1,1-1,1Zm1.93,2.73-1,1-1-1,1-1Zm-1.37-1.36-1,1-1-1,1-1Zm-1.36,1.36-1,1-1-1,1-1Zm-1-1.77-1-1,1-1,1,1Zm-.4.41-1,1-1-1,1-1Zm-1.37,1.36-1,1-1-1,1-1Zm-1-1.77-1-1,1-1,1,1Zm-.4.41-1,1-1-1,1-1Zm-1.37,1.36-1,1-1-1,1-1Zm-1-1.77-1-1,1-1,1,1Zm-.41.41-1,1-1-1,1-1Zm-1.37,1.36-1,1-1-1,1-1Zm-1-1.77-1-1,1-1,1,1Zm-.4.41-1,1-1-1,1-1ZM114,266.84l-1,1-1-1,1-1Zm-1-1.77-1-1,1-1,1,1Zm-.4.41-1,1-1-1,1-1Zm-1.37,1.36-1,1-1-1,1-1Zm-1-1.77-1-1,1-1,1,1Zm-.4.41-1,1-1-1,1-1Zm-2.33-.41-1-1,1-1,1,1Zm1,1.77-1,1-1-1,1-1Zm0,2.74-1,1-1-1,1-1Zm-.56-1.37,1-1,1,1-1,1Zm2.33.41,1,1-1,1-1-1Zm.41-.41,1-1,1,1-1,1Zm2.33.41,1,1-1,1-1-1Zm.41-.41,1-1,1,1-1,1Zm2.33.41,1,1-1,1-1-1Zm.4-.41,1-1,1,1-1,1Zm2.34.41,1,1-1,1-1-1Zm.4-.41,1-1,1,1-1,1Zm2.33.41,1,1-1,1-1-1Zm.41-.41,1-1,1,1-1,1Zm2.33.41,1,1-1,1-1-1Zm.4-.41,1-1,1,1-1,1Zm2.34.41,1,1-1,1-1-1Zm2.33-3.14-1,1-1-1,1-1Zm0-2.74-1,1-1-1,1-1Zm-2.33-2.34,1,1-1,1-1-1Zm-.41,2.34-1,1-1-1,1-1Zm-2.33-2.33,1,1-1,1-1-1Zm-.4,2.33-1,1-1-1,1-1Zm-2.34-2.33,1,1-1,1-1-1Zm-.4,2.33-1,1-1-1,1-1Zm-2.33-2.33,1,1-1,1-1-1Zm-.41,2.33-1,1-1-1,1-1Zm-2.33-2.33,1,1-1,1-1-1Zm-.4,2.33-1,1-1-1,1-1ZM113,260.41l1,1-1,1-1-1Zm-.4,2.33-1,1-1-1,1-1Zm-2.34-2.33,1,1-1,1-1-1Zm-.4,2.33-1,1-1-1,1-1Zm-2.33-2.33,1,1-1,1-1-1Zm-2.34,2.33,1-1,1,1-1,1Zm0,2.74,1-1,1,1-1,1Zm0,2.73,1-1,1,1-1,1Zm0,2.74,1-1,1,1-1,1Zm2.34,2.34-1-1,1-1,1,1Zm.4-2.34,1-1,1,1-1,1Zm2.33,2.34-1-1,1-1,1,1Zm.41-2.34,1-1,1,1-1,1Zm2.33,2.33-1-1,1-1,1,1Zm.41-2.33,1-1,1,1-1,1Zm2.33,2.33-1-1,1-1,1,1Zm.4-2.33,1-1,1,1-1,1Zm2.34,2.33-1-1,1-1,1,1Zm.4-2.33,1-1,1,1-1,1Zm2.33,2.33-1-1,1-1,1,1Zm.41-2.33,1-1,1,1-1,1Zm2.33,2.34-1-1,1-1,1,1Zm.4-2.34,1-1,1,1-1,1Zm2.34,2.34-1-1,1-1,1,1Zm.4-2.34,1-1,1,1-1,1Z" style="fill:#fff;opacity:0.6000000000000001"></path></g><g id="freepik--Character--inject-3"><path d="M228.94,305.67s-7.8,4.89-8.85,16.24,7.8,17.48,6.25,25,5.83,13.17,4.79,18.32c0,0,6.17-.41,8.28-5.29s-3.95-10.32-3.95-10.32a12.33,12.33,0,0,1,5.95,7.87s2.84-8.06,6.49-6.45c0,0-.45-3.63-2-5.42a7.1,7.1,0,0,1,3.3,4.26s3.58-7.37,9.87-5.17c0,0,5.16-13.39.47-25.43S241.55,292.86,228.94,305.67Z" style="fill:#263238"></path><path d="M144.49,387.73a2.15,2.15,0,0,0-3.9.2c-1.23,2.95-1,8.47.79,17,1.05,4.94-.65,9.32-.49,12.7s3.85,1.72,7.69.82,13-.09,13-.09l-1.74-9.07s-5.8,1-8.37-5.47C149.64,399.25,146.66,391.85,144.49,387.73Z" style="fill:#ffc2bc"></path><path d="M276.56,389.2s31.66,3.79,50.46.49l4.5,3S312.69,412.43,301,412.43s-28.31-20.91-28.31-20.91Z" style="fill:#7E7F9A"></path><path d="M301.06,412.43c4.4,4.43,9.45,3.3,25.53,2.64,14.63-.6,54.54,3.6,56.86-13.37,2.64-19.31-52.22-20.91-70.06-8.94C303.72,399.25,293.38,404.71,301.06,412.43Z" style="fill:#7E7F9A"></path><path d="M157.69,418.57l-1.6-10.33s31.42-5.91,60.32-11.09,45-16.36,84.54-3.85c7.47,2.37,4.11,14.08,2.25,16.85-1.72,2.57-10.51,5.61-32,3.58a21.82,21.82,0,0,0-4.57.07,266.06,266.06,0,0,1-45.51,1.26S207.55,419.82,157.69,418.57Z" style="fill:#7E7F9A"></path><path d="M246.42,346.21s-7.59-2.29-20.31,6.42-24.2,8.58-41.51,15.87-19.1,7.24-19.1,7.24l3,6.79s38.71-7.16,51.05-11.42,19.08-14.55,40.84-7.62Z" style="fill:#ffc2bc"></path><path d="M274.55,390.38s5.65,4.9,26.42,4.92,26.83-5.38,26.83-5.38a106.33,106.33,0,0,1-7.5-16c-2.59-7.22-2.14-4.89-7.06-14.76-9.55-19.15-12.85-30-21.79-36a21.46,21.46,0,0,0-18.73-2.72c-7.92,2.65-19.08,9.3-30.72,25.63,0,0,9.64,9.26,14.87,17.37s17.13,9.67,18.5,15.12C277.51,387,274.55,390.38,274.55,390.38Z" style="fill:#ffc2bc"></path><path d="M300.71,390.27c20.77,0,27.73-5.5,27.73-5.5l-11.13-17.86c-5.93-11.55-6.35-11.69-8.59-18.74-1.78-5.61-4.12-11.48-8.25-16.19-5.94.77-24.47,3.61-33.27-9a35.11,35.11,0,0,0-3.14,2.05c1.18,3.15,1.8,7.78,9.93,14.57,5.67,4.74,4,11-3.31,15.38-5.81,3.48-11.42,1.22-20.81-10.67l-3.77-4.27c-1.07,1.35-1.28,2.17-2.41,3.69L253.46,359a37.63,37.63,0,0,1,3.41,4.44c5.23,8.12,17.13,9.67,18.5,15.12,1,4.1.82,5.83.32,6.52a.89.89,0,0,0,.34,1.33C279,387.82,286.09,390.25,300.71,390.27Z" style="fill:#7E7F9A"></path><path d="M300.71,390.27c20.77,0,27.73-5.5,27.73-5.5l-11.13-17.86c-5.93-11.55-6.35-11.69-8.59-18.74-1.78-5.61-4.12-11.48-8.25-16.19-5.94.77-24.47,3.61-33.27-9a35.11,35.11,0,0,0-3.14,2.05c1.18,3.15,1.8,7.78,9.93,14.57,5.67,4.74,4,11-3.31,15.38-5.81,3.48-11.42,1.22-20.81-10.67l-3.77-4.27c-1.07,1.35-1.28,2.17-2.41,3.69L253.46,359a37.63,37.63,0,0,1,3.41,4.44c5.23,8.12,17.13,9.67,18.5,15.12,1,4.1.82,5.83.32,6.52a.89.89,0,0,0,.34,1.33C279,387.82,286.09,390.25,300.71,390.27Z" style="opacity:0.6000000000000001"></path><path d="M259.52,324.28s2.52,2.71,5.49.59c0,0,3.28,15.51-5.85,18.41s-6.41-6.32-6.41-6.32l-2.2-1.47Z" style="fill:#ffc2bc"></path><path d="M251.19,340s4,2.46,8-1.63.06-14.6.06-14.6h-4.91l-3.15,6.14L248.31,335l.77,4.43Z" style="opacity:0.2"></path><path d="M248,309.11c7.53,6.94,10.87,9.71,11.68,17,1.22,11-8.94,18.74-18.39,14.2-8.51-4.09-19.4-14.74-16.24-25.07A14,14,0,0,1,248,309.11Z" style="fill:#ffc2bc"></path><path d="M245.87,334.87c.64.53.89,1.29.54,1.72s-1.14.33-1.79-.19-.89-1.29-.54-1.71S245.22,334.35,245.87,334.87Z" style="fill:#263238"></path><path d="M240,323.94c.65.53.89,1.3.55,1.72s-1.15.34-1.79-.19-.89-1.29-.55-1.71S239.34,323.42,240,323.94Z" style="fill:#263238"></path><path d="M233.59,330.56c.65.52.89,1.29.55,1.71s-1.14.34-1.79-.18-.89-1.3-.55-1.72S233,330,233.59,330.56Z" style="fill:#263238"></path><path d="M231.8,330.4l-1.71,1.19S232,331.78,231.8,330.4Z" style="fill:#263238"></path><path d="M236.9,329.59a22.29,22.29,0,0,1,1.47,5.9,3.56,3.56,0,0,0,2.54-1.62Z" style="fill:#ec837e"></path><path d="M240.42,319.91a.48.48,0,0,1-.52.23c-2.21-.48-4.37,1.47-4.39,1.49a.5.5,0,0,1-.7,0,.49.49,0,0,1,0-.69c.11-.1,2.57-2.32,5.26-1.73a.5.5,0,0,1,.38.58A.39.39,0,0,1,240.42,319.91Z" style="fill:#263238"></path><path d="M228.44,330a.5.5,0,0,1-.42.24.48.48,0,0,1-.49-.48,4.82,4.82,0,0,1,1.93-4,.48.48,0,0,1,.67.13.49.49,0,0,1-.13.68h0a3.85,3.85,0,0,0-1.49,3.2A.52.52,0,0,1,228.44,330Z" style="fill:#263238"></path><path d="M238.39,323.6l-1.71,1.19S238.54,325,238.39,323.6Z" style="fill:#263238"></path><path d="M258,318.19s1.4,5.88,4.8,9.82a22.78,22.78,0,0,1,4.44,9.23,15.8,15.8,0,0,0-2.76-13.19c-4.82-6.8-6.56-8.28-6.56-8.28Z" style="fill:#263238"></path><path d="M242,342.63s3.93.14,4.46,6.61,2.21,5.1,1,9.91l-4.52,2a8.46,8.46,0,0,0-1-6c-1.75-2.8-1.62-7.62-1.62-7.62a12.38,12.38,0,0,0,0,7.43c1.25,4.27-2.12,5.77-2.12,5.77s-.5-4.11-2-5.9-2.19-8.12-2.19-8.12Z" style="fill:#263238"></path><path d="M368.69,398.24s-13.61-6.13-45.24,10.68l20.71,3.51L368,404.15Z" style="opacity:0.2"></path><path d="M310.07,412c-2.29.74-4.06-1-5-3.19s-5-1.56-6.9-.8c-3.32,1.37-2.85,3.81-7.88,5.06-8.65,2.16-14.05,4.43-16.64,6.87-1.49,1.41-1.09,3.62.68,3.68,4.48.14,12.33-.43,17.14-.8l19.34-2.3.54-8.94Z" style="fill:#ffc2bc"></path><path d="M309.81,411.07s13.63-.87,24.92-5.77,22.57-5.1,29.16-6.41,20.12-1.65,19.37,4.44-6,16.37-23.7,16.37-49.75,1.71-49.75,1.71Z" style="fill:#7E7F9A"></path><path d="M157.13,375.16l-5.55,3.76a2.11,2.11,0,0,0-.85.48l-5.48,5A2.11,2.11,0,0,0,146.3,388l.71.12a2.12,2.12,0,0,0,1-.06s8-2.74,10.8-3.34c1.94-.42,6-.28,7.86-1a18.25,18.25,0,0,0,3-2.28v-5.62Z" style="fill:#ffc2bc"></path><path d="M195.77,297.4s-8.24-2-10.86-1.25-8,4.37-8.64,7.09c-.38,1.68,1.43,5.33,2.89,6.24,2.06,1.27,7.36.36,9.69-.3,2-.55,7-4,7-4l1.9-5.26Z" style="fill:#ffc2bc"></path><path d="M194.63,296.73l1.8,7.53s16.53-1.42,37.49-1.6c11.66-.1,23.68,10.77,23.68,10.77,10.34,13.83,22.12,16.91,32.87,15.93,13.57-1.23-31-33.78-46.73-37.69S194.63,296.73,194.63,296.73Z" style="fill:#ffc2bc"></path><path d="M295.19,328.34c-1.4-3.71-9.89-11-20-18.35.21.2,5.7,5.12,8.62,10.3,2.41,4.28,8.69,11.15,11.4,8.1Z" style="opacity:0.1"></path><path d="M274.55,390.38l1.88-4.08s11.33,2.9,35.44-1.94l13.33-3.57,6,7.41s-11.09,9.94-30.06,12.62S274.55,390.38,274.55,390.38Z" style="fill:#7E7F9A"></path><path d="M252,314.8a23.49,23.49,0,0,1-13.39-.29c-7.16-2.34-2.63,9.56-8,14.72,0,0,1-4.94-.23-7.05,0,0,.19,5.06-4,6.92,0,0-9.67-9.85,3-22.32,0,0,12.94-12.41,23.77,5.82Z" style="fill:#263238"></path><path d="M250.38,315.15a7.08,7.08,0,0,1,.74,5.34c-.65,2.39-3.09,2.33-4.68.61-1.44-1.54-2.84-4.65-1.34-6.54A3.17,3.17,0,0,1,250.38,315.15Z" style="fill:#ffc2bc"></path></g></svg>
