<svg xmlns="http://www.w3.org/2000/svg" viewBox="0 0 750 500"><g id="freepik--background-complete--inject-2"><path d="M151,70.06c-2.45-4.74-6.13-8.85-11.5-10.36s-12.79,2.86-12.79,2.86A29,29,0,0,0,120,59.69c-7-1.57-18.12,3.89-19.7,10.65-5.93-3.6-17.59.53-21.38,6.64a28.62,28.62,0,0,0-2.66,6.83S68,86,65.27,91s-2.31,10.39-.63,15.46c.7,2.14,1.52,4.28,2.41,6.4a121.45,121.45,0,0,0,26.44,38.29A16.54,16.54,0,0,0,95,152.38c6.67,5.07,12.85,1.27,16-2,2.51,2.69,5.86,5,9.49,4.57,6.28-.79,9.88-4.34,13.11-5.51l0-.07,0,.06c3.09-1.48,8.15-1.58,13.1-5.52,2.87-2.27,3.53-6.3,3.36-10,4.55,0,11.59-1.78,12.63-10.09.07-.62.12-1.26.13-2a121.46,121.46,0,0,0-8.91-45.66Q152.59,73.07,151,70.06Z" style="fill:#ebebeb"></path><path d="M95.58,69.41c2.25,6.7,1.31,11.36.51,13.62a25.55,25.55,0,0,1,3.61-.57,19.11,19.11,0,0,0,9.79-3.54,27.2,27.2,0,0,1,3.05-2,71.06,71.06,0,0,1-7.28-8,26,26,0,0,1-2-2.9c-2.72-4.62-3.69-9.91-.71-16.41-7.78-8.37-14.19-.82-14.19-.82s.08,5.37,5.48,16.44A35.67,35.67,0,0,1,95.58,69.41Z" style="fill:#e0e0e0"></path><path d="M85.15,92.06c.26,0,0,3.68,1.15,9.44s4,13.36,8.21,21.32a216.51,216.51,0,0,0,11.66,19.85c3.23,4.93,5.31,7.94,5.15,8.06a9.14,9.14,0,0,1-1.73-1.91c-1-1.29-2.5-3.2-4.22-5.61a158.18,158.18,0,0,1-12.08-19.76c-4.2-8-7.11-15.84-7.94-21.78a38.77,38.77,0,0,1-.48-7A8.51,8.51,0,0,1,85.15,92.06Z" style="fill:#e0e0e0"></path><path d="M132.45,147.86c-.35.14-6.42-13.5-13.57-30.47s-12.66-30.86-12.31-31,6.43,13.5,13.57,30.48S132.8,147.71,132.45,147.86Z" style="fill:#e0e0e0"></path><path d="M119.45,74.8a5.53,5.53,0,0,1,2.88-.25,12,12,0,0,1,7,3.55,30.22,30.22,0,0,1,6.56,9.62c1.92,3.9,3.88,8.28,5.7,13A158.63,158.63,0,0,1,149,125.3c.69,3.22,1.13,5.84,1.39,7.66a11.75,11.75,0,0,1,.25,2.86c-.22,0-1-3.95-2.58-10.3a204.6,204.6,0,0,0-7.74-24.34c-1.81-4.65-3.72-9-5.57-12.92a30.61,30.61,0,0,0-6.1-9.47,12.09,12.09,0,0,0-6.42-3.71C120.49,74.75,119.46,74.92,119.45,74.8Z" style="fill:#e0e0e0"></path><path d="M118,75.19a17.6,17.6,0,0,0-4.59,1.88c-1.34.78-2.82,1.89-4.59,3.05a18.71,18.71,0,0,1-6.48,2.56c-2.38.54-4.74.7-6.68,1.1a20.21,20.21,0,0,0-5,1.8C87.9,87,87,88.79,86.8,88.68s.53-2.18,3.36-3.93a17.84,17.84,0,0,1,5.25-2.19c2.13-.52,4.36-.69,6.67-1.22a19.11,19.11,0,0,0,6.1-2.29c1.75-1.06,3.35-2.12,4.8-2.83C115.88,74.68,118.1,75,118,75.19Z" style="fill:#e0e0e0"></path><path d="M125.9,64.79c.11.38-2.73,1.29-5.14,3.85s-3.26,5.39-3.65,5.29-.11-3.38,2.66-6.24S125.9,64.42,125.9,64.79Z" style="fill:#e0e0e0"></path><path d="M78.58,82.58c-.18-.31,3.24-2.24,8-2.52s8.36,1.17,8.22,1.5-3.69-.44-8.13-.13S78.73,83,78.58,82.58Z" style="fill:#e0e0e0"></path><path d="M677.6,48.91A47.38,47.38,0,0,0,640,68.18c-8.57,11.84-13,27.53-8.52,41.42,14-.82,29.06-9.43,37.52-20.68A49.39,49.39,0,0,0,677.6,48.91Z" style="fill:#ebebeb"></path><path d="M668.67,62.07s-.13.18-.41.47L667,63.81c-1.11,1.09-2.69,2.68-4.62,4.68a205,205,0,0,0-26.61,34.17c-1.46,2.36-2.62,4.28-3.41,5.62-.37.63-.68,1.14-.92,1.54a2.32,2.32,0,0,1-.35.52,3.67,3.67,0,0,1,.26-.57l.84-1.58c.73-1.38,1.84-3.34,3.27-5.72a179.85,179.85,0,0,1,12.3-17.92,182.57,182.57,0,0,1,14.36-16.32c2-2,3.59-3.52,4.74-4.57l1.34-1.19A3.4,3.4,0,0,1,668.67,62.07Z" style="fill:#e0e0e0"></path><path d="M584.51,49.91a37.78,37.78,0,0,0,3.28,33.53c6.27,9.82,16.6,17.73,28.23,18.45,3.5-10.67,1.51-24.32-4.35-33.89A39.42,39.42,0,0,0,584.51,49.91Z" style="fill:#f5f5f5"></path><path d="M591.65,60.39s.1.14.24.44.35.79.58,1.31c.48,1.14,1.21,2.77,2.13,4.79a171.14,171.14,0,0,0,8,15.32,165.69,165.69,0,0,0,9.55,14.41c1.31,1.78,2.4,3.21,3.16,4.19l.86,1.14c.19.26.29.4.27.42a2.07,2.07,0,0,1-.35-.36l-.94-1.07c-.81-.94-1.94-2.34-3.3-4.09a145,145,0,0,1-9.7-14.37,141.61,141.61,0,0,1-7.88-15.44c-.89-2-1.56-3.7-2-4.87-.2-.53-.36-1-.49-1.34A2.06,2.06,0,0,1,591.65,60.39Z" style="fill:#e0e0e0"></path><path d="M396.24,59.08s-13.47-5.25-18.48,4-8.23,26.56,13.24,40.1,36.83-13.82,36.83-13.82S427.77,71.43,396.24,59.08Z" style="fill:#e0e0e0"></path><g style="opacity:0.21"><path d="M397.89,90.64c12.45,6.2,22.42,4,28,1.67,1.24-1.75,1.94-3,1.94-3s-.06-17.91-31.59-30.26c0,0-13.47-5.25-18.48,4-.34.62-.67,1.29-1,2C379.28,72.42,385.11,84.27,397.89,90.64Z" style="fill:#263238"></path></g><path d="M401.53,54,390.45,68.84s3.17,10.68,13,14.38,11.4.08,11.4.08l11.4-15.23s-5.76-10-15-14.33S401.53,54,401.53,54Z" style="fill:#e0e0e0"></path><path d="M460.43,45.46s-8.47,7.19-4.06,14,15,15.26,32,5.69,4.11-30,4.11-30S480.3,28.63,460.43,45.46Z" style="fill:#e0e0e0"></path><g style="opacity:0.21"><path d="M482.38,55.87c8.75-6.16,10.92-13.7,11.36-18.33-.73-1.49-1.29-2.4-1.29-2.4s-12.15-6.51-32,10.32c0,0-8.47,7.19-4.06,14,.3.45.63.92,1,1.38C463.26,61.8,473.4,62.19,482.38,55.87Z" style="fill:#263238"></path></g><path d="M458.89,40l6,12.94s8.38,1.76,14.48-3.55,4.22-7.69,4.22-7.69l-6.14-13.27s-8.84.24-15.16,4.88S458.89,40,458.89,40Z" style="fill:#e0e0e0"></path><path d="M683.15,205.85s-10.56-3.46-14,3.84S664,230.44,681,239.92s27.68-12.19,27.68-12.19S707.89,214,683.15,205.85Z" style="fill:#e0e0e0"></path><g style="opacity:0.21"><path d="M685.77,230c9.83,4.23,17.39,2.13,21.57.08.88-1.4,1.36-2.36,1.36-2.36s-.81-13.75-25.55-21.88c0,0-10.56-3.46-14,3.84-.24.5-.46,1-.67,1.57C670.71,216.81,675.69,225.66,685.77,230Z" style="fill:#263238"></path></g><path d="M687,201.68l-7.87,11.91s2.89,8.07,10.61,10.48,8.75-.42,8.75-.42l8.1-12.18s-4.84-7.41-12.1-10.37S687,201.68,687,201.68Z" style="fill:#e0e0e0"></path><polygon points="39.01 398.53 408.35 476.21 719.02 398.85 39.01 398.53" style="fill:#e0e0e0"></polygon><path d="M23.7,224.89a41.39,41.39,0,0,0,22.87,29c11.6,5.35,25.8,6.53,36.94.31-3.08-11.91-13-23.31-24.06-28.66A43.15,43.15,0,0,0,23.7,224.89Z" style="fill:#f5f5f5"></path><path d="M36.49,230.31a2.25,2.25,0,0,1,.48.28l1.3.86c1.12.77,2.76,1.85,4.8,3.16A182.7,182.7,0,0,0,59.51,244a185.17,185.17,0,0,0,17.34,7.63c2.26.86,4.11,1.53,5.39,2l1.47.53a2.1,2.1,0,0,1,.5.22,1.79,1.79,0,0,1-.53-.12l-1.5-.44c-1.31-.39-3.17-1-5.46-1.83a155.94,155.94,0,0,1-33.85-17.06c-2-1.35-3.63-2.49-4.72-3.3l-1.24-1Q36.47,230.34,36.49,230.31Z" style="fill:#e0e0e0"></path></g><g id="freepik--Floor--inject-2"><path d="M733.29,398.53c0,.14-159.08.26-355.27.26s-355.31-.12-355.31-.26,159-.26,355.31-.26S733.29,398.39,733.29,398.53Z" style="fill:#263238"></path></g><g id="freepik--Pot--inject-2"><path d="M505.66,306.38s22.07-33.11,88.17-33.11,90.08,33.11,90.08,33.11Z" style="fill:#e0e0e0"></path><path d="M505.66,306.38l178.25-.26-.21.41a49,49,0,0,0-6.15-6.39c-9.66-8.56-21.07-14.41-32.48-18.52a140.12,140.12,0,0,0-34.22-7.25l-4.15-.4a20.34,20.34,0,0,0-2.06-.13l-2-.06-8.06-.26c-2.65,0-5.25.13-7.82.19l-3.83.12c-1.26,0-2.51.21-3.74.3l-7.3.69c-2.38.29-4.7.74-7,1.09l-3.38.56c-1.11.22-2.19.5-3.27.74-2.15.52-4.27,1-6.31,1.51a125.1,125.1,0,0,0-21.29,8.13,99.16,99.16,0,0,0-14.53,9.22,71.2,71.2,0,0,0-8,7.39c-.82.94-1.45,1.65-1.83,2.16l-.6.76.13-.2c.09-.15.23-.34.42-.59.38-.53,1-1.25,1.8-2.2a67.59,67.59,0,0,1,8-7.47,97.57,97.57,0,0,1,14.52-9.33,124.58,124.58,0,0,1,21.32-8.23c2.05-.53,4.17-1,6.33-1.52,1.08-.25,2.16-.54,3.27-.76l3.39-.56c2.29-.36,4.61-.82,7-1.11l7.31-.71c1.24-.1,2.49-.31,3.76-.31l3.83-.12c2.57-.07,5.19-.21,7.84-.21l8.08.25,2.06.06a17.94,17.94,0,0,1,2.06.13l4.16.39a139.9,139.9,0,0,1,34.35,7.25c11.46,4.12,22.93,10,32.66,18.62a48.42,48.42,0,0,1,6.22,6.47l.32.41h-.53Z" style="fill:#263238"></path><path d="M520.84,398.65,507.91,309.4H681.66l-12.49,78.33a13,13,0,0,1-12.79,10.92Z" style="fill:#455a64"></path><rect x="500.15" y="303.36" width="189.28" height="6.04" rx="1.94" style="fill:#263238"></rect><rect x="569.32" y="268.57" width="50.92" height="6.86" style="fill:#263238"></rect><polygon points="581.36 271.81 577.41 253.63 612.16 253.63 608.24 270.49 581.36 271.81" style="fill:#263238"></polygon><g style="opacity:0.2"><polyline points="554.41 398.35 552.43 279.09 534.96 284.59 539.71 398.7"></polyline></g><path d="M555.93,296.79c8.26-5,18-7,27.71-6.85,10.6.15,21.12,2.11,31.74,2a4.66,4.66,0,0,0,4.45-3.1c1.12-3.49-2.93-5.56-6.19-6.26-14.38-3.08-29.33-2.21-43.88-.08-6.39.94-13.12,2.3-17.81,6.74a11.37,11.37,0,0,0-1.41,1.6c-2.59,3.5,1.56,8.19,5.3,6Z" style="fill:#fff"></path><path d="M620.82,271c0,.15-11.6.26-25.92.26S569,271.12,569,271s11.6-.26,25.92-.26S620.82,270.83,620.82,271Z" style="fill:#455a64"></path><g style="opacity:0.2"><path d="M648.17,341l-12.63-7.51c1.28,6.95,7.07,15.5,13.88,20.66a44.66,44.66,0,0,0,23.66,8.91l1.44-8.14C665.69,353.31,654.09,347.74,648.17,341Z"></path></g><path d="M674.15,348.79q-2.26,0-4.59-.12c-17.57-.91-33-8.17-34.55-17.46l7.77.4c-.12,2.28,9.26,8.35,27.18,9.28,7.95.42,15.44-.33,21.07-2.1s5.75-4.7,5.77-5.26c.09-1.57-4.42-5.45-18.29-7.56l1.17-7.7c12.91,2,26.54,7.36,26.06,16.61-.18,3.45-2.47,8.21-12.37,11.33A65.6,65.6,0,0,1,674.15,348.79Z" style="fill:#455a64"></path><path d="M678.51,326a4.47,4.47,0,0,1,.81.08c.54.08,1.33.17,2.33.36a50.64,50.64,0,0,1,8.39,2.14,20.5,20.5,0,0,1,5.37,2.7,6.24,6.24,0,0,1,1.21,1.2,2,2,0,0,1,.38.85,2.32,2.32,0,0,1-.06.92,5.35,5.35,0,0,1-2.08,3c-2,1.51-4.57,2.13-7.11,2.74a59.32,59.32,0,0,1-8.08,1.15,71.5,71.5,0,0,1-15.73-.56,46.6,46.6,0,0,1-12.32-3.63,26,26,0,0,1-7.24-4.74,7.29,7.29,0,0,1-1.43-1.88,2,2,0,0,1-.18-.59.72.72,0,0,1,0-.22,2.44,2.44,0,0,0,.26.76,7.9,7.9,0,0,0,1.48,1.79,27.3,27.3,0,0,0,7.26,4.55A47.43,47.43,0,0,0,664,340a72.38,72.38,0,0,0,15.61.51,59.88,59.88,0,0,0,8-1.13c2.52-.59,5-1.21,6.93-2.62a4.89,4.89,0,0,0,1.92-2.68,1.49,1.49,0,0,0-.24-1.42,6.08,6.08,0,0,0-1.1-1.11,20.71,20.71,0,0,0-5.23-2.7,56,56,0,0,0-8.31-2.28c-1-.22-1.78-.34-2.3-.46A4.18,4.18,0,0,1,678.51,326Z" style="fill:#263238"></path><path d="M635,330s0,.41.09,1.19a9.16,9.16,0,0,0,1,3.24,14.26,14.26,0,0,0,3.33,4.19,28.08,28.08,0,0,0,5.94,3.93,58.47,58.47,0,0,0,17.81,5.28c1.73.24,3.52.43,5.36.55s3.71.11,5.62.18a77,77,0,0,0,11.78-.87,44.23,44.23,0,0,0,11.33-3.19,19.94,19.94,0,0,0,4.71-2.92,10.4,10.4,0,0,0,3.07-4.24,8.59,8.59,0,0,0,.29-4.93,10.23,10.23,0,0,0-2.22-4.15,22.45,22.45,0,0,0-6.95-5,55.2,55.2,0,0,0-11.9-4c-1.45-.33-2.59-.54-3.36-.7l-.88-.16a1.09,1.09,0,0,1-.29-.08l.3,0,.89.12c.77.12,1.92.3,3.38.6a52.71,52.71,0,0,1,12,3.87,22.28,22.28,0,0,1,7.11,5.07,10.55,10.55,0,0,1,2.34,4.32,9,9,0,0,1-.28,5.21,10.8,10.8,0,0,1-3.19,4.44,20.11,20.11,0,0,1-4.83,3A44.4,44.4,0,0,1,686,348.17a76.82,76.82,0,0,1-11.86.87c-1.92-.07-3.81-.06-5.66-.19s-3.64-.33-5.39-.58a57.89,57.89,0,0,1-17.9-5.42,28.32,28.32,0,0,1-6-4,14.34,14.34,0,0,1-3.31-4.32,8.88,8.88,0,0,1-.89-3.32A6.85,6.85,0,0,1,635,330Z" style="fill:#263238"></path><path d="M643.47,327.63c-.07.05-.4-.38-1.07-.87a5.53,5.53,0,0,0-6.07-.38c-.73.41-1.11.79-1.17.73s.25-.52,1-1a5.22,5.22,0,0,1,6.49.41C643.29,327.08,643.52,327.6,643.47,327.63Z" style="fill:#263238"></path><path d="M677.62,333.87c-.14,0,.64-5.65,1.75-12.57s2.12-12.5,2.26-12.48-.64,5.65-1.75,12.57S677.76,333.89,677.62,333.87Z" style="fill:#263238"></path></g><g id="freepik--Carrots--inject-2"><path d="M332.89,89.44S316.36,34.15,312.53,36s14.66,50.23,14.11,49.46-14.49-21.56-17.7-17.75S327.72,92,327.72,92Z" style="fill:#455a64"></path><path d="M323,106.55a71.28,71.28,0,0,0,6.92,12.58,137.83,137.83,0,0,0,10.92,14.49c4.22,4.94,8.54,9.57,12.43,13.93,2,2.18,3.8,4.29,5.49,6.31a57.83,57.83,0,0,1,4.53,6.2c1.21,2,2.28,3.77,3.18,5.33.18-7-3-21.5-7.19-36.2-.44-1.52-.88-3-1.34-4.55a271.58,271.58,0,0,0-9.85-27.85c-.91-2.1-1.78-3.92-2.6-5.48-.49-.92-1-1.73-1.4-2.43a15.53,15.53,0,0,0-1.25-1.75c-.88-1-1.63-1.38-2.21-1,0,0-17.21,0-22.85,8.17a11.52,11.52,0,0,1,1.57,2.55C320.52,99.22,321.52,102.85,323,106.55Z" style="fill:#7E7E9E"></path><path d="M357.14,165.06c-1.37-1.33-2.81-2.72-4.35-4.09a59.22,59.22,0,0,0,6.89,6.64c.21.17.41.3.62.45C359.28,167.13,358.24,166.15,357.14,165.06Z" style="fill:#7E7E9E"></path><g style="opacity:0.30000000000000004"><path d="M360.3,168.06a10.49,10.49,0,0,0,3.21,1.75,10.49,10.49,0,0,1-3.21-1.75Z"></path></g><g style="opacity:0.30000000000000004"><path d="M348.87,156.47q-2-2.44-4.13-5.15Q346.84,154,348.87,156.47Z"></path></g><g style="opacity:0.30000000000000004"><path d="M340.51,145.7c-1.42-1.93-2.83-3.91-4.22-5.92C337.68,141.79,339.09,143.77,340.51,145.7Z"></path></g><g style="opacity:0.30000000000000004"><path d="M366.47,165.39h0a12.68,12.68,0,0,1-.26,2.55A12.68,12.68,0,0,0,366.47,165.39Z"></path></g><g style="opacity:0.30000000000000004"><path d="M332.21,133.71c-1.34-2-2.63-4.06-3.86-6.07C329.58,129.65,330.87,131.68,332.21,133.71Z"></path></g><path d="M360.3,168.06a10.49,10.49,0,0,0,3.21,1.75,2.15,2.15,0,0,0,1.72-.14,2.7,2.7,0,0,0,1-1.73,12.68,12.68,0,0,0,.26-2.55c-.9-1.56-2-3.33-3.18-5.33a57.83,57.83,0,0,0-4.53-6.2c-1.69-2-3.54-4.13-5.49-6.31-3.89-4.36-8.21-9-12.43-13.93a137.83,137.83,0,0,1-10.92-14.49A71.28,71.28,0,0,1,323,106.55c-1.48-3.7-2.48-7.33-3.65-9.69a11.52,11.52,0,0,0-1.57-2.55,10.26,10.26,0,0,0-1.74,6.86c.42,5.19,5.51,15.44,12.31,26.47,1.23,2,2.52,4,3.86,6.07s2.69,4.07,4.08,6.07,2.8,4,4.22,5.92,2.82,3.81,4.23,5.62,2.78,3.52,4.13,5.15,2.66,3.12,3.92,4.5c1.54,1.37,3,2.76,4.35,4.09C358.24,166.15,359.28,167.13,360.3,168.06Z" style="fill:#7E7E9E"></path><g style="opacity:0.30000000000000004"><path d="M360.3,168.06a10.49,10.49,0,0,0,3.21,1.75,2.15,2.15,0,0,0,1.72-.14,2.7,2.7,0,0,0,1-1.73,12.68,12.68,0,0,0,.26-2.55c-.9-1.56-2-3.33-3.18-5.33a57.83,57.83,0,0,0-4.53-6.2c-1.69-2-3.54-4.13-5.49-6.31-3.89-4.36-8.21-9-12.43-13.93a137.83,137.83,0,0,1-10.92-14.49A71.28,71.28,0,0,1,323,106.55c-1.48-3.7-2.48-7.33-3.65-9.69a11.52,11.52,0,0,0-1.57-2.55,10.26,10.26,0,0,0-1.74,6.86c.42,5.19,5.51,15.44,12.31,26.47,1.23,2,2.52,4,3.86,6.07s2.69,4.07,4.08,6.07,2.8,4,4.22,5.92,2.82,3.81,4.23,5.62,2.78,3.52,4.13,5.15,2.66,3.12,3.92,4.5c1.54,1.37,3,2.76,4.35,4.09C358.24,166.15,359.28,167.13,360.3,168.06Z"></path></g><g style="opacity:0.24"><path d="M348.62,106.21c.47.45-3.66,4.41-10.06,6.46s-11.5,2.86-11.67,2.35,4.84-2.47,10.93-4.47S348.21,105.75,348.62,106.21Z" style="fill:#fff"></path></g><g style="opacity:0.24"><path d="M336.55,100c.12.57-2.73,2-6.52,3.43s-7.38,1.51-7.42.86,2.94-1.54,6.65-3S336.4,99.31,336.55,100Z" style="fill:#fff"></path></g><g style="opacity:0.24"><path d="M342.7,97.57c.18.59-.36,1.28-1.2,1.54s-1.68,0-1.86-.6.36-1.28,1.2-1.54A1.43,1.43,0,0,1,342.7,97.57Z" style="fill:#fff"></path></g><g style="opacity:0.24"><path d="M343.87,119.47c-.2-.61,2-1.73,4.68-2.5s4.88-1.28,5.19-.75-1.71,2.12-4.55,2.9S344.06,120,343.87,119.47Z" style="fill:#fff"></path></g><g style="opacity:0.24"><path d="M342.36,121.63c.19.59-1.43,1.52-3.61,2.07s-4,.51-4.14-.1,1.51-1.54,3.61-2.07S342.17,121,342.36,121.63Z" style="fill:#fff"></path></g><g style="opacity:0.24"><path d="M339.48,130.65c.06-.47,3.53-.9,7.65-2.67s7.67-3,7.88-2.47-2.9,2.43-7.19,4.21S339.39,131.23,339.48,130.65Z" style="fill:#fff"></path></g><g style="opacity:0.24"><path d="M354.81,135.41c.5.4,0,1.53-1,1.93s-1.74.17-2-.36.35-1.38,1.16-1.7A1.83,1.83,0,0,1,354.81,135.41Z" style="fill:#fff"></path></g><g style="opacity:0.24"><path d="M360.22,143.29c.43.49-1.07,2.43-3.5,2.64s-4.26-.3-4.34-.87,1.75-1.05,3.88-1.31S359.86,142.85,360.22,143.29Z" style="fill:#fff"></path></g><path d="M634,164.63s44.86-36.3,41.73-39.16-40.89,32.64-40.39,31.84,14.45-21.59,9.7-23.11-15.36,26.61-15.36,26.61Z" style="fill:#455a64"></path><path d="M614.42,162a71,71,0,0,0-9,11.18,138.53,138.53,0,0,0-9.25,15.6c-3,5.78-5.61,11.53-8.16,16.8-1.28,2.63-2.53,5.13-3.76,7.47a56.76,56.76,0,0,1-4,6.54q-2.09,2.82-3.72,5c6.59-2.51,18.76-10.91,30.75-20.41,1.24-1,2.48-2,3.7-3a269.38,269.38,0,0,0,22-19.7c1.6-1.63,2.95-3.13,4.08-4.48.67-.8,1.24-1.54,1.72-2.22a14.76,14.76,0,0,0,1.14-1.82c.6-1.2.67-2,.08-2.42,0,0-6.5-15.93-16.24-18a10.79,10.79,0,0,1-1.76,2.42C620.26,156.9,617.28,159.2,614.42,162Z" style="fill:#7E7E9E"></path><path d="M573.27,215.78c.71-1.77,1.44-3.63,2.12-5.57a58.49,58.49,0,0,0-3.52,8.89c-.08.26-.12.49-.18.74C572.17,218.55,572.68,217.21,573.27,215.78Z" style="fill:#7E7E9E"></path><g style="opacity:0.30000000000000004"><path d="M571.69,219.84a10.63,10.63,0,0,0-.4,3.63,10.63,10.63,0,0,1,.4-3.63Z"></path></g><g style="opacity:0.30000000000000004"><path d="M578.08,204.87c1-1.87,2-3.8,3.19-5.78C580.13,201.07,579.06,203,578.08,204.87Z"></path></g><g style="opacity:0.30000000000000004"><path d="M584.85,193c1.25-2,2.55-4.1,3.88-6.14C587.4,188.94,586.1,191,584.85,193Z"></path></g><g style="opacity:0.30000000000000004"><path d="M576.51,224.54h0a13.49,13.49,0,0,1-2.46.73A13.49,13.49,0,0,0,576.51,224.54Z"></path></g><g style="opacity:0.30000000000000004"><path d="M592.79,180.81c1.38-2,2.77-4,4.15-5.88C595.56,176.84,594.17,178.81,592.79,180.81Z"></path></g><path d="M571.69,219.84a10.63,10.63,0,0,0-.4,3.63,2.17,2.17,0,0,0,.79,1.55,2.71,2.71,0,0,0,2,.25,13.49,13.49,0,0,0,2.46-.73q1.63-2.14,3.72-5a56.76,56.76,0,0,0,4-6.54c1.23-2.34,2.48-4.84,3.76-7.47,2.55-5.27,5.19-11,8.16-16.8a138.53,138.53,0,0,1,9.25-15.6,71,71,0,0,1,9-11.18c2.86-2.78,5.84-5.08,7.58-7.07a10.79,10.79,0,0,0,1.76-2.42,10.31,10.31,0,0,0-7,1c-4.64,2.36-12.19,11-19.82,21.44-1.38,1.91-2.77,3.88-4.15,5.88s-2.73,4-4.06,6.09-2.63,4.1-3.88,6.14-2.44,4.07-3.58,6.05-2.21,3.91-3.19,5.78-1.88,3.64-2.69,5.34c-.68,1.94-1.41,3.8-2.12,5.57C572.68,217.21,572.17,218.55,571.69,219.84Z" style="fill:#7E7E9E"></path><g style="opacity:0.30000000000000004"><path d="M571.69,219.84a10.63,10.63,0,0,0-.4,3.63,2.17,2.17,0,0,0,.79,1.55,2.71,2.71,0,0,0,2,.25,13.49,13.49,0,0,0,2.46-.73q1.63-2.14,3.72-5a56.76,56.76,0,0,0,4-6.54c1.23-2.34,2.48-4.84,3.76-7.47,2.55-5.27,5.19-11,8.16-16.8a138.53,138.53,0,0,1,9.25-15.6,71,71,0,0,1,9-11.18c2.86-2.78,5.84-5.08,7.58-7.07a10.79,10.79,0,0,0,1.76-2.42,10.31,10.31,0,0,0-7,1c-4.64,2.36-12.19,11-19.82,21.44-1.38,1.91-2.77,3.88-4.15,5.88s-2.73,4-4.06,6.09-2.63,4.1-3.88,6.14-2.44,4.07-3.58,6.05-2.21,3.91-3.19,5.78-1.88,3.64-2.69,5.34c-.68,1.94-1.41,3.8-2.12,5.57C572.68,217.21,572.17,218.55,571.69,219.84Z"></path></g><g style="opacity:0.24"><path d="M624.47,185.54c-.23.61-5.47-1.7-9.8-6.85s-7-9.54-6.6-9.9,4.12,3.54,8.28,8.41S624.74,185,624.47,185.54Z" style="fill:#fff"></path></g><g style="opacity:0.24"><path d="M625.67,172c-.48.33-2.86-1.77-5.65-4.73s-4.19-6.25-3.61-6.53,2.54,2.13,5.27,5S626.21,171.62,625.67,172Z" style="fill:#fff"></path></g><g style="opacity:0.24"><path d="M630.21,176.78c-.48.4-1.32.16-1.88-.52s-.63-1.55-.15-1.94,1.32-.16,1.88.52S630.69,176.39,630.21,176.78Z" style="fill:#fff"></path></g><g style="opacity:0.24"><path d="M610.4,186.19c.48-.42,2.35,1.16,4.09,3.38s3,4,2.66,4.51-2.6-.77-4.41-3.1S609.94,186.58,610.4,186.19Z" style="fill:#fff"></path></g><g style="opacity:0.24"><path d="M607.83,185.61c-.48.4-2-.74-3.29-2.55s-2-3.55-1.48-3.87,2,.82,3.29,2.55S608.3,185.21,607.83,185.61Z" style="fill:#fff"></path></g><g style="opacity:0.24"><path d="M598.39,186.38c.46-.13,2.17,2.92,5.38,6.05s5.68,6,5.27,6.36-3.35-1.76-6.62-5.06S597.82,186.51,598.39,186.38Z" style="fill:#fff"></path></g><g style="opacity:0.24"><path d="M599.81,202.36c-.18.61-1.42.59-2.18-.21s-.82-1.55-.44-2,1.41-.2,2,.42A1.81,1.81,0,0,1,599.81,202.36Z" style="fill:#fff"></path></g><g style="opacity:0.24"><path d="M594.58,210.36c-.29.59-2.65-.06-3.78-2.23s-1.34-4-.84-4.35,1.64,1.22,2.69,3.09S594.85,209.86,594.58,210.36Z" style="fill:#fff"></path></g></g><g id="freepik--olive-oil--inject-2"><polygon points="90.66 221.31 67.04 221.31 63.56 196.29 93.78 196.29 90.66 221.31" style="fill:#455a64"></polygon><path d="M145.4,236.78c-3.49-7.6-10.26-12.63-20.12-14.93-8.43-2-15.69-.68-21.58,3.81a29.5,29.5,0,0,0-8.06,9.91A89.6,89.6,0,0,1,98,212.62c0-1-46.54,0-46.54,0s19.16,15,18.81,26.85c-.21,7.06-1,13.8-18.81,36.37C33.06,299,20.84,322.73,25,340.8s25,54.53,30.22,57.66h56.62s26.74-47.59,27.79-66c.44-7.91-3.09-17.88-8.48-28.3,1.56-9.31,5.67-19.58,9.58-27.05C142,274.7,152.86,253.08,145.4,236.78Zm-11.88,36.55a117.63,117.63,0,0,0-8.28,20.33c-6.34-10.48-13.81-20.88-20.34-29.63a43.8,43.8,0,0,1-6.24-11.89c1.24-6.64,4.12-15.53,10-20,3.92-3,8.76-3.76,14.79-2.35,7.38,1.72,12.14,5.12,14.55,10.39C142.74,250.57,137.14,266.41,133.52,273.33Z" style="fill:#ebebeb"></path><path d="M145.4,236.78c-3.49-7.6-10.26-12.63-20.12-14.93-8.43-2-15.69-.68-21.58,3.81a29.5,29.5,0,0,0-8.06,9.91A89.6,89.6,0,0,1,98,212.62c0-1-46.54,0-46.54,0s19.16,15,18.81,26.85c-.21,7.06-1,13.8-18.81,36.37C33.06,299,20.84,322.73,25,340.8s25,54.53,30.22,57.66h56.62s26.74-47.59,27.79-66c.44-7.91-3.09-17.88-8.48-28.3,1.56-9.31,5.67-19.58,9.58-27.05C142,274.7,152.86,253.08,145.4,236.78Zm-11.88,36.55a117.63,117.63,0,0,0-8.28,20.33c-6.34-10.48-13.81-20.88-20.34-29.63a43.8,43.8,0,0,1-6.24-11.89c1.24-6.64,4.12-15.53,10-20,3.92-3,8.76-3.76,14.79-2.35,7.38,1.72,12.14,5.12,14.55,10.39C142.74,250.57,137.14,266.41,133.52,273.33Z" style="fill:none"></path><path d="M133.52,273.33a2.3,2.3,0,0,1,.16-.39l.53-1.11c.44-1,1.1-2.45,1.8-4.38a64.23,64.23,0,0,0,2.22-7.15,44.46,44.46,0,0,0,1.38-9.78A22.47,22.47,0,0,0,137.13,239a15.76,15.76,0,0,0-4.36-4.91,22.57,22.57,0,0,0-6.25-3.17,29.33,29.33,0,0,0-7.23-1.51,16,16,0,0,0-7.51,1.18,16.12,16.12,0,0,0-6.14,4.92,29.71,29.71,0,0,0-4,7.17,51,51,0,0,0-2.72,9.51v-.14a44.11,44.11,0,0,0,6.62,12.4c2.72,3.66,5.31,7.22,7.71,10.63,4.82,6.82,8.92,13.09,12.16,18.48l-.32.05a112.65,112.65,0,0,1,5.79-15.07c.8-1.71,1.47-3,1.93-3.89l.53-1a1.5,1.5,0,0,1,.2-.33,3.45,3.45,0,0,1-.15.35c-.13.25-.29.58-.49,1-.43.89-1.07,2.21-1.84,3.94a117.64,117.64,0,0,0-5.63,15.08l-.11.38-.21-.34c-3.27-5.37-7.4-11.61-12.23-18.4-2.42-3.4-5-7-7.74-10.61a44.35,44.35,0,0,1-6.71-12.52l0-.06v-.07a52.69,52.69,0,0,1,2.74-9.6,30.32,30.32,0,0,1,4.09-7.3,15.53,15.53,0,0,1,14.09-6.28,29.57,29.57,0,0,1,7.35,1.56,22.3,22.3,0,0,1,6.37,3.26,16.15,16.15,0,0,1,4.47,5.06A22.87,22.87,0,0,1,140,250.53a45.1,45.1,0,0,1-1.46,9.84,61.13,61.13,0,0,1-2.32,7.15c-.73,1.93-1.43,3.37-1.9,4.35l-.57,1.09A2.42,2.42,0,0,1,133.52,273.33Z" style="fill:#263238"></path><path d="M145.4,236.78s.16.38.46,1.14a20.57,20.57,0,0,1,1.14,3.42,36.53,36.53,0,0,1,.72,13.87,67.67,67.67,0,0,1-6.47,21.2,115.18,115.18,0,0,0-5.71,12.71,83.73,83.73,0,0,0-4.21,15.07v-.1c3.12,6.14,6.27,12.89,7.85,20.54a33.62,33.62,0,0,1,.69,5.88,28.83,28.83,0,0,1-.57,6.05,84.07,84.07,0,0,1-3.5,12c-2.92,8-6.55,16.19-10.55,24.52s-8.41,16.83-13.18,25.45l-.07.13H55.15l0,0a12.64,12.64,0,0,1-2.54-2.52c-.75-.91-1.45-1.85-2.14-2.81-1.36-1.92-2.65-3.9-3.91-5.91-2.51-4-4.89-8.17-7.18-12.41a206.7,206.7,0,0,1-12.27-26.57c-.59-1.7-1.18-3.39-1.66-5.12-.25-.86-.46-1.74-.67-2.61l-.45-2.65a21.72,21.72,0,0,1-.25-2.67,19.84,19.84,0,0,1-.06-2.67l.09-2.67.33-2.64c.06-.44.1-.88.18-1.32l.26-1.29.54-2.59.7-2.54.35-1.27.43-1.24.85-2.48c.28-.82.64-1.62,1-2.42s.64-1.62,1-2.41l1.09-2.35c5.92-12.51,13.88-23.52,22-33.76a171.94,171.94,0,0,0,11.11-15.71,54.31,54.31,0,0,0,4.24-8.32,27.3,27.3,0,0,0,1.87-8.91,14.76,14.76,0,0,0-.27-4.46,19.79,19.79,0,0,0-1.51-4.17,39.53,39.53,0,0,0-4.78-7.38,82.75,82.75,0,0,0-12.1-12l-.46-.38h.59c13.4-.26,26-.48,37.67-.42l4.33.06a37.9,37.9,0,0,1,4.26.26,1.62,1.62,0,0,1,.3.09s.05,0,.12.09.06.17,0,.17l0,.15c0,.19-.07.35-.1.53l-.22,1-.42,2c-.27,1.34-.5,2.68-.69,4a81.37,81.37,0,0,0-.88,15.21l-.3-.07A28.93,28.93,0,0,1,104.38,225a22.89,22.89,0,0,1,11.44-4.07A31.66,31.66,0,0,1,126.3,222a35.06,35.06,0,0,1,8.19,3.18,24.65,24.65,0,0,1,8.91,8,17.38,17.38,0,0,1,.94,1.54,11.24,11.24,0,0,1,.61,1.14l.45.95s-.17-.31-.49-.93c-.15-.31-.36-.69-.63-1.13s-.57-.95-1-1.52a24.65,24.65,0,0,0-8.91-7.87,34.72,34.72,0,0,0-8.17-3.12,31.56,31.56,0,0,0-10.4-1,22.54,22.54,0,0,0-11.3,4.05,28.73,28.73,0,0,0-8.76,10.43l-.27.53,0-.6a81.25,81.25,0,0,1,.85-15.28c.19-1.32.42-2.66.68-4l.42-2,.22-1,.1-.5,0-.11h0c-.14,0,.19,0,.13,0a.07.07,0,0,0-.06,0c0,.08,0,.07,0,.06a1,1,0,0,0-.2-.06,38.25,38.25,0,0,0-4.2-.24l-4.33-.06c-11.66,0-24.26.2-37.65.48l.13-.39a83.26,83.26,0,0,1,12.19,12.08A39.69,39.69,0,0,1,68.57,232a20.4,20.4,0,0,1,1.54,4.28,15.32,15.32,0,0,1,.3,4.58,28.21,28.21,0,0,1-1.9,9.06,54,54,0,0,1-4.28,8.4A171.6,171.6,0,0,1,53.1,274.07c-8.07,10.23-16,21.21-21.89,33.66l-1.08,2.35c-.35.78-.66,1.59-1,2.39s-.67,1.59-1,2.41l-.84,2.46-.42,1.23-.35,1.26-.7,2.52-.53,2.56-.26,1.29c-.08.43-.12.87-.17,1.3l-.33,2.61-.09,2.63a19.4,19.4,0,0,0,.06,2.64,23.36,23.36,0,0,0,.24,2.63l.45,2.61c.21.86.41,1.72.67,2.57.47,1.72,1.05,3.41,1.64,5.1a206.72,206.72,0,0,0,12.23,26.5c2.29,4.22,4.67,8.36,7.17,12.38,1.25,2,2.54,4,3.89,5.88.68.95,1.38,1.89,2.11,2.79a12.17,12.17,0,0,0,2.41,2.4l-.13,0,56.62,0-.21.12c4.78-8.61,9.17-17.11,13.19-25.42s7.64-16.45,10.56-24.46a83.7,83.7,0,0,0,3.5-12,27.42,27.42,0,0,0,.57-6,33,33,0,0,0-.66-5.82c-1.56-7.58-4.68-14.33-7.79-20.46l0-.05v-.05A82.32,82.32,0,0,1,135.26,289,114.48,114.48,0,0,1,141,276.29a67.85,67.85,0,0,0,6.53-21.1,36.84,36.84,0,0,0-.63-13.82,20.47,20.47,0,0,0-1.1-3.43C145.53,237.18,145.4,236.78,145.4,236.78Z" style="fill:#263238"></path><path d="M119.59,297.66c7.25,11.4,11.35,18.67,12.72,23.83,3.34,12.51-2.78,25.3-5.56,31.14s-17,40-22.25,42.3-13.62-4.76-22.58-5.31-16.62,5.84-20.24,5.28-25-32.26-29.75-56.17c-2.36-12,2.36-25.3,8.31-36.46,0,0,19.22-3.36,35.76-.2S119.59,297.66,119.59,297.66Z" style="fill:#7E7E9E"></path><path d="M95.24,260.32s.22.28.63.84l1.77,2.5c1.56,2.21,3.83,5.48,6.72,9.71s6.4,9.44,10.38,15.54,8.44,13.09,13,21.08c.58,1,1.12,2,1.66,3.06s1.14,2.07,1.62,3.17a30.24,30.24,0,0,1,2.57,6.91,35.37,35.37,0,0,1-.39,15.56,74.17,74.17,0,0,1-5.89,15.64c-2.35,5.23-4.69,10.66-7.22,16.17s-5.17,11.13-8.21,16.72q-1.14,2.08-2.41,4.14a27.83,27.83,0,0,1-2.85,3.95,4.54,4.54,0,0,1-2.06,1.45l-.61.19c-.21.05-.42.06-.63.09l-.63.06-.63,0A17.85,17.85,0,0,1,97.17,396c-3.12-1.11-6.14-2.53-9.33-3.5a21.49,21.49,0,0,0-9.88-1,37.15,37.15,0,0,0-9.7,3.09,37.65,37.65,0,0,1-4.88,1.89,7.49,7.49,0,0,1-1.34.22l-.7,0a2.4,2.4,0,0,1-.69-.3,11,11,0,0,1-2-1.79,75.29,75.29,0,0,1-6.35-8.32q-2.89-4.31-5.48-8.72a174.46,174.46,0,0,1-9.2-17.92,103.8,103.8,0,0,1-6.31-18.38,40.33,40.33,0,0,1,.16-18.55,76.43,76.43,0,0,1,6-16.67,125.06,125.06,0,0,1,8.34-14.5c3-4.5,6.08-8.69,9.19-12.61s6.45-7.4,9.17-11.08A57.44,57.44,0,0,0,71,256.68a37.64,37.64,0,0,0,3.15-11.13,30.51,30.51,0,0,0-.56-10,34.43,34.43,0,0,0-1.27-4.27,37.67,37.67,0,0,0-5.41-9.34,41.59,41.59,0,0,0-3.31-3.72c-1-1-1.73-1.63-2.26-2.07l-.8-.67s.29.19.83.63a29.29,29.29,0,0,1,2.3,2A39.18,39.18,0,0,1,67,221.8a35.38,35.38,0,0,1,3.77,5.68,39.39,39.39,0,0,1,1.73,3.68,32.34,32.34,0,0,1,1.3,4.3,30.38,30.38,0,0,1,.61,10.12,37.52,37.52,0,0,1-3.14,11.23A56.94,56.94,0,0,1,64.51,268c-2.73,3.7-6,7.21-9.15,11.1s-6.2,8.11-9.15,12.61a126.56,126.56,0,0,0-8.29,14.46,76.57,76.57,0,0,0-6,16.57,40.12,40.12,0,0,0-.14,18.34,104.24,104.24,0,0,0,6.3,18.29,171.3,171.3,0,0,0,9.18,17.85q2.58,4.41,5.46,8.7a74.93,74.93,0,0,0,6.3,8.25,10.33,10.33,0,0,0,1.88,1.7,1.75,1.75,0,0,0,.5.24l.6,0a6.6,6.6,0,0,0,1.23-.21,37.39,37.39,0,0,0,4.8-1.85,37.77,37.77,0,0,1,9.84-3.14A22,22,0,0,1,88,392c3.24,1,6.26,2.41,9.35,3.51a17,17,0,0,0,4.7,1.1l.6,0,.58-.06a5.73,5.73,0,0,0,.58-.07l.56-.18a4,4,0,0,0,1.85-1.31,28.24,28.24,0,0,0,2.8-3.87q1.26-2,2.39-4.12c3-5.56,5.68-11.18,8.21-16.68s4.88-10.92,7.24-16.17a73.12,73.12,0,0,0,5.89-15.54,35,35,0,0,0,.42-15.37,29.84,29.84,0,0,0-2.52-6.83c-.48-1.1-1.08-2.12-1.61-3.17s-1.08-2.06-1.65-3.05c-4.49-8-8.95-15-12.89-21.1s-7.43-11.34-10.3-15.59l-6.63-9.76-1.74-2.53C95.43,260.62,95.24,260.32,95.24,260.32Z" style="fill:#263238"></path><g style="opacity:0.5"><path d="M69.74,270.69a88.56,88.56,0,0,0-29.57,54.37,122.21,122.21,0,0,0,18.69,2c2.22.06,4.73,0,6.25-1.66s1.43-4.49,1.19-6.88c-1.6-15.46-.71-32.86,3.44-47.84" style="fill:#fff"></path></g><g style="opacity:0.5"><path d="M63.44,385.53a310.24,310.24,0,0,1-18.79-39.28c-1.14-2.88-2.17-6.35-.38-8.88s5.16-2.7,8.14-2.74,6.19,0,8.33,2.05,2.42,5.49,2.47,8.54q.33,18.82.65,37.67" style="fill:#fff"></path></g><path d="M92.94,214.11c0,.14-7.69.26-17.18.26s-17.18-.12-17.18-.26,7.69-.26,17.18-.26S92.94,214,92.94,214.11Z" style="fill:#fff"></path><path d="M124.12,224.49c0,.1-1.71-.35-4.49-.42a23.7,23.7,0,0,0-19,8.72c-1.77,2.16-2.53,3.73-2.62,3.68a4.82,4.82,0,0,1,.51-1.11,19.18,19.18,0,0,1,1.82-2.8,22.85,22.85,0,0,1,19.35-8.86,19.72,19.72,0,0,1,3.31.45A4.57,4.57,0,0,1,124.12,224.49Z" style="fill:#fff"></path><path d="M144.6,252a25.62,25.62,0,0,1-.16-2.76,28.84,28.84,0,0,0-3.85-12.57c-.85-1.47-1.48-2.32-1.41-2.38a10.23,10.23,0,0,1,1.72,2.19,24.46,24.46,0,0,1,3.91,12.74A10.16,10.16,0,0,1,144.6,252Z" style="fill:#fff"></path><path d="M76.59,248.18a7.56,7.56,0,0,1-.1,2.26,30.65,30.65,0,0,1-3.27,10.4A8,8,0,0,1,72,262.76c-.14-.08,1.56-3.09,2.82-7.13S76.43,248.16,76.59,248.18Z" style="fill:#fff"></path><g style="opacity:0.2"><path d="M119.61,319c-3.91.95-5.83,5.26-7,9.09-2.53,7.87-4.49,16-8.38,23.3S94,365.2,86,367.17c-2.24.55-4.59.74-6.69,1.69s-4,2.93-3.85,5.23a5.53,5.53,0,0,0,3.83,4.54,16.44,16.44,0,0,0,6.22.58c6.17-.22,12.72-.57,17.81-4.08,4.58-3.16,7.21-8.38,9.65-13.38,3.16-6.45,6.33-12.95,8.34-19.86S129,320.24,119.61,319" style="fill:#fff"></path></g></g></svg>
