<svg xmlns="http://www.w3.org/2000/svg" viewBox="0 0 500 500"><g id="freepik--background-complete--inject-11"><path d="M106.14,317.85a37,37,0,1,1,37-37A37,37,0,0,1,106.14,317.85Zm0-72.28a35.32,35.32,0,1,0,35.31,35.32A35.36,35.36,0,0,0,106.14,245.57Z" style="fill:#ebebeb"></path><path d="M104.28,323.08c-.56,0-1.12-.06-1.68-.1l.14-1.64c.53,0,1.07.08,1.61.1Zm5.88-.15L110,321.3c.54-.05,1.07-.12,1.61-.19l.22,1.63C111.28,322.82,110.73,322.88,110.16,322.93Zm-13.38-.85c-.55-.12-1.09-.26-1.64-.4l.43-1.59c.52.14,1.05.27,1.57.39Zm20.83-.53-.45-1.59c.52-.14,1-.3,1.55-.47l.51,1.57Zm-28-1.8c-.52-.22-1-.45-1.54-.69l.7-1.49c.49.24,1,.46,1.48.67Zm35.09-.9-.72-1.48c.49-.24,1-.48,1.44-.74l.78,1.45C125.68,318.34,125.18,318.6,124.67,318.85Zm-41.76-2.68c-.47-.31-.94-.63-1.39-1l1-1.34c.43.32.88.63,1.33.92Zm48.23-1.24-1-1.33,1.28-1,1,1.28C132,314.25,131.59,314.6,131.14,314.93ZM77,311.45c-.41-.39-.81-.78-1.2-1.19L77,309.12c.38.39.76.77,1.15,1.14Zm59.82-1.53-1.19-1.13c.37-.39.73-.79,1.09-1.2l1.23,1.08C137.57,309.1,137.2,309.51,136.81,309.92ZM72,305.76c-.33-.45-.65-.91-1-1.38l1.37-.91c.3.44.61.89.93,1.32ZM141.5,304l-1.37-.9c.29-.45.58-.91.86-1.37l1.41.84C142.11,303,141.81,303.51,141.5,304Zm-73.39-4.7c-.25-.51-.48-1-.71-1.53l1.51-.66c.22.5.44,1,.67,1.47Zm77-2-1.51-.64c.21-.5.41-1,.6-1.51l1.54.58C145.49,296.26,145.28,296.78,145.06,297.3Zm-79.63-5.1c-.15-.54-.28-1.08-.41-1.63l1.6-.38c.12.53.25,1.05.4,1.57Zm81.93-2.12-1.6-.36c.12-.52.22-1.05.32-1.58l1.62.29C147.6,289,147.49,289.53,147.36,290.08Zm-83.28-5.32q-.08-.84-.12-1.68L65.6,283q0,.81.12,1.62Zm84.25-2.19-1.64-.06q0-.81,0-1.62v-.17h1.65v.16C148.37,281.46,148.36,282,148.33,282.57ZM65.7,277.33l-1.64-.14c0-.56.11-1.12.18-1.67l1.63.2C65.81,276.26,65.75,276.79,65.7,277.33Zm80.61-2.25c-.08-.53-.16-1.07-.26-1.59l1.62-.3c.1.55.19,1.1.27,1.66ZM67,270.17l-1.59-.43q.23-.81.48-1.62l1.57.5C67.27,269.13,67.12,269.65,67,270.17ZM144.64,268c-.18-.52-.36-1-.55-1.53l1.54-.58c.2.52.39,1.05.57,1.58Zm-75.12-4.65L68,262.65c.24-.51.49-1,.76-1.51l1.45.77C70,262.39,69.75,262.87,69.52,263.36Zm72.2-2c-.26-.47-.53-.94-.81-1.4l1.41-.85c.29.48.57,1,.84,1.46Zm-68.48-4.24-1.33-1c.33-.45.67-.9,1-1.34l1.29,1C73.89,256.24,73.56,256.67,73.24,257.11Zm64.42-1.79q-.51-.63-1-1.23l1.24-1.09c.37.42.73.85,1.08,1.28ZM78,251.62l-1.14-1.19c.41-.39.82-.77,1.24-1.14l1.09,1.23C78.81,250.88,78.41,251.24,78,251.62Zm54.57-1.51c-.41-.36-.83-.7-1.25-1l1-1.29c.44.35.87.7,1.3,1.07Zm-48.9-3-.91-1.37,1.42-.91.86,1.41C84.6,246.48,84.14,246.77,83.69,247.07Zm43-1.2-1.41-.79.77-1.45c.5.27,1,.54,1.47.83ZM90.08,243.6l-.65-1.51c.51-.22,1-.43,1.55-.63l.6,1.53C91.07,243.19,90.57,243.39,90.08,243.6Zm30-.83c-.51-.19-1-.36-1.54-.53l.51-1.57c.53.18,1.07.36,1.59.55ZM97,241.34l-.37-1.6c.54-.13,1.09-.24,1.65-.35l.3,1.62C98,241.11,97.51,241.22,97,241.34Zm16.07-.45c-.53-.09-1.06-.17-1.6-.24l.21-1.63c.56.07,1.12.16,1.67.25Zm-8.87-.54-.08-1.64c.56,0,1.12,0,1.69-.05v1.65C105.27,240.31,104.73,240.32,104.19,240.35Z" style="fill:#ebebeb"></path><polygon points="100.47 303.75 111.86 303.75 111.86 286.57 129.04 286.57 129.04 275.18 111.86 275.18 111.86 258 100.47 258 100.47 275.18 83.29 275.18 83.29 286.57 100.47 286.57 100.47 303.75" style="fill:#ebebeb"></polygon><path d="M416.83,129.39a71.81,71.81,0,0,1-23.06,20,71.76,71.76,0,0,1-23-20c-8.12-10.74-7.72-27.56,3.89-31.2,12.84-4,19.15,15.31,19.15,15.31s6.4-19.45,19.16-15.31C424.5,102,424.94,118.65,416.83,129.39Z" style="fill:#ebebeb"></path><polygon points="384.72 140.9 381.22 126.33 378.93 131.47 364.8 131.47 364.8 129.82 377.87 129.82 381.68 121.23 384.41 132.59 388.27 109.05 391.68 127.67 394.37 119.9 398.61 132.63 399.55 129.82 422.77 129.82 422.77 131.46 400.74 131.46 398.61 137.82 394.34 125.01 391.18 134.13 388.36 118.68 384.72 140.9" style="fill:#fff"></polygon><path d="M393.81,156.3a37,37,0,1,1,37-37A37,37,0,0,1,393.81,156.3Zm0-72.28a35.32,35.32,0,1,0,35.32,35.32A35.35,35.35,0,0,0,393.81,84Z" style="fill:#ebebeb"></path><path d="M392,161.53c-.56,0-1.12-.06-1.68-.11l.14-1.64c.53.05,1.07.08,1.62.11Zm5.89-.15-.16-1.64c.54-.05,1.08-.11,1.61-.18l.22,1.63C399,161.26,398.4,161.33,397.84,161.38Zm-13.39-.85c-.55-.12-1.09-.26-1.63-.4l.42-1.59c.52.14,1.05.27,1.58.39Zm20.83-.54-.45-1.58c.52-.15,1-.3,1.55-.47l.51,1.57C406.36,159.68,405.82,159.84,405.28,160Zm-28-1.79c-.52-.22-1-.45-1.54-.69l.7-1.49,1.48.67Zm35.1-.91-.72-1.48c.48-.23,1-.48,1.43-.73l.78,1.44C413.35,156.79,412.85,157.05,412.35,157.29Zm-41.77-2.68c-.47-.31-.93-.63-1.39-1l1-1.34c.44.32.88.62,1.33.92Zm48.23-1.24-1-1.32c.44-.32.86-.65,1.28-1l1,1.29C419.71,152.7,419.27,153,418.81,153.37Zm-54.15-3.47c-.41-.39-.81-.79-1.2-1.19l1.19-1.14q.56.57,1.14,1.14Zm59.82-1.53-1.19-1.14c.37-.39.73-.79,1.09-1.19l1.24,1.08C425.25,147.54,424.87,148,424.48,148.37Zm-64.81-4.16c-.33-.46-.65-.91-1-1.38l1.36-.92c.3.45.61.89.93,1.33Zm69.51-1.78-1.38-.9c.29-.46.58-.91.86-1.38l1.41.85C429.78,141.48,429.48,142,429.18,142.43Zm-73.4-4.71c-.25-.5-.48-1-.7-1.52l1.5-.66c.22.49.44,1,.68,1.47Zm77-2-1.51-.64c.21-.49.41-1,.6-1.5l1.54.58C433.16,134.7,433,135.23,432.73,135.74Zm-79.62-5.09c-.15-.54-.29-1.09-.42-1.63l1.6-.38c.12.53.26,1.05.4,1.57ZM435,128.53l-1.61-.36c.12-.53.23-1.06.32-1.59l1.62.29C435.27,127.43,435.16,128,435,128.53Zm-83.29-5.33q-.08-.83-.12-1.68l1.64-.08c0,.54.07,1.08.12,1.61ZM436,121l-1.65-.06c0-.54,0-1.08,0-1.62v-.17H436v.16C436,119.9,436,120.46,436,121Zm-82.64-5.24-1.63-.14c0-.56.1-1.12.17-1.68l1.64.21C353.48,114.7,353.42,115.24,353.37,115.78ZM434,113.53c-.07-.54-.16-1.07-.26-1.6l1.62-.3c.1.55.19,1.11.27,1.66Zm-79.33-4.91-1.59-.43c.15-.55.31-1.08.48-1.62l1.57.5C355,107.58,354.79,108.1,354.65,108.62Zm77.66-2.17c-.17-.51-.36-1-.55-1.52l1.54-.59q.3.8.57,1.59Zm-75.12-4.65-1.48-.71c.24-.51.5-1,.76-1.5l1.45.77C357.67,100.83,357.43,101.32,357.19,101.8Zm72.2-2c-.26-.48-.53-.94-.81-1.4l1.41-.85c.29.47.57,1,.84,1.45Zm-68.47-4.25-1.34-1q.5-.69,1-1.35l1.29,1C361.56,94.68,361.23,95.12,360.92,95.55Zm64.41-1.78c-.34-.42-.69-.83-1.05-1.24l1.24-1.08c.37.42.73.84,1.08,1.28Zm-59.64-3.71-1.14-1.18c.41-.39.82-.77,1.24-1.14L366.88,89C366.48,89.33,366.08,89.69,365.69,90.06Zm54.57-1.51c-.41-.35-.83-.69-1.25-1l1-1.29c.44.35.87.71,1.3,1.08Zm-48.89-3-.92-1.36c.47-.32.94-.62,1.42-.91l.86,1.41C372.27,84.93,371.81,85.22,371.37,85.51Zm43-1.19c-.46-.27-.93-.54-1.41-.79l.77-1.45c.5.26,1,.54,1.47.82Zm-36.59-2.27-.65-1.51q.76-.33,1.56-.63l.59,1.53C378.74,81.63,378.25,81.84,377.75,82.05Zm30-.84c-.51-.18-1-.36-1.53-.52l.5-1.57c.54.17,1.07.35,1.6.55Zm-23.1-1.42-.37-1.61c.54-.12,1.09-.24,1.65-.34l.3,1.61C385.71,79.55,385.18,79.67,384.66,79.79Zm16.07-.45c-.53-.09-1.06-.17-1.6-.24l.21-1.63c.56.07,1.12.15,1.67.25Zm-8.87-.54-.07-1.65c.55,0,1.11,0,1.68,0v1.64C392.94,78.76,392.4,78.77,391.86,78.8Z" style="fill:#ebebeb"></path><circle cx="102.54" cy="101.8" r="46.54" transform="translate(-22.79 173.71) rotate(-74.64)" style="fill:#ebebeb"></circle><circle cx="104.67" cy="102.84" r="44.41" transform="translate(-31.08 47.13) rotate(-22.18)" style="fill:#dbdbdb"></circle><circle cx="104.67" cy="102.84" r="41.6" style="fill:#fff"></circle><path d="M145.34,94c-19,11.48-50.09,30.31-67.49,40.63a41.68,41.68,0,0,1-11.37-15.28L124,66A41.65,41.65,0,0,1,145.34,94Z" style="fill:#ebebeb;opacity:0.5"></path><path d="M146.25,104.29a41.22,41.22,0,0,1-2.75,13.52L91.61,142.35a40.5,40.5,0,0,1-6.55-2.81C100.73,130.48,129.37,114,146.25,104.29Z" style="fill:#ebebeb;opacity:0.5"></path><rect x="104.27" y="64.26" width="0.8" height="6.31" style="fill:#c7c7c7"></rect><rect x="86.56" y="69" width="0.8" height="6.31" transform="translate(-24.43 53.14) rotate(-30)" style="fill:#c7c7c7"></rect><rect x="73.59" y="81.97" width="0.8" height="6.31" transform="translate(-36.73 106.63) rotate(-60)" style="fill:#c7c7c7"></rect><rect x="66.09" y="102.44" width="6.31" height="0.8" style="fill:#c7c7c7"></rect><rect x="70.84" y="120.15" width="6.31" height="0.8" transform="translate(-50.37 53.15) rotate(-30)" style="fill:#c7c7c7"></rect><rect x="83.81" y="133.12" width="6.31" height="0.8" transform="translate(-72.15 142.18) rotate(-60.04)" style="fill:#c7c7c7"></rect><rect x="104.27" y="135.12" width="0.8" height="6.31" style="fill:#c7c7c7"></rect><rect x="121.99" y="130.37" width="0.8" height="6.31" transform="translate(-50.37 79.08) rotate(-30)" style="fill:#c7c7c7"></rect><rect x="134.96" y="117.4" width="0.8" height="6.31" transform="matrix(0.5, -0.87, 0.87, 0.5, -36.73, 177.5)" style="fill:#c7c7c7"></rect><rect x="136.95" y="102.44" width="6.31" height="0.8" style="fill:#c7c7c7"></rect><rect x="132.21" y="84.72" width="6.31" height="0.8" transform="translate(-24.43 79.1) rotate(-30)" style="fill:#c7c7c7"></rect><rect x="119.24" y="71.75" width="6.31" height="0.8" transform="translate(-1.27 142.12) rotate(-60.02)" style="fill:#c7c7c7"></rect><polygon points="105.28 67.11 106.65 105.65 102.7 105.6 104.21 67.1 105.28 67.11" style="fill:#c7c7c7"></polygon><polygon points="129.28 89.4 103.36 105.95 101.47 102.48 128.77 88.46 129.28 89.4" style="fill:#a6a6a6"></polygon><path d="M106,102.84a1.35,1.35,0,1,1-1.35-1.35A1.35,1.35,0,0,1,106,102.84Z" style="fill:#c7c7c7"></path><path d="M82.59,327.06l-13.12.27-6.66.12c-2.23,0-4.47,0-6.7.05h-.44v-.44l-.06-11.19v-.51h.5l13.24.06c4.42,0,8.83.11,13.24.16h.28v.27c0,1.89-.09,3.78-.13,5.65Zm0,0-.14-5.66c0-1.86-.11-3.7-.13-5.53l.27.27c-4.41.05-8.82.16-13.24.16l-13.24.07.5-.5,0,11.19-.45-.45c2.18,0,4.36,0,6.55.05l6.58.12Z" style="fill:#ebebeb"></path><path d="M67.82,341.17l-13.12.27-6.66.12c-2.23,0-4.47,0-6.7.05H40.9v-.44L40.84,330v-.51h.5l13.24.06c4.41,0,8.83.11,13.24.16h.28V330c0,1.89-.08,3.78-.13,5.65Zm0,0-.14-5.66c-.05-1.86-.11-3.7-.13-5.53l.27.27c-4.41.05-8.83.16-13.24.16l-13.24.06.5-.49-.05,11.19-.45-.45c2.18,0,4.36,0,6.55,0l6.58.12Z" style="fill:#ebebeb"></path><path d="M338.6,202.49l-13.13.28-6.66.11c-2.22.05-4.46,0-6.69.06h-.44v-.45l-.05-11.19v-.5h.5l13.24.07c4.41,0,8.83.11,13.24.16h.28v.27c0,1.9-.08,3.79-.13,5.66Zm0,0-.14-5.65c0-1.86-.11-3.71-.13-5.54l.27.28c-4.41,0-8.83.15-13.24.16l-13.24.06.5-.5-.06,11.19-.44-.44c2.18,0,4.36,0,6.54,0l6.58.11Z" style="fill:#ebebeb"></path><path d="M323.83,216.6l-13.13.28L304,217c-2.22,0-4.46,0-6.69.06h-.45v-.45l0-11.19v-.5h.5l13.24.07c4.41,0,8.82.11,13.24.16h.27v.27c0,1.9-.09,3.79-.13,5.66Zm0,0-.14-5.65c-.05-1.86-.12-3.71-.14-5.54l.28.28c-4.42.05-8.83.15-13.24.16l-13.24.06.5-.5-.06,11.19-.44-.44c2.18,0,4.36,0,6.54.05l6.58.11Z" style="fill:#ebebeb"></path><path d="M309.11,202.49l-13.12.28-6.66.11c-2.23.05-4.46,0-6.7.06h-.44v-.45l-.06-11.19v-.5h.5l13.24.07c4.42,0,8.83.11,13.24.16h.28v.27c0,1.9-.09,3.79-.13,5.66Zm0,0-.14-5.65c0-1.86-.11-3.71-.13-5.54l.27.28c-4.41,0-8.82.15-13.24.16l-13.24.06.5-.5-.05,11.19-.45-.44c2.19,0,4.36,0,6.55,0l6.58.11Z" style="fill:#ebebeb"></path><path d="M458.66,341.17l-13.13.27-6.66.12c-2.22,0-4.46,0-6.69.05h-.45v-.44L431.68,330v-.51h.5l13.24.06c4.41,0,8.83.11,13.24.16h.27V330c0,1.89-.08,3.78-.13,5.65Zm0,0-.14-5.66c0-1.86-.12-3.7-.13-5.53l.27.27c-4.41.05-8.83.16-13.24.16l-13.24.06.5-.49-.06,11.19-.44-.45c2.18,0,4.36,0,6.54,0l6.58.12Z" style="fill:#ebebeb"></path><path d="M443.89,67.49l-13.13.27-6.66.12c-2.22,0-4.46,0-6.69.05H417v-.45l0-11.19v-.51h.51l13.24.06c4.41,0,8.82.11,13.24.16h.27v.27c0,1.9-.09,3.78-.13,5.65Zm0,0-.14-5.66c-.05-1.86-.12-3.7-.14-5.53l.28.27c-4.42,0-8.83.16-13.24.16l-13.24.07.5-.5-.06,11.19-.44-.45c2.18,0,4.35,0,6.54.06l6.58.11Z" style="fill:#ebebeb"></path><path d="M458.66,81.6l-13.13.27-6.66.12c-2.22,0-4.46,0-6.69.05h-.45V81.6l-.05-11.19V69.9h.5l13.24.06c4.41,0,8.83.11,13.24.16h.27v.27c0,1.89-.08,3.78-.13,5.65Zm0,0-.14-5.66c0-1.86-.12-3.7-.13-5.53l.27.27c-4.41,0-8.83.16-13.24.16l-13.24.07.5-.5-.06,11.19-.44-.45c2.18,0,4.36,0,6.54.06l6.58.11Z" style="fill:#ebebeb"></path><path d="M82.59,67.49l-13.12.27-6.66.12c-2.23,0-4.47,0-6.7.05h-.44v-.45L55.61,56.3v-.51h.5l13.24.06c4.42,0,8.83.11,13.24.16h.28v.27c0,1.9-.09,3.78-.13,5.65Zm0,0-.14-5.66c0-1.86-.11-3.7-.13-5.53l.27.27c-4.41,0-8.82.16-13.24.16l-13.24.07.5-.5,0,11.19L56.11,67c2.18,0,4.36,0,6.55.06l6.58.11Z" style="fill:#ebebeb"></path></g><g id="freepik--Icons--inject-11"><path d="M109.62,220.22H97V206.65H83.46V194.07H97V180.49h12.58v13.58h13.57v12.58H109.62Zm-10.79-1.79h9V204.86H121.4v-9H107.83V182.28h-9v13.58H85.25v9H98.83Z" style="fill:#F2ECEC"></path><path d="M414.65,309.92H402.06V296.35H388.49V283.77h13.57V270.19h12.59v13.58h13.57v12.58H414.65Zm-10.79-1.79h9V294.56h13.57v-9H412.86V272h-9v13.58H390.28v9h13.58Z" style="fill:#F2ECEC"></path><polygon points="348.54 78.59 348.54 91.17 334.97 91.17 334.97 104.75 322.39 104.75 322.39 91.17 308.81 91.17 308.81 78.59 322.39 78.59 322.39 65.02 334.97 65.02 334.97 78.59 348.54 78.59" style="fill:#F2ECEC"></polygon></g><g id="freepik--Pills--inject-11"><rect x="65.79" y="363.64" width="44.42" height="66.64" style="fill:#F2ECEC"></rect><rect x="60.43" y="345.74" width="55.15" height="17.89" style="fill:#455a64"></rect><rect x="73.22" y="382.81" width="29.57" height="29.57" style="fill:#fff"></rect><polygon points="65.79 363.64 65.79 368.83 90.8 378.28 90.8 430.27 102.79 430.27 102.79 363.64 65.79 363.64" style="opacity:0.1"></polygon><path d="M52,428.75v0a5.58,5.58,0,0,1,5.59-5.58H68.71a5.59,5.59,0,0,1,5.6,5.58v0a5.6,5.6,0,0,1-5.6,5.59H57.63A5.6,5.6,0,0,1,52,428.75Z" style="fill:#455a64"></path><path d="M52,428.75v0a5.58,5.58,0,0,1,5.59-5.58h5.55v11.19H57.63A5.6,5.6,0,0,1,52,428.75Z" style="fill:#F2ECEC"></path><path d="M128,428.75h0a5.59,5.59,0,0,1-5.6,5.58H111.37a5.59,5.59,0,0,1-5.6-5.58h0a5.6,5.6,0,0,1,5.6-5.6h11.07A5.6,5.6,0,0,1,128,428.75Z" style="fill:#455a64"></path><path d="M128,428.75h0a5.59,5.59,0,0,1-5.6,5.58H116.9V423.15h5.54A5.6,5.6,0,0,1,128,428.75Z" style="fill:#F2ECEC"></path><path d="M140.61,431v0a5.58,5.58,0,0,1-7.9,0l-7.84-7.83a5.59,5.59,0,0,1,0-7.9h0a5.61,5.61,0,0,1,7.92,0l7.83,7.83A5.6,5.6,0,0,1,140.61,431Z" style="fill:#455a64"></path><path d="M140.61,431v0a5.58,5.58,0,0,1-7.9,0l-3.92-3.92,7.91-7.91,3.92,3.92A5.6,5.6,0,0,1,140.61,431Z" style="fill:#F2ECEC"></path><path d="M89.94,439.94v0a5.59,5.59,0,0,1,5.6-5.58h11.07a5.59,5.59,0,0,1,5.6,5.58v0a5.6,5.6,0,0,1-5.6,5.59H95.54A5.6,5.6,0,0,1,89.94,439.94Z" style="fill:#455a64"></path><path d="M89.94,439.94v0a5.59,5.59,0,0,1,5.6-5.58h5.54v11.19H95.54A5.6,5.6,0,0,1,89.94,439.94Z" style="fill:#F2ECEC"></path></g><g id="freepik--Aspirins--inject-11"><g style="isolation:isolate"><path d="M319.16,427.69l-.28,3.92c0,.06,0,.13,0,.2-.21,1.24-1.62,2.27-3.73,2.91a20.82,20.82,0,0,1-6.91.72l-1-.07c-.34,0-.69-.06-1-.11-5.34-.69-9.28-2.89-9.12-5.18l.27-3.91c-.16,2.29,3.78,4.49,9.12,5.18l1,.1c.34,0,.69.06,1,.07a20.56,20.56,0,0,0,6.91-.72c2.11-.63,3.51-1.65,3.73-2.9C319.15,427.82,319.15,427.77,319.16,427.69Z" style="fill:#dbdbdb"></path><path d="M301.1,423.06a20.7,20.7,0,0,1,6.89-.72l-1.53,9c.33,0,.68.08,1,.1s.68.06,1,.08l1.53-9c5.5.7,9.51,3,9.1,5.37-.2,1.25-1.61,2.27-3.72,2.92a20.82,20.82,0,0,1-6.91.72c-.34,0-.69,0-1-.08s-.69-.06-1-.1c-5.5-.7-9.51-3-9.1-5.37C297.57,424.73,299,423.7,301.1,423.06Z" style="fill:#fff"></path><path d="M308,422.34l1,.07,1,.11-1.53,9c-.34,0-.69,0-1-.08s-.69-.06-1-.1Z" style="fill:#dbdbdb"></path></g><g style="isolation:isolate"><path d="M318.54,434.91l0,3.92a1.33,1.33,0,0,0,0,.2c.11,1.25,1.44,2.4,3.48,3.2a20.78,20.78,0,0,0,6.83,1.27h1c.34,0,.69,0,1,0,5.38-.26,9.49-2.14,9.51-4.44l0-3.92c0,2.29-4.13,4.17-9.51,4.44h-1a8.81,8.81,0,0,1-1,0,20.8,20.8,0,0,1-6.83-1.26c-2.06-.8-3.37-1.94-3.48-3.2A1.34,1.34,0,0,1,318.54,434.91Z" style="fill:#dbdbdb"></path><path d="M336.92,431.73a20.72,20.72,0,0,0-6.82-1.27l.81,9.1c-.34,0-.69,0-1,0h-1l-.81-9.1c-5.54.26-9.72,2.24-9.5,4.62.11,1.27,1.43,2.4,3.48,3.21a20.78,20.78,0,0,0,6.83,1.27h1c.34,0,.69,0,1,0,5.53-.26,9.72-2.24,9.5-4.62C340.3,433.67,339,432.54,336.92,431.73Z" style="fill:#fff"></path><path d="M330.1,430.46h-1q-.51,0-1,0l.81,9.1h1c.34,0,.69,0,1,0Z" style="fill:#dbdbdb"></path></g><g style="isolation:isolate"><path d="M289.33,433.65a17.24,17.24,0,0,1-7.81,2.22,16,16,0,0,1-6.89-1.05c-.24-.1-.49-.23-.73-.35s-.46-.26-.67-.4A4.48,4.48,0,0,1,271,430.8l-.36-3.57a4.49,4.49,0,0,0,2.3,3.28q.3.19.66.39a6.82,6.82,0,0,0,.72.35,16,16,0,0,0,6.89,1.05,17.35,17.35,0,0,0,7.81-2.2c2.43-1.46,3.57-3.31,3.39-5l.36,3.57C292.9,430.35,291.76,432.2,289.33,433.65Z" style="fill:#dbdbdb"></path><path d="M274.28,431.25l.2,2.08L289,424.62l-.35-3.57-15.78,9.46c.19.13.42.26.66.39S274,431.14,274.28,431.25Z" style="fill:#F2ECEC"></path><path d="M288.67,421.05c.25.11.5.22.74.35s.45.25.66.39l-15.79,9.46c-.26-.11-.49-.22-.73-.35s-.47-.26-.66-.39Z" style="fill:#dbdbdb"></path><polygon points="290.07 421.79 290.43 425.35 274.63 434.81 274.28 431.25 290.07 421.79" style="fill:#dbdbdb"></polygon><path d="M281.78,420a16.1,16.1,0,0,1,6.89,1.05l-15.78,9.46c.19.13.42.26.66.39s.47.24.73.35l15.79-9.46c3.44,2.22,3,5.83-1.1,8.3a17.35,17.35,0,0,1-7.8,2.21,16.08,16.08,0,0,1-6.89-1.05c-.26-.11-.49-.22-.73-.35s-.47-.26-.66-.39c-3.44-2.23-3-5.83,1.1-8.3A17.35,17.35,0,0,1,281.78,420Z" style="fill:#fff"></path></g><path d="M347.05,430.77a17.23,17.23,0,0,0,7.8,2.22,16,16,0,0,0,6.9-1.05c.24-.1.49-.23.73-.35s.46-.26.66-.4a4.49,4.49,0,0,0,2.29-3.27l.36-3.57a4.51,4.51,0,0,1-2.3,3.28q-.3.19-.66.39a6.82,6.82,0,0,1-.72.35,16,16,0,0,1-6.9,1.05,17.22,17.22,0,0,1-7.8-2.2c-2.43-1.46-3.57-3.31-3.4-5l-.36,3.57C343.48,427.48,344.62,429.32,347.05,430.77Z" style="fill:#dbdbdb"></path><path d="M362.1,428.37l-.21,2.08-14.54-8.71.36-3.56,15.78,9.45a6.76,6.76,0,0,1-.66.39C362.59,428.15,362.35,428.26,362.1,428.37Z" style="fill:#F2ECEC"></path><path d="M347.71,418.18c-.25.1-.5.22-.74.34s-.45.25-.67.39l15.8,9.46c.25-.11.49-.22.73-.35a6.76,6.76,0,0,0,.66-.39Z" style="fill:#dbdbdb"></path><polygon points="346.31 418.91 345.95 422.47 361.75 431.93 362.1 428.37 346.31 418.91" style="fill:#dbdbdb"></polygon><path d="M354.59,417.13a15.76,15.76,0,0,0-6.88,1.05l15.78,9.45a6.76,6.76,0,0,1-.66.39c-.24.13-.48.24-.73.35l-15.8-9.46c-3.43,2.23-3,5.83,1.11,8.3a17.35,17.35,0,0,0,7.8,2.21,15.78,15.78,0,0,0,6.89-1.05c.25-.11.49-.22.73-.35a6.76,6.76,0,0,0,.66-.39c3.44-2.23,3-5.83-1.1-8.3A17.22,17.22,0,0,0,354.59,417.13Z" style="fill:#fff"></path><path d="M280.54,417.4l-.05,4.15a1.09,1.09,0,0,1-.32.72c-.72.82-2.56,1.47-4.95,1.84a36.86,36.86,0,0,1-7.29.33l-1-.07-1-.1c-4.46-.49-7.37-1.71-7.36-3l.06-4.13c0,1.28,2.91,2.5,7.36,3,.31.05.66.08,1,.1l1,.08a35.47,35.47,0,0,0,7.29-.33c2.38-.38,4.23-1,5-1.85A1.05,1.05,0,0,0,280.54,417.4Z" style="fill:#dbdbdb"></path><path d="M267,420.23l-.06,4.14-1-.1.05-4.14Z" style="fill:#dbdbdb"></path><path d="M271.21,414.23l1,.07q.51,0,1,.09l-5.2,5.9-1-.06-1-.1Z" style="fill:#dbdbdb"></path><polygon points="273.2 414.39 273.14 418.53 267.94 424.44 268 420.29 273.2 414.39" style="fill:#dbdbdb"></polygon><path d="M263.94,414.55a35.27,35.27,0,0,1,7.27-.32l-5.21,5.9,1,.1,1,.06,5.2-5.9c5.27.58,8.39,2.2,7,3.74-.72.82-2.56,1.46-5,1.84a35.31,35.31,0,0,1-7.27.32l-1-.06-1-.1c-5.28-.58-8.39-2.19-7-3.74C259.7,415.57,261.54,414.93,263.94,414.55Z" style="fill:#fff"></path><path d="M307.57,417.72l.06,4.14a1,1,0,0,0,.32.72c.72.82,2.56,1.47,4.95,1.85a36.79,36.79,0,0,0,7.28.33l1-.08c.32,0,.66-.05,1-.1,4.46-.49,7.37-1.71,7.35-3l0-4.14c0,1.29-2.91,2.51-7.36,3l-1,.1-1,.07a34,34,0,0,1-7.28-.33c-2.39-.37-4.23-1-4.95-1.84A1,1,0,0,1,307.57,417.72Z" style="fill:#dbdbdb"></path><path d="M321.13,420.54l.05,4.14c.33,0,.67-.06,1-.09l-.06-4.14Z" style="fill:#dbdbdb"></path><path d="M316.91,414.54l-1,.07-1,.09,5.2,5.91,1-.07,1-.09Z" style="fill:#dbdbdb"></path><polygon points="314.92 414.7 314.97 418.85 320.18 424.75 320.12 420.61 314.92 414.7" style="fill:#dbdbdb"></polygon><path d="M324.17,414.86a35.92,35.92,0,0,0-7.26-.32l5.2,5.91-1,.09-1,.07-5.2-5.91c-5.28.59-8.39,2.2-7,3.74.72.82,2.56,1.47,4.95,1.84a35.37,35.37,0,0,0,7.28.33l1-.07,1-.09c5.29-.58,8.4-2.2,7-3.74C328.42,415.89,326.57,415.24,324.17,414.86Z" style="fill:#fff"></path><path d="M282.36,438.14l.05,4.15a1,1,0,0,0,.32.72c.72.82,2.56,1.46,4.95,1.84a36.79,36.79,0,0,0,7.28.33l1-.07,1-.1c4.46-.49,7.37-1.72,7.36-3l-.06-4.13c0,1.28-2.91,2.5-7.36,3l-1,.1-1,.07a34.08,34.08,0,0,1-7.29-.33c-2.39-.37-4.23-1-4.95-1.84A1.05,1.05,0,0,1,282.36,438.14Z" style="fill:#dbdbdb"></path><path d="M295.91,441l.06,4.15,1-.1-.06-4.14Z" style="fill:#dbdbdb"></path><path d="M291.69,435l-1,.07-1,.1,5.2,5.9,1-.07,1-.09Z" style="fill:#dbdbdb"></path><polygon points="289.7 435.13 289.75 439.27 294.96 445.17 294.9 441.03 289.7 435.13" style="fill:#dbdbdb"></polygon><path d="M299,435.29a35.27,35.27,0,0,0-7.27-.33l5.2,5.91-1,.09-1,.07-5.2-5.9c-5.27.58-8.39,2.19-7,3.74.72.81,2.56,1.46,4.95,1.84a36.16,36.16,0,0,0,7.28.32l1-.07,1-.09c5.29-.58,8.4-2.2,7-3.74C303.2,436.31,301.35,435.67,299,435.29Z" style="fill:#fff"></path></g><g id="freepik--Bottle--inject-11"><path d="M387.26,347.8h34.65a8.48,8.48,0,0,1,8.48,8.48v76.26a3.17,3.17,0,0,1-3.17,3.17H382a3.17,3.17,0,0,1-3.17-3.17V356.27A8.48,8.48,0,0,1,387.26,347.8Z" style="fill:#F2ECEC"></path><rect x="389.65" y="336.64" width="29.88" height="13.69" style="fill:#F2ECEC"></rect><rect x="378.79" y="376.43" width="51.6" height="34.79" style="fill:#ebebeb"></rect><rect x="378.79" y="404.11" width="51.6" height="3.15" style="fill:#455a64"></rect><rect x="378.79" y="380.4" width="51.6" height="3.15" style="fill:#455a64"></rect><rect x="387.57" y="327.06" width="34.04" height="12.68" style="fill:#455a64"></rect><rect x="385.78" y="339.73" width="37.61" height="3.75" style="fill:#37474f"></rect><rect x="389.29" y="328.83" width="1.56" height="9.14" rx="0.56" style="fill:#37474f"></rect><rect x="392.19" y="328.83" width="1.56" height="9.14" rx="0.56" style="fill:#37474f"></rect><path d="M395.65,328.83h.45a.55.55,0,0,1,.55.55v8a.56.56,0,0,1-.56.56h-.45a.56.56,0,0,1-.56-.56v-8A.56.56,0,0,1,395.65,328.83Z" style="fill:#37474f"></path><rect x="398" y="328.83" width="1.56" height="9.14" rx="0.56" style="fill:#37474f"></rect><rect x="400.91" y="328.83" width="1.56" height="9.14" rx="0.56" style="fill:#37474f"></rect><path d="M404.36,328.83h.45a.56.56,0,0,1,.56.56v8a.56.56,0,0,1-.56.56h-.45a.55.55,0,0,1-.55-.55v-8A.56.56,0,0,1,404.36,328.83Z" style="fill:#37474f"></path><rect x="406.71" y="328.83" width="1.56" height="9.14" rx="0.56" style="fill:#37474f"></rect><rect x="409.62" y="328.83" width="1.56" height="9.14" rx="0.56" style="fill:#37474f"></rect><path d="M413.08,328.83h.45a.56.56,0,0,1,.56.56v8a.56.56,0,0,1-.56.56h-.45a.55.55,0,0,1-.55-.55v-8A.56.56,0,0,1,413.08,328.83Z" style="fill:#37474f"></path><rect x="415.42" y="328.83" width="1.56" height="9.14" rx="0.56" style="fill:#37474f"></rect><rect x="418.33" y="328.83" width="1.56" height="9.14" rx="0.56" style="fill:#37474f"></rect></g><g id="freepik--Syringe--inject-11"><rect x="156.11" y="440.21" width="28.99" height="3.83" transform="translate(614.41 275.93) rotate(90.57)" style="fill:#F2ECEC"></rect><rect x="156.11" y="440.21" width="28.99" height="3.83" transform="translate(614.41 275.93) rotate(90.57)" style="opacity:0.1"></rect><rect x="135.71" y="440.43" width="17.75" height="3.83" transform="translate(588.35 302.19) rotate(90.57)" style="fill:#F2ECEC"></rect><rect x="135.71" y="440.43" width="17.75" height="3.83" transform="translate(588.35 302.19) rotate(90.57)" style="opacity:0.1"></rect><rect x="152.88" y="431.37" width="9.42" height="22.2" transform="translate(601.62 289.3) rotate(90.57)" style="fill:#F2ECEC"></rect><polygon points="165.06 447.26 166.37 437.85 168.74 437.88 168.64 447.29 165.06 447.26" style="opacity:0.2"></polygon><path d="M253.92,443c3.85-.09,7.7-.11,11.56-.13l11.55,0,11.55.19,5.77.15c1.93.07,3.85.12,5.78.22-1.93.05-3.85.06-5.78.1l-5.78,0-11.55,0-11.55-.19C261.62,443.23,257.77,443.13,253.92,443Z" style="fill:#263238"></path><rect x="201.52" y="403.16" width="20.75" height="78.75" transform="translate(656.52 235.07) rotate(90.57)" style="fill:#F2ECEC"></rect><rect x="201.52" y="403.16" width="20.75" height="78.75" transform="translate(656.52 235.07) rotate(90.57)" style="fill:#fff;opacity:0.6000000000000001"></rect><rect x="206.11" y="405.04" width="15.29" height="75.02" transform="translate(658.42 233.23) rotate(90.57)" style="fill:#F2ECEC"></rect><rect x="241.06" y="434.98" width="3.86" height="0.46" transform="translate(680.59 196.56) rotate(90.57)" style="fill:#263238"></rect><rect x="239.51" y="434.96" width="3.86" height="0.46" transform="translate(679.02 198.12) rotate(90.57)" style="fill:#263238"></rect><rect x="237.96" y="434.95" width="3.86" height="0.46" transform="translate(677.44 199.65) rotate(90.57)" style="fill:#263238"></rect><rect x="236.41" y="434.93" width="3.86" height="0.46" transform="translate(675.86 201.19) rotate(90.57)" style="fill:#263238"></rect><rect x="233.43" y="436.33" width="6.69" height="0.46" transform="translate(675.68 204.15) rotate(90.57)" style="fill:#263238"></rect><rect x="233.39" y="434.9" width="3.86" height="0.46" transform="translate(672.78 204.18) rotate(90.57)" style="fill:#263238"></rect><rect x="231.84" y="434.89" width="3.86" height="0.46" transform="translate(671.2 205.71) rotate(90.57)" style="fill:#263238"></rect><rect x="230.29" y="434.87" width="3.86" height="0.46" transform="translate(669.62 207.23) rotate(90.57)" style="fill:#263238"></rect><rect x="228.74" y="434.85" width="3.86" height="0.46" transform="matrix(-0.01, 1, -1, -0.01, 668.04, 208.77)" style="fill:#263238"></rect><rect x="225.76" y="436.26" width="6.69" height="0.46" transform="translate(667.86 211.75) rotate(90.57)" style="fill:#263238"></rect><rect x="225.72" y="434.82" width="3.86" height="0.46" transform="translate(664.96 211.77) rotate(90.57)" style="fill:#263238"></rect><rect x="224.17" y="434.81" width="3.86" height="0.46" transform="translate(663.37 213.28) rotate(90.57)" style="fill:#263238"></rect><rect x="222.63" y="434.79" width="3.86" height="0.46" transform="translate(661.79 214.81) rotate(90.57)" style="fill:#263238"></rect><rect x="221.08" y="434.78" width="3.86" height="0.46" transform="translate(660.22 216.37) rotate(90.57)" style="fill:#263238"></rect><rect x="218.1" y="436.18" width="6.69" height="0.46" transform="translate(660.04 219.34) rotate(90.57)" style="fill:#263238"></rect><rect x="218.05" y="434.75" width="3.86" height="0.46" transform="translate(657.14 219.36) rotate(90.57)" style="fill:#263238"></rect><rect x="216.51" y="434.73" width="3.86" height="0.46" transform="translate(655.55 220.87) rotate(90.57)" style="fill:#263238"></rect><rect x="214.96" y="434.72" width="3.86" height="0.46" transform="translate(653.98 222.42) rotate(90.57)" style="fill:#263238"></rect><rect x="213.41" y="434.7" width="3.86" height="0.46" transform="translate(652.39 223.93) rotate(90.57)" style="fill:#263238"></rect><rect x="210.43" y="436.1" width="6.69" height="0.46" transform="translate(652.22 226.92) rotate(90.57)" style="fill:#263238"></rect><rect x="210.39" y="434.67" width="3.86" height="0.46" transform="translate(649.31 226.94) rotate(90.57)" style="fill:#263238"></rect><rect x="208.84" y="434.66" width="3.86" height="0.46" transform="translate(647.73 228.46) rotate(90.57)" style="fill:#263238"></rect><rect x="207.29" y="434.64" width="3.86" height="0.46" transform="translate(646.16 230.01) rotate(90.57)" style="fill:#263238"></rect><rect x="205.74" y="434.62" width="3.86" height="0.46" transform="translate(644.57 231.52) rotate(90.57)" style="fill:#263238"></rect><rect x="202.76" y="436.03" width="6.69" height="0.46" transform="translate(644.4 234.52) rotate(90.57)" style="fill:#263238"></rect><rect x="202.72" y="434.59" width="3.86" height="0.46" transform="translate(641.49 234.53) rotate(90.57)" style="fill:#263238"></rect><rect x="201.17" y="434.58" width="3.86" height="0.46" transform="translate(639.92 236.07) rotate(90.57)" style="fill:#263238"></rect><rect x="199.62" y="434.56" width="3.86" height="0.46" transform="translate(638.34 237.6) rotate(90.57)" style="fill:#263238"></rect><rect x="198.07" y="434.55" width="3.86" height="0.46" transform="translate(636.75 239.12) rotate(90.57)" style="fill:#263238"></rect><rect x="195.09" y="435.95" width="6.69" height="0.46" transform="translate(636.58 242.12) rotate(90.57)" style="fill:#263238"></rect><rect x="195.05" y="434.52" width="3.86" height="0.46" transform="translate(633.67 242.11) rotate(90.57)" style="fill:#263238"></rect><rect x="193.5" y="434.5" width="3.86" height="0.46" transform="translate(632.09 243.65) rotate(90.57)" style="fill:#263238"></rect><rect x="191.95" y="434.49" width="3.86" height="0.46" transform="translate(630.51 245.18) rotate(90.57)" style="fill:#263238"></rect><rect x="190.4" y="434.47" width="3.86" height="0.46" transform="translate(628.93 246.72) rotate(90.57)" style="fill:#263238"></rect><rect x="187.42" y="435.87" width="6.69" height="0.46" transform="translate(628.76 249.7) rotate(90.57)" style="fill:#263238"></rect><rect x="187.38" y="434.44" width="3.86" height="0.46" transform="translate(625.85 249.71) rotate(90.57)" style="fill:#263238"></rect><rect x="185.83" y="434.43" width="3.86" height="0.46" transform="translate(624.27 251.24) rotate(90.57)" style="fill:#263238"></rect><rect x="184.29" y="434.41" width="3.86" height="0.46" transform="translate(622.68 252.75) rotate(90.57)" style="fill:#263238"></rect><rect x="182.74" y="434.4" width="3.86" height="0.46" transform="translate(621.12 254.32) rotate(90.57)" style="fill:#263238"></rect><rect x="179.76" y="435.8" width="6.69" height="0.46" transform="translate(620.93 257.28) rotate(90.57)" style="fill:#263238"></rect><rect x="179.72" y="434.36" width="3.86" height="0.46" transform="translate(618.02 257.29) rotate(90.57)" style="fill:#263238"></rect><rect x="178.17" y="434.35" width="3.86" height="0.46" transform="translate(616.45 258.84) rotate(90.57)" style="fill:#263238"></rect><rect x="176.62" y="434.33" width="3.86" height="0.46" transform="translate(614.87 260.36) rotate(90.57)" style="fill:#263238"></rect><rect x="175.07" y="434.32" width="3.86" height="0.46" transform="translate(613.29 261.91) rotate(90.57)" style="fill:#263238"></rect><rect x="172.09" y="435.72" width="6.69" height="0.46" transform="translate(613.11 264.88) rotate(90.57)" style="fill:#263238"></rect><rect x="237.92" y="439.93" width="20.75" height="5.94" transform="translate(693.65 199.03) rotate(90.57)" style="fill:#263238"></rect><rect x="247.66" y="439.56" width="14.02" height="6.8" transform="translate(700.15 192.73) rotate(90.57)" style="fill:#F2ECEC"></rect><polygon points="266.2 444.88 266.23 441.27 258.09 440.54 258.04 445.45 266.2 444.88" style="fill:#F2ECEC"></polygon><polygon points="258.04 445.45 258.09 440.55 260.4 440.75 260 445.31 258.04 445.45" style="opacity:0.1"></polygon></g></svg>