<svg xmlns="http://www.w3.org/2000/svg" viewBox="0 0 500 500"><g id="freepik--Device--inject-9"><g id="freepik--device--inject-9"><path d="M111,385.28l-2.72-1.57a8.84,8.84,0,0,1-4-6.93V138.29a8.85,8.85,0,0,1,4-6.94l110-63.5a8.83,8.83,0,0,1,8,0L229,69.42a8.85,8.85,0,0,1,4,6.93v238.5a8.85,8.85,0,0,1-4,6.93l-110,63.5A8.83,8.83,0,0,1,111,385.28Z" style="fill:#37474f"></path><path d="M120.37,143l-14.92-8.61a8.25,8.25,0,0,0-1.17,3.95V376.78a8.84,8.84,0,0,0,4,6.93l2.72,1.57a8.83,8.83,0,0,0,8,0l1.36-.78Z" style="fill:#263238"></path><path d="M115,144.48V383c0,2.56,1.79,3.59,4,2.31l110-63.5a8.85,8.85,0,0,0,4-6.93V76.35c0-2.55-1.79-3.58-4-2.31L119,137.55A8.82,8.82,0,0,0,115,144.48Z" style="fill:#455a64"></path><path d="M123.8,159.56l100-57.75c1.89-1.09,3.43-.2,3.43,2V294.06a7.58,7.58,0,0,1-3.43,5.94l-100,57.74c-1.9,1.1-3.43.21-3.43-2V165.5A7.55,7.55,0,0,1,123.8,159.56Z" style="fill:#fafafa"></path><g style="opacity:0.4"><path d="M174.36,174.55c11.21-6.47,20.3-1.22,20.3,11.72s-9.09,28.7-20.3,35.17-20.3,1.23-20.3-11.72S163.15,181,174.36,174.55Z" style="fill:#726298"></path><path d="M214.37,243.8c0-21.27-14.93-30.72-33.35-20.08l-11.52,6.65c-18.42,10.63-33.35,36.5-33.35,57.77v5.73l78.22-45.14Z" style="fill:#726298"></path></g><path d="M174,112c1.48-.86,2.68-.16,2.68,1.55a5.91,5.91,0,0,1-2.68,4.64c-1.48.86-2.68.16-2.68-1.55A5.91,5.91,0,0,1,174,112Z" style="fill:#263238"></path><path d="M166.26,125.38c5.45-3,15.17-8.79,20.54-11.95.91-.54,1.65-.17,1.65.82a3.55,3.55,0,0,1-1.66,2.76l-20.57,11.88c-.92.53-1.66.16-1.66-.84A3.41,3.41,0,0,1,166.26,125.38Z" style="fill:#263238"></path><path d="M161.06,128.39c.83-.48,1.51-.09,1.51.87a3.34,3.34,0,0,1-1.51,2.61c-.83.48-1.51.09-1.51-.87A3.34,3.34,0,0,1,161.06,128.39Z" style="fill:#263238"></path><path d="M174,335c3-1.71,5.37-.32,5.37,3.1a11.84,11.84,0,0,1-5.37,9.29c-3,1.71-5.36.32-5.36-3.1A11.86,11.86,0,0,1,174,335Z" style="fill:#263238"></path></g></g><g id="freepik--check-mark--inject-9"><path d="M265.21,268.14l-12.06-7h0l-.13-.07v0c-6-3.38-14.22-2.89-23.33,2.38-8.52,4.91-16.3,13.1-22.16,22.59-6.77,10.92-11,23.57-11,34.9,0,10.57,3.7,18,9.68,21.47h0l0,0,12.25,7c6.05,3.86,14.58,3.51,24.06-1.95C260.83,337,275.7,311.21,275.7,290,275.7,279,271.66,271.41,265.21,268.14Z" style="fill:#726298"></path><path d="M218.2,349.35l-12-6.86h0c-6-3.47-9.68-10.9-9.68-21.47,0-11.34,4.26-24,11-34.9l12.82,7.39c-6.78,10.93-11,23.55-11,34.87C209.29,338.47,212.68,345.7,218.2,349.35Z" style="opacity:0.1"></path><path d="M265,268c-5.92-2.87-13.81-2.14-22.47,2.85S226.19,284,220.32,293.49L207.5,286.1c5.86-9.49,13.64-17.68,22.16-22.59,9.1-5.26,17.33-5.76,23.33-2.38v0l.13.07h0Z" style="fill:#fff;opacity:0.4"></path><polygon points="259.79 281.5 255.19 278.84 237.18 321.29 240.25 323.06 259.79 281.5" style="fill:#fff"></polygon><polygon points="233.65 311.81 229.05 309.16 224.11 319.61 228.71 322.26 233.65 311.81" style="fill:#fff"></polygon><polygon points="241.43 335.51 228.71 322.26 233.65 311.81 240.25 323.06 259.79 281.5 267.03 288.56 241.43 335.51" style="fill:#f5f5f5"></polygon><polygon points="224.11 319.61 228.71 322.26 241.43 335.51 236.84 332.88 224.11 319.61" style="fill:#e0e0e0"></polygon></g></svg>