<svg xmlns="http://www.w3.org/2000/svg" viewBox="0 0 750 500"><g id="freepik--background-complete--inject-2"><path d="M66.9,368.45c-4.65-2.4-10.12-2.71-15.27-1.86-2.77.46-5.66,1.29-7.55,3.37s-2.24,5.75-.08,7.53a7.21,7.21,0,0,0,4.76,1.21c4-.05,8.52-.76,11.74,1.67,1.84,1.39,3.07,3.69,5.27,4.38a5.21,5.21,0,0,0,5.72-2.55,8.86,8.86,0,0,0,.65-6.56A10,10,0,0,0,66.9,368.45Z" style="fill:#ebebeb"></path><path d="M77.55,347.9c-2.85,4.06-8.37,2.71-10.93.24S63,342.07,62,338.65c-2.26-7.82-4.52-16-2.85-24a13.32,13.32,0,0,1,3.06-6.52,7,7,0,0,1,6.6-2.2c2.79.74,4.52,3.46,5.77,6.06a57.25,57.25,0,0,1,5.65,24.54c0,3.95-.45,8.1-2.68,11.36" style="fill:#ebebeb"></path><path d="M85.35,353.72c-3.09-3.66-3.67-9-2.3-13.58s4.47-8.49,8-11.68a43.31,43.31,0,0,1,14.41-8.5,15.39,15.39,0,0,1,6.48-1.1,6.8,6.8,0,0,1,5.44,3.29c1.51,2.89.06,6.4-1.51,9.26a109.22,109.22,0,0,1-9.47,14.42c-2.84,3.65-6.09,7.26-10.41,8.91s-8.81,1.46-11.1-1.54" style="fill:#ebebeb"></path><path d="M77.74,409.11a8.47,8.47,0,0,1-.26-1.84c-.13-1.35-.29-3-.49-5a71.45,71.45,0,0,0-1.13-7.38,57.5,57.5,0,0,0-2.68-8.71,32,32,0,0,0-4.45-7.88,16.8,16.8,0,0,0-5.63-4.68,16,16,0,0,0-4.73-1.47,8,8,0,0,1-1.84-.27,8.69,8.69,0,0,1,1.87,0,14.34,14.34,0,0,1,4.94,1.28,16.53,16.53,0,0,1,5.93,4.72,31.1,31.1,0,0,1,4.61,8,53,53,0,0,1,2.67,8.85,64.77,64.77,0,0,1,1,7.47c.16,2.14.22,3.87.25,5.07A9.33,9.33,0,0,1,77.74,409.11Z" style="fill:#e0e0e0"></path><path d="M77.39,405.24a3.62,3.62,0,0,1,0-.86c0-.64,0-1.45,0-2.45,0-2.12,0-5.19-.11-9-.19-7.59-.84-15.76-2.1-27.27-1.2-10.83-2.8-23.43-4.5-31.62-.36-1.86-.72-3.54-1.07-5s-.61-2.74-.88-3.76l-.57-2.38a4.34,4.34,0,0,1-.15-.85,3.41,3.41,0,0,1,.3.81c.19.61.42,1.39.71,2.34s.64,2.28,1,3.74.78,3.14,1.18,5a274.87,274.87,0,0,1,4.72,29.34c1.27,11.53,1.84,22,1.89,29.65,0,3.8,0,6.88-.14,9-.06,1-.11,1.81-.15,2.45A3.37,3.37,0,0,1,77.39,405.24Z" style="fill:#e0e0e0"></path><path d="M77.34,385a17.31,17.31,0,0,1,0-2.56c.09-1.64.32-4,.78-6.92a92.58,92.58,0,0,1,2.25-10.09,84.19,84.19,0,0,1,4.22-11.94A63.48,63.48,0,0,1,97,334.18a33,33,0,0,1,2.91-2.71c.45-.38.85-.75,1.25-1.05l1.13-.78a17.08,17.08,0,0,1,2.15-1.38c.12.17-3,2-7,6.29a66.94,66.94,0,0,0-12.08,19.22,92.8,92.8,0,0,0-4.24,11.83c-1.11,3.71-1.84,7.12-2.4,10s-.83,5.23-1,6.85A17.18,17.18,0,0,1,77.34,385Z" style="fill:#e0e0e0"></path><polygon points="96.92 420.72 94.89 448.53 59.16 448.53 57.13 420.72 96.92 420.72" style="fill:#e0e0e0"></polygon><rect x="52.87" y="409.75" width="47.51" height="10.96" style="fill:#e0e0e0"></rect><polygon points="100.38 447.47 100.38 450.51 98.14 450.51 53.65 450.51 53.65 447.47 100.38 447.47" style="fill:#ebebeb"></polygon><polygon points="95.95 455.86 98.14 450.51 55.35 450.51 57.91 455.86 95.95 455.86" style="fill:#e0e0e0"></polygon><path d="M57.79,429.81a2.48,2.48,0,0,0,.17.25l.53.71,2.09,2.67.09.11.09-.12c1.31-1.81,3.05-4.23,5.11-7.07h-.29l5,7.13.16.22.18-.21,6-7.11h-.35l.33.41,5.34,6.7.18.22.16-.23,5-7.13h-.29l6.2,7.07.11.13.09-.14,1.94-3.27.5-.87a1.05,1.05,0,0,0,.15-.31,1.75,1.75,0,0,0-.21.28c-.14.22-.32.5-.55.84l-2,3.2.2,0-6.11-7.15-.15-.18-.14.19-5.08,7.1h.34l-5.33-6.7-.33-.42-.17-.21-.17.21-6,7.12H71l-5.09-7.09-.15-.21-.14.21c-2,2.87-3.73,5.32-5,7.15h.18l-2.16-2.59L58,430C57.87,429.88,57.8,429.8,57.79,429.81Z" style="fill:#f5f5f5"></path><path d="M56.63,420.53c0,.13,9,.23,20,.23s20-.1,20-.23-9-.22-20-.22S56.63,420.41,56.63,420.53Z" style="fill:#f5f5f5"></path><path d="M54.83,450.81c0,.12,9.73.22,21.73.22s21.73-.1,21.73-.22-9.73-.23-21.73-.23S54.83,450.68,54.83,450.81Z" style="fill:#f5f5f5"></path><polygon points="456.81 421.25 456.81 455.77 507.29 455.77 562.96 455.77 562.96 421.25 456.81 421.25" style="fill:#f5f5f5"></polygon><polygon points="452.36 411.6 452.36 421.25 566.67 421.25 566.67 411.6 507.29 411.6 452.36 411.6" style="fill:#e0e0e0"></polygon><polygon points="509.51 455.77 562.96 455.77 562.96 421.25 566.67 421.25 566.67 411.6 507.29 411.6 507.29 420.36 509.51 455.77" style="fill:#e0e0e0"></polygon><rect x="471.66" y="426.82" width="21.53" height="5.2" style="fill:#e0e0e0"></rect><rect x="468.89" y="438.51" width="27.64" height="10.97" style="fill:#fff"></rect><polygon points="591.4 421.16 591.4 455.67 641.87 455.67 697.54 455.67 697.54 421.16 591.4 421.16" style="fill:#f5f5f5"></polygon><polygon points="586.94 411.51 586.94 421.16 701.25 421.16 701.25 411.51 641.87 411.51 586.94 411.51" style="fill:#e0e0e0"></polygon><polygon points="644.1 455.67 697.54 455.67 697.54 421.16 701.25 421.16 701.25 411.51 641.87 411.51 641.87 420.26 644.1 455.67" style="fill:#e0e0e0"></polygon><rect x="606.24" y="426.72" width="21.53" height="5.2" style="fill:#e0e0e0"></rect><rect x="603.47" y="438.41" width="27.64" height="10.97" style="fill:#fff"></rect><polygon points="483.91 377.55 483.91 412.06 534.38 412.06 590.05 412.06 590.05 377.55 483.91 377.55" style="fill:#f5f5f5"></polygon><polygon points="479.45 367.9 479.45 377.55 593.76 377.55 593.76 367.9 534.38 367.9 479.45 367.9" style="fill:#e0e0e0"></polygon><polygon points="536.61 412.06 590.05 412.06 590.05 377.55 593.76 377.55 593.76 367.9 534.38 367.9 534.38 376.65 536.61 412.06" style="fill:#e0e0e0"></polygon><rect x="498.75" y="383.11" width="21.53" height="5.2" style="fill:#e0e0e0"></rect><rect x="495.98" y="394.8" width="27.64" height="10.97" style="fill:#fff"></rect><path d="M706.05,228.27,639.94,210a6.25,6.25,0,0,0-7.71,4.37L614,280.5a6.26,6.26,0,0,0,4.37,7.71l45.74,12.63,18.39,5.08,2,.54a6.27,6.27,0,0,0,7.71-4.38L710.42,236A6.25,6.25,0,0,0,706.05,228.27Z" style="fill:#fafafa"></path><path d="M631.81,218.68h74.4a3.94,3.94,0,0,1,3.94,3.94v21.67a0,0,0,0,1,0,0H629a0,0,0,0,1,0,0V221.46a2.78,2.78,0,0,1,2.78-2.78Z" transform="matrix(0.96, 0.27, -0.27, 0.96, 85.75, -169.85)" style="fill:#f5f5f5"></path><path d="M657.59,254l-7.34,26.58-6.15-1.7,6-21.64-5.31-1.47,1.36-4.94Z" style="fill:#e0e0e0"></path><path d="M683,261l-1.1,4-16.11,19.87L659.14,283l15.48-18.94-8.81-2.43L664.62,266l-5.47-1.51,2.58-9.34Z" style="fill:#e0e0e0"></path><path d="M680.05,236.16c0,.14-5.44-1.23-12.07-3.06s-12-3.43-11.93-3.56,5.44,1.23,12.07,3.06S680.09,236,680.05,236.16Z" style="fill:#e0e0e0"></path><rect x="675.1" y="220.87" width="18.32" height="5.28" rx="2.55" transform="translate(286.72 823.61) rotate(-74.57)" style="fill:#ebebeb"></rect><path d="M681.9,232.36a3.22,3.22,0,0,0,1.61-.2,2.44,2.44,0,0,0,1.28-1.31c.23-.69.42-1.58.68-2.5.51-1.9,1.1-4.12,1.75-6.58.34-1.24.69-2.53,1.06-3.87a2.39,2.39,0,0,0-.18-1.87,2.35,2.35,0,0,0-1.56-1.13,2.3,2.3,0,0,0-1.88.3,2.45,2.45,0,0,0-1,1.59c-.37,1.34-.73,2.64-1.08,3.87-.7,2.45-1.33,4.66-1.86,6.55-.14.46-.27.9-.39,1.33a6.77,6.77,0,0,0-.29,1.16,2.46,2.46,0,0,0,.55,1.75,3.42,3.42,0,0,0,1.34.91,1.29,1.29,0,0,1-.43-.08,2.5,2.5,0,0,1-1.07-.7,2.71,2.71,0,0,1-.68-1.9,6.74,6.74,0,0,1,.26-1.23c.11-.43.23-.87.35-1.34.51-1.9,1.1-4.12,1.76-6.57.34-1.24.69-2.54,1-3.88a3,3,0,0,1,1.23-1.89,2.84,2.84,0,0,1,2.31-.37,2.92,2.92,0,0,1,1.87,1.38,2.87,2.87,0,0,1,.22,2.25q-.57,2-1.08,3.87c-.7,2.44-1.33,4.65-1.87,6.55-.28.93-.48,1.76-.76,2.52a2.63,2.63,0,0,1-1.47,1.38,2.51,2.51,0,0,1-1.26.14A1.14,1.14,0,0,1,681.9,232.36Z" style="fill:#e0e0e0"></path><rect x="651.22" y="214.27" width="18.32" height="5.28" rx="2.55" transform="translate(275.57 795.77) rotate(-74.57)" style="fill:#ebebeb"></rect><path d="M658,225.77a3.22,3.22,0,0,0,1.61-.2,2.44,2.44,0,0,0,1.28-1.31c.23-.69.42-1.58.68-2.5.5-1.9,1.1-4.12,1.75-6.58.34-1.24.69-2.53,1.06-3.87a2.31,2.31,0,0,0-1.74-3,2.3,2.3,0,0,0-1.88.3,2.45,2.45,0,0,0-1,1.59c-.37,1.34-.73,2.64-1.08,3.87l-1.87,6.55-.38,1.33a6.77,6.77,0,0,0-.29,1.16,2.5,2.5,0,0,0,.54,1.75,3.49,3.49,0,0,0,1.35.91,1.29,1.29,0,0,1-.43-.08,2.5,2.5,0,0,1-1.07-.7,2.71,2.71,0,0,1-.68-1.9,6.74,6.74,0,0,1,.26-1.23c.11-.43.23-.87.35-1.34.51-1.9,1.1-4.12,1.76-6.57.34-1.24.69-2.54,1-3.88a3,3,0,0,1,1.23-1.89,2.84,2.84,0,0,1,2.31-.37,2.92,2.92,0,0,1,1.87,1.38,2.87,2.87,0,0,1,.22,2.25l-1.09,3.87c-.69,2.44-1.32,4.65-1.86,6.55-.28.93-.48,1.76-.76,2.51a2.65,2.65,0,0,1-1.47,1.39,2.54,2.54,0,0,1-1.27.14A1.13,1.13,0,0,1,658,225.77Z" style="fill:#e0e0e0"></path><rect x="84.61" y="31.81" width="134.76" height="242.09" style="fill:#ebebeb"></rect><rect x="90" y="38.83" width="122.6" height="227.86" style="fill:#fafafa"></rect><polygon points="225.07 276.08 219.37 273.9 219.37 27.7 225.07 27.7 225.07 276.08" style="fill:#e0e0e0"></polygon><path d="M120.05,186l31.84-29.59c4-3.75,9.31-7.79,14.5-5.94,2.5.89,4.38,3,6.82,4,4.89,2,10.47-.91,14.23-4.64s6.73-8.4,11.28-11.1,11.63-2.36,13.88,2.43v32.21l-46.27,19.81Z" style="fill:#f5f5f5"></path><path d="M90,167.5c11.73-4.78,23.44-.72,31.84,8.77,1.76,2,3.37,4.3,5.8,5.4,3.29,1.5,7.09.38,10.68,0a26.85,26.85,0,0,1,25.25,12.24L124.4,213.15,90,212.9Z" style="fill:#e0e0e0"></path><path d="M212.6,167.66c-7.73-3.73-14.53.78-21.66,5.56s-13.75,10.9-22.12,12.83c-5.59,1.28-11.57.57-17,2.49-11,3.92-17.36,17.9-29,18.57-6.33.36-12-3.48-17.66-6.36S95,195.13,90,199v67.7H212.6Z" style="fill:#ebebeb"></path><rect x="90" y="104.38" width="125.27" height="2.43" style="fill:#e0e0e0"></rect><rect x="90" y="158.64" width="125.27" height="2.43" style="fill:#e0e0e0"></rect><rect x="90" y="212.9" width="125.27" height="2.43" style="fill:#e0e0e0"></rect><rect x="67.52" y="186.27" width="167.56" height="6.19" transform="translate(-38.07 340.67) rotate(-90)" style="fill:#e0e0e0"></rect><rect x="113.6" y="38.83" width="2.81" height="66.76" style="fill:#e0e0e0"></rect><rect x="137.81" y="38.83" width="2.81" height="66.76" style="fill:#e0e0e0"></rect><rect x="162.01" y="38.83" width="2.81" height="66.76" style="fill:#e0e0e0"></rect><rect x="186.21" y="38.83" width="2.81" height="66.76" style="fill:#e0e0e0"></rect><rect x="78.91" y="27.7" width="5.7" height="247.69" style="fill:#e0e0e0"></rect><rect x="78.91" y="25.2" width="146.16" height="6.61" style="fill:#e0e0e0"></rect><rect x="74.87" y="276.9" width="154.06" height="6.15" style="fill:#e0e0e0"></rect><polygon points="219.37 273.9 228.93 276.9 74.87 276.9 84.61 273.9 219.37 273.9" style="fill:#ebebeb"></polygon><rect x="586.35" y="42.15" width="98.69" height="143.05" style="fill:#e0e0e0"></rect><rect x="581.41" y="42.15" width="98.69" height="143.05" style="fill:#f5f5f5"></rect><rect x="593.67" y="57.65" width="74.17" height="112.06" style="fill:#fff"></rect><path d="M667.83,169.71s0-.19,0-.55,0-.9,0-1.59c0-1.41,0-3.47,0-6.15,0-5.37,0-13.19-.06-23.08,0-19.76-.07-47.74-.12-80.69l.24.24-74.15,0h0l.26-.27c0,42.27,0,81.25,0,112.06l-.21-.22,54,.12,14.91,0,3.92,0,1.35,0-1.31,0-3.87,0-14.87.06-54.11.11h-.22v-.21c0-30.81,0-69.79-.05-112.06v-.27h.28l74.15,0h.25v.25c-.05,33-.09,61.05-.12,80.85,0,9.86-.05,17.67-.07,23,0,2.65,0,4.7,0,6.1,0,.68,0,1.19,0,1.56S667.83,169.71,667.83,169.71Z" style="fill:#e0e0e0"></path><path d="M680.37,42.15a16,16,0,0,1-1.76,2.56c-1.14,1.53-2.77,3.62-4.63,5.87s-3.59,4.26-4.88,5.67a16.37,16.37,0,0,1-2.17,2.22A19.81,19.81,0,0,1,668.82,56l4.75-5.77,4.74-5.76A19.52,19.52,0,0,1,680.37,42.15Z" style="fill:#e0e0e0"></path><path d="M668.21,169.35a91.57,91.57,0,0,0,12.94,16.17" style="fill:#fff"></path><path d="M681.15,185.52a14.43,14.43,0,0,1-2.26-2.05A72.87,72.87,0,0,1,674,178c-1.79-2.25-3.28-4.39-4.29-6a14.69,14.69,0,0,1-1.51-2.65,19.42,19.42,0,0,1,1.82,2.43c1.09,1.53,2.62,3.62,4.4,5.85s3.49,4.19,4.74,5.58A22.43,22.43,0,0,1,681.15,185.52Z" style="fill:#e0e0e0"></path><path d="M581.39,185.09l12.93-16" style="fill:#fff"></path><path d="M594.32,169.14a100.68,100.68,0,0,1-6.26,8.14,97.58,97.58,0,0,1-6.67,7.81,99.72,99.72,0,0,1,6.26-8.15A96.26,96.26,0,0,1,594.32,169.14Z" style="fill:#e0e0e0"></path><path d="M581.41,42.15a92.7,92.7,0,0,1,6.27,7.5,88.39,88.39,0,0,1,5.85,7.84,92.7,92.7,0,0,1-6.27-7.5A86.71,86.71,0,0,1,581.41,42.15Z" style="fill:#e0e0e0"></path><rect x="619.89" y="80.4" width="24.83" height="70.51" style="fill:#e0e0e0"></rect></g><g id="freepik--Floor--inject-2"><path d="M689.25,456.12c0,.14-141.6.26-316.23.26s-316.27-.12-316.27-.26,141.57-.26,316.27-.26S689.25,456,689.25,456.12Z" style="fill:#263238"></path></g><g id="freepik--Character--inject-2"><path d="M247.73,324.4,241.57,331s-26.3,42.66-29.47,46c-2,2.11-7,4.85-13.52,5.48-3.71.36-13.48-7.13-13.48-7.13l8.55-26.27,9.72-2.67L229.64,316Z" style="fill:#ffbe9d"></path><path d="M242.8,329.61c2.19-2.63,7.83-8.05,7.83-8.05L253,319a3.67,3.67,0,0,1,.26.65,2.6,2.6,0,0,0,.61,1.16,2.06,2.06,0,0,0,2.35,0,5,5,0,0,0,.18-8.57,3.82,3.82,0,0,0-.66-1.28c-2-2.59-6.75-2.25-6.75-2.25l.71-1s3.22-2,8.59,1.39a3.9,3.9,0,0,0,2.7.59,2,2,0,0,0,1.44-.88c.78-1.33.05-2.23-3.27-4.4s-7.24-3.16-9.73-2.23a26.07,26.07,0,0,0-3.4,1.44s5.86-9.45,6.21-10.07c1-1.77,1.05-3.71-.07-4.49-.72-.51-2-.61-3.22,1.42-1.07,1.75-14.27,18.35-14.27,18.35l-5.41,7.69Z" style="fill:#ffbe9d"></path><path d="M231.24,316.82a2.89,2.89,0,0,0,3.36.21c1.08-.55,1.93-1.45,3-2.08,3.09-1.89,7.3-1.12,10.29-3.15.42-.28.84-.76.65-1.23s-.74-.52-1.2-.53l-12-.5" style="fill:#ffbe9d"></path><path d="M235.34,309.54a5.35,5.35,0,0,1,1.3-.08c.83,0,2,0,3.53,0l5.23.14,1.51.05a2.4,2.4,0,0,1,1.73.48,1,1,0,0,1,.13,1.13,2.2,2.2,0,0,1-.65.73,8.65,8.65,0,0,1-1.56.83c-2.22.85-4.43.89-6.3,1.36a9.05,9.05,0,0,0-2.53,1c-.72.42-1.34,1-2,1.39a4.21,4.21,0,0,1-3.43,1c-.88-.23-1.13-.72-1.1-.72a3.5,3.5,0,0,0,1.15.46,4.07,4.07,0,0,0,3.09-1.09,24.2,24.2,0,0,1,2-1.5,9.28,9.28,0,0,1,2.66-1.08c2-.52,4.16-.59,6.2-1.39a7.34,7.34,0,0,0,1.42-.74c.4-.28.62-.69.42-.87s-.74-.25-1.25-.27l-1.51-.07-5.23-.29c-1.49-.09-2.69-.18-3.52-.25A4.84,4.84,0,0,1,235.34,309.54Z" style="fill:#eb996e"></path><path d="M248.84,308.68a5.1,5.1,0,0,1,1.74-1.44A3.8,3.8,0,0,1,253,307a9.76,9.76,0,0,1,2.79,1.19,14.86,14.86,0,0,0,2.83,1.4,5,5,0,0,0,2.6.22,2,2,0,0,0,1.39-1.08,1.11,1.11,0,0,0,.13-.63s-.09.21-.29.55a1.87,1.87,0,0,1-1.3.86,5,5,0,0,1-2.4-.3,17.8,17.8,0,0,1-2.74-1.4,9.9,9.9,0,0,0-2.93-1.21,4,4,0,0,0-2.59.31,3.57,3.57,0,0,0-1.33,1.15A1.39,1.39,0,0,0,248.84,308.68Z" style="fill:#eb996e"></path><path d="M252.62,292.86a14.84,14.84,0,0,0-1.18,1.88l-2.71,4.57-2.79,4.54a11.94,11.94,0,0,0-1.11,1.91A9.94,9.94,0,0,0,246.2,304c.79-1.12,1.83-2.7,2.9-4.48s2-3.44,2.62-4.65A10,10,0,0,0,252.62,292.86Z" style="fill:#eb996e"></path><path d="M249.69,312.13a2.51,2.51,0,0,0,.68.12,2.07,2.07,0,0,1,1.5.82,1.11,1.11,0,0,1,0,1.09,5.47,5.47,0,0,1-.84,1.17,2.56,2.56,0,0,0-.68,1.63,2.17,2.17,0,0,0,1,1.63,2.42,2.42,0,0,0,1.88.26,3,3,0,0,0,1.51-.9,9.55,9.55,0,0,0,1.44-2.45,6,6,0,0,0,.47-1.86,1.22,1.22,0,0,0-.11-.69,6.76,6.76,0,0,0-.06.68,6.73,6.73,0,0,1-.59,1.75,10.19,10.19,0,0,1-1.45,2.3,2.38,2.38,0,0,1-2.85.54,1.69,1.69,0,0,1-.79-1.29,2.11,2.11,0,0,1,.56-1.35,6,6,0,0,0,.86-1.28,1.44,1.44,0,0,0-.09-1.4,2.15,2.15,0,0,0-1.75-.82A1.71,1.71,0,0,0,249.69,312.13Z" style="fill:#eb996e"></path><path d="M253.25,318.47s-.19.15-.27.56a1.9,1.9,0,0,0,.51,1.65,2.57,2.57,0,0,0,2.47.62,4.23,4.23,0,0,0,2.45-1.93,5.16,5.16,0,0,0,.73-3,4.92,4.92,0,0,0-.87-2.39,4.63,4.63,0,0,0-1.21-1.2c-.34-.22-.55-.29-.57-.27a7.94,7.94,0,0,1,1.52,1.64,4.68,4.68,0,0,1,.72,2.25,4.76,4.76,0,0,1-.7,2.77,3.89,3.89,0,0,1-2.18,1.77,2.25,2.25,0,0,1-2.14-.45,1.82,1.82,0,0,1-.56-1.41C253.17,318.68,253.29,318.48,253.25,318.47Z" style="fill:#eb996e"></path><path d="M242.85,320.83s-.28-.31-.92-.54a4.17,4.17,0,0,0-2.7,0l.26.29a14.07,14.07,0,0,0,.56-1.4,9.55,9.55,0,0,0,.46-5.15,24.45,24.45,0,0,1-.88,5c-.16.49-.34.94-.52,1.36l-.21.46.47-.17a4.27,4.27,0,0,1,2.49-.14C242.48,320.69,242.82,320.88,242.85,320.83Z" style="fill:#eb996e"></path><path d="M252.86,304.78c-.11,0-.16.89.46,1.76s1.47,1.12,1.5,1-.62-.51-1.14-1.27S253,304.76,252.86,304.78Z" style="fill:#eb996e"></path><path d="M199.57,400.86l-11-19.28,4.47-27.15a38.71,38.71,0,0,0-1.78-27.15l-15.08-29.22-13.46-4.79L134.3,290a106.4,106.4,0,0,0-14.46,3.86c-7.86,2.61-11.87,6.66-16.11,13.78h0l14.94,72.22s-12.14,30.37-10,47.73Z" style="fill:#494A80"></path><path d="M173.68,297.3s17.67,3.91,24.11,28L205.72,351l-14.5.89Z" style="fill:#494A80"></path><path d="M192.53,352.72a1.21,1.21,0,0,0,.16-.36c.09-.24.24-.59.39-1.06a19.18,19.18,0,0,0,.74-4.07A27,27,0,0,0,191.11,334c-.58-1.21-1.22-2.35-1.87-3.42s-1.25-2.12-1.79-3.13a32.51,32.51,0,0,1-2.43-5.58c-.55-1.65-.94-3-1.23-3.93-.13-.43-.24-.79-.33-1.07a1.73,1.73,0,0,0-.14-.37,1.55,1.55,0,0,0,.07.39l.27,1.09c.24.94.6,2.31,1.11,4a31.73,31.73,0,0,0,2.38,5.66c.54,1,1.15,2.07,1.78,3.15s1.27,2.2,1.84,3.4a27.72,27.72,0,0,1,2.8,13.09,22,22,0,0,1-.63,4.05A14.76,14.76,0,0,0,192.53,352.72Z" style="fill:#263238"></path><path d="M188.25,350l8.22-15.17a3.1,3.1,0,0,1,2.74-1.63h58.52a3.12,3.12,0,0,1,2.76,1.66h0l-58,39-25.66,2.94h0a3.7,3.7,0,0,1,0-3.35Z" style="fill:#263238"></path><g style="opacity:0.30000000000000004"><path d="M126.37,384.68c10.28-4.48,22.09-5.13,31.76-10.81,3.69-2.18,7-5,10.74-7.06s8.37-3.17,12.36-1.59,7,7.56,4.94,11.32c-.79,2-4.57,3.88-6.72,3.69s-4.17-1.06-6.31-1.34c-4.58-.58-9,1.69-13.12,3.75a218,218,0,0,1-27.55,11.47c-2.2.74-4.52,1.46-6.82,1.12s-4.56-2.08-4.71-4.4C120.75,387.91,123.69,385.85,126.37,384.68Z"></path></g><path d="M176.82,376.77l20.52-40.18a3.21,3.21,0,0,1,2.85-1.75h60.58L238.2,375.49l-61.38,1.28Z" style="fill:#455a64"></path><path d="M224.3,349.3a2,2,0,1,1,.31-2.76A2,2,0,0,1,224.3,349.3Z" style="fill:#ebebeb"></path><path d="M171,355.81l6.09-4.71a13.19,13.19,0,0,1,10.27-4.91h3.32l2.27,2.55s16.25.71,16.85,2.71l0,.65v.38l-13.91.93s11.83,0,12.54,0,3.3-.2,3.25,1.19c-.05,1.14-1.4,2-3.44,2.34-.84.12-11.09,1-11.09,1l11.28-.1c1.27,0,1.11,2,.35,2.27-.59.2-15,4.42-15,4.42s2.43,1.63,4.41,1.48,5.38-2.69,6.09-1.48.56,1.91.14,2.19a50.58,50.58,0,0,1-6.66,3.12c-1.55.42-14.27,2.44-14.27,2.44l-10.55-1.36Z" style="fill:#ffbe9d"></path><path d="M198.48,348.93a47.26,47.26,0,0,0-5.7-.2,45.79,45.79,0,0,0-5.71.14,43.81,43.81,0,0,0,5.71.21A44.34,44.34,0,0,0,198.48,348.93Z" style="fill:#eb996e"></path><path d="M171,355.81l-44.75,8.52-4.49-56.27s-7.09-10-13.48-3.07-8.58,17.87-8.17,22,1.22,49.26,4.6,57.4c4.71,11.37,16.79,10.76,20.17,9.93s51.51-23.59,51.51-23.59Z" style="fill:#ffbe9d"></path><path d="M123.41,307.77c1.57,12.71,4.67,32.15,4.84,45,0,.52-30.77,3.09-30.77,3.09s1-26.71,2.16-35.52c1.32-10,4.57-13.41,4.57-13.41l9.38-7.39Z" style="fill:#494A80"></path><path d="M97.48,355.81l.62,0,1.79-.14,6.57-.6,21.82-2.13.2,0,0-.2c0-.39-.05-.82-.08-1.24-.62-8.85-1.19-16.86-1.6-22.71-.22-2.87-.4-5.21-.53-6.87-.07-.79-.12-1.41-.16-1.87a3.73,3.73,0,0,0-.09-.65,5.31,5.31,0,0,0,0,.65c0,.47,0,1.09.09,1.88.1,1.66.23,4,.4,6.88.38,5.85.9,13.86,1.47,22.71,0,.43.06.86.09,1.25l.18-.22-21.8,2.25-6.56.73-1.78.22A3.86,3.86,0,0,0,97.48,355.81Z" style="fill:#263238"></path><path d="M197.12,323c0,.16-2.61.18-5.7,1s-5.41,2-5.49,1.82A17.85,17.85,0,0,1,197.12,323Z" style="fill:#fff"></path><path d="M126.82,337.08a4.59,4.59,0,0,1-.62.22,12.94,12.94,0,0,1-1.84.37,14.52,14.52,0,0,1-15.67-10.22,9.71,9.71,0,0,1-.44-3.11,6.15,6.15,0,0,1,.91-3.17,3.82,3.82,0,0,1,2.91-1.75,5,5,0,0,1,5,3.89,8.28,8.28,0,0,1-1.11,6,12.06,12.06,0,0,1-8.32,5.71,11.06,11.06,0,0,1-6.82-.85,10,10,0,0,1-1.6-1,2.4,2.4,0,0,1-.48-.44,17.59,17.59,0,0,0,2.17,1.26,11.18,11.18,0,0,0,6.67.67,11.72,11.72,0,0,0,8-5.59,7.85,7.85,0,0,0,1-5.61,4.52,4.52,0,0,0-4.45-3.5,3.31,3.31,0,0,0-2.52,1.51,5.71,5.71,0,0,0-.83,2.9,11.59,11.59,0,0,0,1.51,5.64,14.26,14.26,0,0,0,7.36,6.56,14.74,14.74,0,0,0,6.7.92C126,337.32,126.81,337,126.82,337.08Z" style="fill:#fff"></path><path d="M187.54,330.12a8.84,8.84,0,0,1-1.12.69,12.68,12.68,0,0,1-3.56,1.23,13,13,0,0,1-6-.28,13.15,13.15,0,0,1-6.51-4.4,11.61,11.61,0,0,1-2.14-4.1,6.45,6.45,0,0,1-.21-2.49,4.57,4.57,0,0,1,1-2.4,5,5,0,0,1,5-1.75,4.92,4.92,0,0,1,3,7.2,7.36,7.36,0,0,1-2,2.3,11.51,11.51,0,0,1-5.9,2.05c-4.29.39-8.55-1-12.94-1.35a14.18,14.18,0,0,0-6.37.74,9,9,0,0,0-4.64,4,5.73,5.73,0,0,0-.69,2.88,5.44,5.44,0,0,0,.9,2.74,6.25,6.25,0,0,0,4.72,2.81c1.81.11,3.77-.84,4.27-2.53a4.14,4.14,0,0,0-.08-2.51,7.11,7.11,0,0,0-1.2-2.22,13.38,13.38,0,0,0-8.15-4.28,21.24,21.24,0,0,0-7.76.28,41.81,41.81,0,0,0-5.69,1.66c-1.53.56-2.7,1-3.5,1.34l-.92.35a1.52,1.52,0,0,1-.31.11s.09-.06.29-.16l.9-.4c.78-.34,2-.84,3.47-1.43a39.6,39.6,0,0,1,5.7-1.76,21.53,21.53,0,0,1,7.88-.35,13.75,13.75,0,0,1,8.43,4.37,7.77,7.77,0,0,1,1.29,2.35,4.65,4.65,0,0,1,.09,2.79,3.83,3.83,0,0,1-1.86,2.21,5.45,5.45,0,0,1-2.87.66,6.71,6.71,0,0,1-5.12-3,5.94,5.94,0,0,1-1-3,6.15,6.15,0,0,1,.74-3.13,9.52,9.52,0,0,1,4.89-4.2,14.66,14.66,0,0,1,6.61-.78c4.48.37,8.7,1.74,12.86,1.36a10.94,10.94,0,0,0,5.64-1.94,5.48,5.48,0,0,0,2.48-4.81,4.37,4.37,0,0,0-7.82-2.27,5,5,0,0,0-.75,4.52,11.48,11.48,0,0,0,2.05,4,12.64,12.64,0,0,0,12.13,4.7A14.51,14.51,0,0,0,187.54,330.12Z" style="fill:#fff"></path><g style="opacity:0.30000000000000004"><path d="M125.9,357.09s2.14-.56,3.46-.95a5.06,5.06,0,0,0,3-3.33,4.83,4.83,0,0,0-.09-1.89c-1.62-8.83-3.25-17.68-5.58-26.35a213.75,213.75,0,0,0,1.63,24.9,23.93,23.93,0,0,1,0,3.25l-2.8.48Z"></path></g><path d="M254.58,448.07s9.92,2.15,18.78.82c8.3-1.25,26.89,0,26.89,11,0,12.2-24.8,9.18-34.47,7.25s-19.31-3.69-19.31-3.69Z" style="fill:#455a64"></path><path d="M276.85,463.71a21.18,21.18,0,0,0,1.19-4.25,20.19,20.19,0,0,0,.74-4.35,20.06,20.06,0,0,0-1.2,4.25A20.51,20.51,0,0,0,276.85,463.71Z" style="fill:#263238"></path><path d="M273.46,463.87a20.48,20.48,0,0,0,.84-4.36,21.13,21.13,0,0,0,.37-4.41,20.47,20.47,0,0,0-.84,4.35A21.18,21.18,0,0,0,273.46,463.87Z" style="fill:#263238"></path><path d="M270.2,462.59a32.19,32.19,0,0,0,.92-7.66,30.88,30.88,0,0,0-.92,7.66Z" style="fill:#263238"></path><path d="M265.06,461.31a13,13,0,0,0,1.64-6.75,25.48,25.48,0,0,0-.82,3.37A26.45,26.45,0,0,0,265.06,461.31Z" style="fill:#263238"></path><path d="M264,456.85a4.77,4.77,0,0,0-1.3-.08,10.9,10.9,0,0,0-3.48.68,3.68,3.68,0,0,0-1.08.58,1.66,1.66,0,0,0-.67,1.2,1.85,1.85,0,0,0,2.25,1.64,4.62,4.62,0,0,0,2.59-1.85,8.1,8.1,0,0,0,.37-9.37,1.3,1.3,0,0,0-.74-.44,1,1,0,0,0-.82.26,2.16,2.16,0,0,0-.62,1.33,6.73,6.73,0,0,0,.13,2.48,7,7,0,0,0,1.67,3.13,6.3,6.3,0,0,0,.73.64,1,1,0,0,0,.29.18s-.35-.31-.88-.94a7.23,7.23,0,0,1-1.48-3.08,6.33,6.33,0,0,1-.07-2.35,1.85,1.85,0,0,1,.5-1.08.64.64,0,0,1,1,.16,7.44,7.44,0,0,1,1,5.92,7.61,7.61,0,0,1-1.37,2.88,4.24,4.24,0,0,1-2.3,1.7,1.44,1.44,0,0,1-1.77-1.2,1.26,1.26,0,0,1,.51-.93,3.52,3.52,0,0,1,1-.55,12.3,12.3,0,0,1,3.37-.81C263.5,456.88,264,456.89,264,456.85Z" style="fill:#263238"></path><path d="M247.45,461.83l.25.08.75.18,2.87.66c2.51.55,6.13,1.32,10.64,2.19s9.9,1.85,15.94,2.68a42.89,42.89,0,0,0,9.57.47,20.58,20.58,0,0,0,5-.95,14.66,14.66,0,0,0,2.4-1.07,7.46,7.46,0,0,0,2.12-1.71l0,0a4.57,4.57,0,0,0,.86-1,6.44,6.44,0,0,0,.51-5.34,8.55,8.55,0,0,0-3.18-4.16,16.16,16.16,0,0,0-4.52-2.24c-.79-.22-1.56-.49-2.35-.67s-1.56-.37-2.33-.48c-6.22-1-11.87-.48-16.57-.48-2.36.05-4.49,0-6.35-.13a42,42,0,0,1-4.75-.6l-1.71-.36-1.23-.35-.76-.21a1,1,0,0,0-.27-.06l.25.1.75.26,1.22.4,1.71.4a38.6,38.6,0,0,0,4.77.68c1.87.14,4,.23,6.37.21,4.71,0,10.36-.42,16.49.58.77.11,1.53.32,2.31.47s1.52.45,2.3.67a15.69,15.69,0,0,1,4.39,2.19,8.08,8.08,0,0,1,3,3.92,6,6,0,0,1-.46,4.95,4.43,4.43,0,0,1-.78.93v0l0,0a7.37,7.37,0,0,1-2,1.57,14.52,14.52,0,0,1-2.32,1,20,20,0,0,1-4.91.94,42.93,42.93,0,0,1-9.48-.44c-6-.8-11.41-1.75-15.93-2.58s-8.15-1.55-10.66-2l-2.89-.57-.76-.14A.84.84,0,0,0,247.45,461.83Z" style="fill:#263238"></path><path d="M283.73,467.7a17.21,17.21,0,0,0,.24-2.53c.11-1.56.3-3.72.61-6.09s.71-4.5,1-6a18.57,18.57,0,0,0,.44-2.51,11.35,11.35,0,0,0-.77,2.44,54.14,54.14,0,0,0-1.15,6,55.26,55.26,0,0,0-.48,6.13A10.59,10.59,0,0,0,283.73,467.7Z" style="fill:#263238"></path><g style="opacity:0.4"><polygon points="257.64 448.6 251.35 464.35 246.47 463.44 255.81 448.07 257.64 448.6"></polygon></g><path d="M110.83,426.47l24-19.7h0a29.66,29.66,0,0,1,31.85-24.23h0a29.56,29.56,0,0,1,16.1,6.61L196.65,400c21.6-5.89,45.17-16.81,62-21.55A25,25,0,0,1,279,381.56l.32.21a24.94,24.94,0,0,1,10.74,26.6h0c-1.51,6.51-6.34,11.1-11.26,15.62-8.67,8-23.81,21.77-23.81,21.77l1.5,1.18-10,16.5-20.65-6.36c-14-2-43.43-5.83-43.43-5.83l8.43-5-1.93-.6c-16,13.67-35.67,20-60,9.36C116.93,449.43,109.44,435.92,110.83,426.47Z" style="fill:#263238"></path><path d="M151.9,424.27s.06.07.19.18l.61.5,2.35,1.87,1.7,1.35c.62.49,1.36.95,2.11,1.48l2.45,1.68c.44.3.88.61,1.35.91l1.46.89c2,1.19,4.17,2.56,6.62,3.8,1.22.64,2.46,1.33,3.77,2l4.07,1.93c5.62,2.56,11.9,5.13,18.64,7.43,13.47,4.64,25.93,8,34.85,10.68,2.23.66,4.25,1.28,6,1.84s3.3,1,4.53,1.43l2.86.93.74.23a.88.88,0,0,0,.26.06s-.08,0-.24-.11l-.73-.27-2.83-1c-1.23-.45-2.74-.95-4.5-1.52s-3.77-1.22-6-1.9c-8.9-2.79-21.34-6.18-34.79-10.81-6.73-2.29-13-4.85-18.62-7.38l-4.07-1.91c-1.31-.64-2.55-1.32-3.77-1.95-2.45-1.22-4.61-2.57-6.62-3.74-.51-.3-1-.58-1.47-.87s-.91-.6-1.35-.89L159,429.44c-.77-.53-1.51-1-2.14-1.45l-1.72-1.31c-1-.77-1.83-1.37-2.4-1.81l-.63-.46C152,424.31,151.91,424.26,151.9,424.27Z" style="fill:#455a64"></path><path d="M150.11,432a2.79,2.79,0,0,0,.74.39c.49.23,1.22.52,2.12.86a54.21,54.21,0,0,0,7.23,2.09,51.91,51.91,0,0,0,7.46,1.06c1,.07,1.74.1,2.28.09a2.46,2.46,0,0,0,.83-.05,28.42,28.42,0,0,0-3.08-.37c-1.91-.21-4.53-.58-7.39-1.19s-5.4-1.36-7.22-1.95A29.88,29.88,0,0,0,150.11,432Z" style="fill:#455a64"></path><path d="M185.71,391.92c-.09.1,15.7,12.51,35.25,27.7s35.46,27.43,35.54,27.32-15.7-12.5-35.25-27.7S185.79,391.82,185.71,391.92Z" style="fill:#455a64"></path><path d="M129,445.15a3.08,3.08,0,0,0,.05-.52c0-.4,0-.88,0-1.47,0-1.28.07-3.12.18-5.4a129.91,129.91,0,0,1,6.54-34.93c.72-2.16,1.34-3.9,1.79-5.1.2-.55.36-1,.5-1.38a3.13,3.13,0,0,0,.14-.5s-.1.15-.24.46-.36.81-.59,1.35c-.51,1.17-1.18,2.9-1.95,5A117.57,117.57,0,0,0,130.76,420a116.36,116.36,0,0,0-1.92,17.76c-.06,2.29-.06,4.14,0,5.42q0,.88.06,1.47A1.81,1.81,0,0,0,129,445.15Z" style="fill:#455a64"></path><path d="M189.82,444.9s-.08,0-.2.15l-.57.48c-.5.42-1.19,1.08-2.15,1.86a56,56,0,0,1-23.12,11.27c-.71.19-1.43.31-2.17.44s-1.48.27-2.23.39c-1.52.16-3.06.41-4.64.45a51.4,51.4,0,0,1-9.8-.29l-2.48-.34-2.42-.5a43.21,43.21,0,0,1-4.67-1.25,44.6,44.6,0,0,1-8.35-3.68,33.38,33.38,0,0,1-11.31-10.33,28.4,28.4,0,0,1-4.17-9.49,26.62,26.62,0,0,1-.49-2.8c0-.3-.07-.54-.09-.74a1.43,1.43,0,0,0,0-.25,1,1,0,0,0,0,.26c0,.19,0,.44,0,.74a22.09,22.09,0,0,0,.39,2.83,27.92,27.92,0,0,0,4.07,9.66,33.53,33.53,0,0,0,11.38,10.55,44.57,44.57,0,0,0,8.43,3.74,41.74,41.74,0,0,0,4.71,1.27l2.45.51,2.51.35a52.34,52.34,0,0,0,9.89.28c1.6,0,3.15-.31,4.68-.47.76-.12,1.51-.27,2.25-.4a22.37,22.37,0,0,0,2.19-.46,55.94,55.94,0,0,0,14.52-5.58,53.55,53.55,0,0,0,8.62-6c.94-.81,1.62-1.5,2.09-1.94l.53-.52A1,1,0,0,0,189.82,444.9Z" style="fill:#455a64"></path><path d="M255.66,389.77a11.44,11.44,0,0,1-1.53.92c-1,.55-2.44,1.42-4.16,2.54s-3.7,2.55-5.83,4.24-4.36,3.68-6.64,5.83c-4.55,4.33-8.47,8.46-11.4,11.36-1.46,1.45-2.66,2.62-3.51,3.4a11.07,11.07,0,0,1-1.34,1.18,11.7,11.7,0,0,1,1.2-1.32l3.38-3.52c2.86-3,6.74-7.14,11.31-11.48,2.29-2.16,4.56-4.13,6.71-5.82a67.2,67.2,0,0,1,5.92-4.18c1.76-1.09,3.22-1.91,4.26-2.41A12.39,12.39,0,0,1,255.66,389.77Z" style="fill:#455a64"></path><path d="M178.49,449.78c4.16-2.22,8.83-.91,12.81.43,2.65.89,5.4,2.31,8.09,1.55,2-.55,3.39-2.12,4.88-3.49a30.67,30.67,0,0,1,22.42-8,9.11,9.11,0,0,1,6.15,2.79c4.09,4.42,1,10.18-2.64,13.9a40.34,40.34,0,0,1-24.38,11.76c-7.61.8-18.07-.25-25.79-3.56-4.76-2-7.2-7.65-4.7-12.18A7.82,7.82,0,0,1,178.49,449.78Z" style="fill:#455a64"></path><g style="opacity:0.4"><path d="M178.5,453.32c4.16-2.22,8.83-.91,12.81.43,2.65.9,5.4,2.31,8.09,1.55,1.95-.54,3.39-2.12,4.88-3.49a30.62,30.62,0,0,1,22.42-8,9.07,9.07,0,0,1,6.15,2.78,7,7,0,0,1,1.72,3.1,16.25,16.25,0,0,1-4.36,7.26,40.34,40.34,0,0,1-24.38,11.76c-7.61.8-18.07-.25-25.79-3.56a9.41,9.41,0,0,1-5.49-6.54,8,8,0,0,1,3.95-5.26Z"></path></g><path d="M174.55,458.58a7.47,7.47,0,0,1,1-2.46,8,8,0,0,1,2.23-2.18,8.81,8.81,0,0,1,3.82-1.46c3.09-.37,6.67.93,10.65,2,2,.52,4.11,1.32,6.46,1a8.6,8.6,0,0,0,3.32-1.15,21.16,21.16,0,0,0,2.86-2.15,31,31,0,0,1,17-8.07,17.76,17.76,0,0,1,5,0,10.88,10.88,0,0,1,3.89,1.35,9.85,9.85,0,0,1,2.39,2,26.65,26.65,0,0,1,1.54,2.21,8.88,8.88,0,0,0-1.37-2.35A9.88,9.88,0,0,0,231,445.2a10.94,10.94,0,0,0-4-1.48,17.34,17.34,0,0,0-5.15,0,29.21,29.21,0,0,0-5.77,1.28,33.11,33.11,0,0,0-6,2.64,23.66,23.66,0,0,0-2.91,1.89c-.92.72-1.8,1.52-2.7,2.3a20.74,20.74,0,0,1-2.77,2.09,8.1,8.1,0,0,1-3.11,1.09c-2.18.29-4.27-.46-6.26-1-4-1-7.6-2.33-10.83-1.91a8.94,8.94,0,0,0-6.18,3.92,5.69,5.69,0,0,0-.77,1.88A2.85,2.85,0,0,0,174.55,458.58Z" style="fill:#263238"></path><path d="M174.55,458.58a7.47,7.47,0,0,1,1-2.46,8,8,0,0,1,2.23-2.18,8.81,8.81,0,0,1,3.82-1.46c3.09-.37,6.67.93,10.65,2,2,.52,4.11,1.32,6.46,1a8.6,8.6,0,0,0,3.32-1.15,21.16,21.16,0,0,0,2.86-2.15,31,31,0,0,1,17-8.07,17.76,17.76,0,0,1,5,0,10.88,10.88,0,0,1,3.89,1.35,9.85,9.85,0,0,1,2.39,2,26.65,26.65,0,0,1,1.54,2.21,8.88,8.88,0,0,0-1.37-2.35A9.88,9.88,0,0,0,231,445.2a10.94,10.94,0,0,0-4-1.48,17.34,17.34,0,0,0-5.15,0,29.21,29.21,0,0,0-5.77,1.28,33.11,33.11,0,0,0-6,2.64,23.66,23.66,0,0,0-2.91,1.89c-.92.72-1.8,1.52-2.7,2.3a20.74,20.74,0,0,1-2.77,2.09,8.1,8.1,0,0,1-3.11,1.09c-2.18.29-4.27-.46-6.26-1-4-1-7.6-2.33-10.83-1.91a8.94,8.94,0,0,0-6.18,3.92,5.69,5.69,0,0,0-.77,1.88A2.85,2.85,0,0,0,174.55,458.58Z" style="fill:#263238"></path><path d="M226.15,457.58A11.65,11.65,0,0,0,224,456.1a61.63,61.63,0,0,0-5.52-2.94,59.35,59.35,0,0,0-5.78-2.36,10.1,10.1,0,0,0-2.49-.7,14,14,0,0,0,2.35,1.06c1.47.62,3.49,1.48,5.69,2.51s4.14,2,5.55,2.78A13.11,13.11,0,0,0,226.15,457.58Z" style="fill:#263238"></path><path d="M224.72,461.74a75.1,75.1,0,0,0-8.13-4.24,74.08,74.08,0,0,0-8.37-3.73,77.28,77.28,0,0,0,8.13,4.24A74.08,74.08,0,0,0,224.72,461.74Z" style="fill:#263238"></path><path d="M207.48,463.55c.08.13,4.52-2.52,9.9-5.91s9.69-6.25,9.61-6.38-4.52,2.51-9.91,5.91S207.4,463.41,207.48,463.55Z" style="fill:#263238"></path><path d="M205,459.23a13.65,13.65,0,0,0,2.17-1.45c1.3-.94,3.1-2.24,5.11-3.64s3.87-2.62,5.21-3.51a12.94,12.94,0,0,0,2.11-1.53,11.66,11.66,0,0,0-2.32,1.19c-1.4.81-3.29,2-5.31,3.39s-3.8,2.76-5,3.78A11,11,0,0,0,205,459.23Z" style="fill:#263238"></path><path d="M173.62,225a18.83,18.83,0,0,0-9.36-11.17c-4.88-2.49-10.7-2.7-16-1.47A50.38,50.38,0,0,0,133.28,219a24.5,24.5,0,0,0-7.06,5.84c-3.37,4.49-6.61,11.81-6.79,17.42-.14,4.53,1.91,15.82,3.95,19.88.72,1.44,2.41,2.72,4.45,3.79a38.53,38.53,0,0,0,8.51,10.62q1.44-4.6,2.89-9.21Z" style="fill:#263238"></path><path d="M170.85,219.44l-9-1.34c5.21,11.47,7.29,38,10.43,50.21,3.16-4.86,10.38-19.62,9.81-25.39S181.43,218.15,170.85,219.44Z" style="fill:#263238"></path><path d="M129.09,240a15.25,15.25,0,0,1,11.07-14.36l20.4-5.83c8.85-1.21,15.1,9.54,15.93,18.44.93,9.89,1.63,20.33.68,27.76-1.9,14.93-13.23,17.17-13.23,17.17s.2,7.07.31,11.41L160.93,314l-26.9-23-5-50.89C129,239.91,129.07,240.32,129.09,240Z" style="fill:#ffbe9d"></path><path d="M173.91,249.59a1.91,1.91,0,0,1-1.78,2,1.81,1.81,0,0,1-2-1.66,1.9,1.9,0,0,1,1.77-2A1.82,1.82,0,0,1,173.91,249.59Z" style="fill:#263238"></path><path d="M174.43,244.12c-.23.25-1.71-.77-3.76-.7s-3.52,1.14-3.75.89c-.11-.1.11-.56.75-1.06a5.25,5.25,0,0,1,3-1,5,5,0,0,1,3,.87C174.31,243.56,174.54,244,174.43,244.12Z" style="fill:#263238"></path><path d="M156,249.61a1.9,1.9,0,0,1-1.78,2,1.81,1.81,0,0,1-2-1.66,1.91,1.91,0,0,1,1.77-2A1.82,1.82,0,0,1,156,249.61Z" style="fill:#263238"></path><path d="M155,244.67c-.23.26-1.71-.76-3.76-.69s-3.52,1.14-3.75.89.11-.56.76-1.06a5.22,5.22,0,0,1,3-1,5,5,0,0,1,3,.87C154.83,244.12,155.06,244.56,155,244.67Z" style="fill:#263238"></path><path d="M161.82,260.6a13.75,13.75,0,0,1,3.31-.7c.53-.07,1-.19,1.1-.55a2.7,2.7,0,0,0-.4-1.54l-1.67-3.94c-2.33-5.62-4-10.24-3.8-10.33s2.29,4.38,4.62,10l1.61,4a3.1,3.1,0,0,1,.33,2.05,1.31,1.31,0,0,1-.84.79,3.45,3.45,0,0,1-.88.15A13,13,0,0,1,161.82,260.6Z" style="fill:#263238"></path><path d="M144.07,278.44s5.13,10.07,20,8.22l-.09-3.5A37.54,37.54,0,0,1,144.07,278.44Z" style="fill:#eb996e"></path><path d="M154.09,237.28c-.18.56-2.24.36-4.63.73s-4.33,1.08-4.66.59c-.15-.24.17-.77.94-1.34a8.13,8.13,0,0,1,7.08-1C153.72,236.59,154.17,237,154.09,237.28Z" style="fill:#263238"></path><path d="M173.58,237.86c-.35.48-1.77,0-3.47.07s-3.13.41-3.48-.07c-.15-.23.06-.7.68-1.16a5,5,0,0,1,5.6,0C173.52,237.16,173.73,237.63,173.58,237.86Z" style="fill:#263238"></path><path d="M172.07,224.77a6.53,6.53,0,0,0-5.88-3.53,12.62,12.62,0,0,0-6.8,2.19c-8.71,5.37-12.9,17.86-21.5,23.4-2.11,1.36-4.94.25-6.72,2s-2.89,4.56-1.82,6.84a21.16,21.16,0,0,1-3.18-5,7.06,7.06,0,0,1,.08-5.8c.72-1.33,2-2.37,2.36-3.85.28-1.3-.27-2.64-.25-4a8.71,8.71,0,0,1,1.25-3.83c3.26-6.16,7.81-11.77,13.79-15.35a25.18,25.18,0,0,1,12.94-3.75,19.29,19.29,0,0,1,12.55,4.57c2,1.77,4.12,3.6,3.18,6.1" style="fill:#263238"></path><path d="M131.43,250.69c-.17-.42-8-3-7.87,5.25.13,8,8.16,6.2,8.17,6S131.43,250.69,131.43,250.69Z" style="fill:#ffbe9d"></path><path d="M129.21,258.92s-.14.1-.38.22a1.38,1.38,0,0,1-1,0c-.85-.3-1.59-1.62-1.65-3.07a4.46,4.46,0,0,1,.35-2,1.59,1.59,0,0,1,1-1.09.71.71,0,0,1,.83.36c.11.23.06.39.1.4s.17-.14.1-.47a.84.84,0,0,0-.32-.49,1,1,0,0,0-.78-.19A2,2,0,0,0,126,253.9a4.66,4.66,0,0,0-.44,2.24c.08,1.61.93,3.11,2.1,3.42a1.53,1.53,0,0,0,1.27-.24C129.19,259.12,129.23,258.94,129.21,258.92Z" style="fill:#eb996e"></path><path d="M128.13,246.67a3.65,3.65,0,0,0,.48-.28c.3-.21.76-.48,1.31-.89a27.43,27.43,0,0,0,4.21-4.06,76.75,76.75,0,0,0,5.09-7,64.25,64.25,0,0,1,6.37-8.41,25.08,25.08,0,0,1,4.17-3.49,20.82,20.82,0,0,1,4.55-2.23,22.92,22.92,0,0,1,8.45-1.28,21.88,21.88,0,0,1,5.71,1c.66.18,1.16.39,1.5.51a3.48,3.48,0,0,0,.53.17l-.5-.24a14.23,14.23,0,0,0-1.49-.57,20.65,20.65,0,0,0-5.74-1.08A22.65,22.65,0,0,0,154.2,220a20.52,20.52,0,0,0-4.63,2.24,25,25,0,0,0-4.24,3.53,61.76,61.76,0,0,0-6.39,8.48,79.92,79.92,0,0,1-5,7,29.6,29.6,0,0,1-4.09,4.11c-.54.43-1,.72-1.28,1A2.61,2.61,0,0,0,128.13,246.67Z" style="fill:#455a64"></path><path d="M128.34,260.37a1.58,1.58,0,1,0,1.24,2.08,1.65,1.65,0,0,0-.87-2" style="fill:#fff"></path><path d="M128.71,260.47a2.18,2.18,0,0,1,.75,1.06,1.34,1.34,0,0,1-.27,1.26,1.49,1.49,0,0,1-1.48.47,1.51,1.51,0,0,1-1-1.18,1.37,1.37,0,0,1,.44-1.22,2.12,2.12,0,0,1,1.2-.49s-.13-.08-.38-.08a1.63,1.63,0,0,0-1,.38,1.59,1.59,0,0,0-.6,1.46,1.71,1.71,0,0,0,3.07.88,1.59,1.59,0,0,0,.27-1.56,1.63,1.63,0,0,0-.64-.84C128.86,260.47,128.72,260.45,128.71,260.47Z" style="fill:#263238"></path><path d="M130.21,248.88c-.07,2.19-.1,4.5,1,6.41s3.65,3.17,5.52,2c1.52-.93,1.93-2.93,2.14-4.71.62-5.12.82-10.28,1.47-15.4Z" style="fill:#263238"></path><path d="M170,221s-.71-.11-2-.12a14,14,0,0,0-5.27,1.12,17.62,17.62,0,0,0-3.27,1.81,35.26,35.26,0,0,0-3.35,2.71,40.66,40.66,0,0,0-6.49,7.42c-1,1.45-1.84,2.95-2.78,4.34a20.14,20.14,0,0,1-3.1,3.7,35.79,35.79,0,0,1-6.64,4.71c-2,1.15-3.71,1.95-4.87,2.51l-1.35.62a1.88,1.88,0,0,1-.49.19,3.11,3.11,0,0,1,.45-.27l1.31-.7c1.14-.6,2.81-1.45,4.79-2.62a36.06,36.06,0,0,0,6.51-4.75,19.86,19.86,0,0,0,3-3.64c.92-1.37,1.78-2.87,2.76-4.34a40.21,40.21,0,0,1,6.6-7.48,33.38,33.38,0,0,1,3.41-2.71,17,17,0,0,1,3.36-1.79,13.21,13.21,0,0,1,5.4-1,9.73,9.73,0,0,1,1.48.16A2.72,2.72,0,0,1,170,221Z" style="fill:#455a64"></path><path d="M129.85,243.94a4.22,4.22,0,0,1-.7.5l-2,1.25-.67.41a2.3,2.3,0,0,1-.87.31.8.8,0,0,1-.55-.11.68.68,0,0,1-.31-.52,1.76,1.76,0,0,1,.35-1l2.24-3.84.33.29a8.36,8.36,0,0,1-2.54,1.35,8.09,8.09,0,0,1-2.85.42,2.34,2.34,0,0,1-.73-.1,1,1,0,0,1-.64-.52.89.89,0,0,1,.11-.82,3.86,3.86,0,0,1,.44-.51,16.39,16.39,0,0,0,2.63-3.52,28.74,28.74,0,0,0,1.63-3.73,4,4,0,0,1-.22,1.08,14.49,14.49,0,0,1-1.13,2.8,16,16,0,0,1-2.61,3.66c-.29.29-.58.62-.45.87s.56.36,1,.35a8.19,8.19,0,0,0,2.7-.4,8.3,8.3,0,0,0,2.41-1.28l.93-.73-.61,1-2.29,3.8a1.5,1.5,0,0,0-.32.79.38.38,0,0,0,.47.33,3.94,3.94,0,0,0,1.42-.63l2.06-1.14A4,4,0,0,1,129.85,243.94Z" style="fill:#455a64"></path><path d="M154.13,264.61a2.7,2.7,0,0,1,2.71-2.12A2.83,2.83,0,0,1,159,264a3.46,3.46,0,0,1,.2,2.68l0,.19a3.05,3.05,0,0,1-3.41.83A2.85,2.85,0,0,1,154.13,264.61Z" style="fill:#eb996e"></path><path d="M160.68,266.83c0-.31-2.08-.15-3.69-1.81s-1.55-3.88-1.84-3.87c-.13,0-.37.52-.32,1.45a5.21,5.21,0,0,0,1.42,3.25,4.5,4.5,0,0,0,3.09,1.38C160.21,267.24,160.7,267,160.68,266.83Z" style="fill:#263238"></path><path d="M160.16,249.06a21.28,21.28,0,0,0-.38-2.16,9,9,0,0,0-3.27-4.82,8.78,8.78,0,0,0-8.29-1.21,8.77,8.77,0,0,0-4,3,8.69,8.69,0,0,0,0,10.3,8.71,8.71,0,0,0,4,3,8.74,8.74,0,0,0,8.29-1.22,8.91,8.91,0,0,0,3.27-4.81,21.13,21.13,0,0,0,.38-2.17,6.92,6.92,0,0,1-.18,2.22,9,9,0,0,1-7.09,6.8,9.17,9.17,0,0,1-4.83-.37,8.94,8.94,0,0,1-2.34-1.24,8.64,8.64,0,0,1-1.95-2,9.15,9.15,0,0,1,0-10.9,8.8,8.8,0,0,1,1.95-2,8.65,8.65,0,0,1,2.34-1.24,9.18,9.18,0,0,1,4.83-.38,9.08,9.08,0,0,1,7.09,6.81A6.86,6.86,0,0,1,160.16,249.06Z" style="fill:#455a64"></path><path d="M182.6,249.06a21.28,21.28,0,0,0-.38-2.16,8.91,8.91,0,0,0-3.27-4.82,8.78,8.78,0,0,0-8.29-1.21,8.41,8.41,0,0,0-2.2,1.19,8.28,8.28,0,0,0-1.84,1.85,8.69,8.69,0,0,0,0,10.3,8.33,8.33,0,0,0,1.84,1.86,8.41,8.41,0,0,0,2.2,1.19,8.85,8.85,0,0,0,11.56-6,21.13,21.13,0,0,0,.38-2.17,6.57,6.57,0,0,1-.18,2.22,9,9,0,0,1-7.09,6.8,9.17,9.17,0,0,1-4.83-.37,8.94,8.94,0,0,1-2.34-1.24,8.64,8.64,0,0,1-1.95-2,9.15,9.15,0,0,1,0-10.9,8.63,8.63,0,0,1,2-2,8.45,8.45,0,0,1,2.33-1.24,9.18,9.18,0,0,1,4.83-.38,9.08,9.08,0,0,1,7.09,6.81A6.51,6.51,0,0,1,182.6,249.06Z" style="fill:#455a64"></path><path d="M164.87,248a23.86,23.86,0,0,0-2.43,0,22,22,0,0,0-2.33.7,3.69,3.69,0,0,1,4.76-.68Z" style="fill:#455a64"></path><path d="M142.25,248.39a34.64,34.64,0,0,1-5.69,1.64,33.56,33.56,0,0,1-5.82,1.12,34.09,34.09,0,0,1,5.69-1.63A34.22,34.22,0,0,1,142.25,248.39Z" style="fill:#455a64"></path><path d="M149.14,256.33a4.36,4.36,0,0,1-2-.83,8,8,0,0,1-3.22-4.18,7.89,7.89,0,0,1,.18-5.27,4.26,4.26,0,0,1,1.16-1.86c.08.05-.42.73-.82,2a8,8,0,0,0,2.91,9C148.38,256,149.18,256.24,149.14,256.33Z" style="fill:#fff"></path><path d="M147.94,242c.07.12-.19.42-.59.67s-.79.36-.87.24.19-.43.59-.68S147.86,241.92,147.94,242Z" style="fill:#fff"></path><path d="M167,253.05a4.1,4.1,0,0,1-1-1.85,7.84,7.84,0,0,1,3.28-8.94,4.08,4.08,0,0,1,1.93-.79c0,.08-.72.35-1.72,1.09a8.4,8.4,0,0,0-2.87,3.79,8.51,8.51,0,0,0-.27,4.75C166.64,252.31,167,253,167,253.05Z" style="fill:#fff"></path><path d="M169.84,255.53c0,.14-.64.12-1.19-.35s-.66-1.1-.53-1.14.42.36.87.74S169.88,255.38,169.84,255.53Z" style="fill:#fff"></path></g></svg>